999
dxflib 3.17.0.0
  0
SECTION
  2
HEADER
  9
$ACADVER
  1
AC1015
  9
$HANDSEED
  5
FFFF
  9
$ANGBASE
 50
0.0
  9
$ANGDIR
 70
0
  9
$ATTMODE
 70
1
  9
$AUNITS
 70
0
  9
$AUPREC
 70
0
  9
$CECOLOR
 62
256
  9
$CELTSCALE
 40
1.0
  9
$CHAMFERA
 40
0.0
  9
$CHAMFERB
 40
0.0
  9
$CHAMFERC
 40
0.0
  9
$CHAMFERD
 40
0.0
  9
$CMLJUST
 70
0
  9
$CMLSCALE
 40
1.0
  9
$DIMADEC
 70
0
  9
$DIMALT
 70
0
  9
$DIMALTD
 70
2
  9
$DIMALTF
 40
25.3999999999999986
  9
$DIMALTRND
 40
0.0
  9
$DIMALTTD
 70
2
  9
$DIMALTTZ
 70
0
  9
$DIMALTU
 70
2
  9
$DIMALTZ
 70
0
  9
$DIMAPOST
  1

  9
$DIMASZ
 40
2.5
  9
$DIMATFIT
 70
3
  9
$DIMAUNIT
 70
0
  9
$DIMAZIN
 70
2
  9
$DIMBLK
  1

  9
$DIMBLK1
  1

  9
$DIMBLK2
  1

  9
$DIMCEN
 40
0.09
  9
$DIMCLRD
 70
0
  9
$DIMCLRE
 70
0
  9
$DIMCLRT
 70
0
  9
$DIMDEC
 70
4
  9
$DIMDLE
 40
0.0
  9
$DIMDLI
 40
5.0
  9
$DIMDSEP
 70
46
  9
$DIMEXE
 40
1.25
  9
$DIMEXO
 40
0.625
  9
$DIMFRAC
 70
0
  9
$DIMGAP
 40
0.625
  9
$DIMJUST
 70
0
  9
$DIMLDRBLK
  1

  9
$DIMLFAC
 40
1.0
  9
$DIMLIM
 70
0
  9
$DIMLUNIT
 70
2
  9
$DIMLWD
 70
-2
  9
$DIMLWE
 70
-2
  9
$DIMPOST
  1

  9
$DIMRND
 40
0.0
  9
$DIMSAH
 70
0
  9
$DIMSCALE
 40
1.0
  9
$DIMSD1
 70
0
  9
$DIMSD2
 70
0
  9
$DIMSE1
 70
0
  9
$DIMSE2
 70
0
  9
$DIMSOXD
 70
0
  9
$DIMTAD
 70
0
  9
$DIMTDEC
 70
4
  9
$DIMTFAC
 40
1.0
  9
$DIMTIH
 70
1
  9
$DIMTIX
 70
0
  9
$DIMTM
 40
0.0
  9
$DIMTOFL
 70
0
  9
$DIMTOH
 70
1
  9
$DIMTOL
 70
0
  9
$DIMTOLJ
 70
1
  9
$DIMTP
 40
0.0
  9
$DIMTSZ
 40
0.0
  9
$DIMTVP
 40
0.0
  9
$DIMTXSTY
  7
Standard
  9
$DIMTXT
 40
2.5
  9
$DIMTZIN
 70
0
  9
$DIMUPT
 70
0
  9
$DIMZIN
 70
8
  9
$DISPSILH
 70
0
  9
$DWGCODEPAGE
  3
ANSI_1252
  9
$ELEVATION
 40
0.0
  9
$EXTMAX
 10
1685.0423743405119694
 20
167.3166965125105889
 30
0.0000000000002956
  9
$EXTMIN
 10
-135.0702595052457013
 20
-856.9538101557608343
 30
-0.0000000000112498
  9
$FILLETRAD
 40
0.0
  9
$FILLMODE
 70
1
  9
$INSBASE
 10
0.0
 20
0.0
 30
0.0
  9
$INSUNITS
 70
4
  9
$LIMCHECK
 70
0
  9
$LIMMAX
 10
12.0
 20
9.0
  9
$LIMMIN
 10
0.0
 20
0.0
  9
$LTSCALE
 40
1.0
  9
$LUNITS
 70
2
  9
$LUPREC
 70
4
  9
$MAXACTVP
 70
64
  9
$MEASUREMENT
 70
1
  9
$MIRRTEXT
 70
0
  9
$ORTHOMODE
 70
0
  9
$PDMODE
 70
0
  9
$PDSIZE
 40
0.0
  9
$PELEVATION
 40
0.0
  9
$PEXTMAX
 10
-100000000000000000000.0
 20
-100000000000000000000.0
 30
-100000000000000000000.0
  9
$PEXTMIN
 10
100000000000000000000.0
 20
100000000000000000000.0
 30
100000000000000000000.0
  9
$PINSBASE
 10
0.0
 20
0.0
 30
0.0
  9
$PLIMCHECK
 70
0
  9
$PLIMMAX
 10
12.0
 20
9.0
  9
$PLIMMIN
 10
0.0
 20
0.0
  9
$PLINEGEN
 70
0
  9
$PLINEWID
 40
0.0
  9
$PROXYGRAPHICS
 70
1
  9
$PSLTSCALE
 70
1
  9
$PUCSNAME
  2

  9
$PUCSORG
 10
0.0
 20
0.0
 30
0.0
  9
$PUCSXDIR
 10
1.0
 20
0.0
 30
0.0
  9
$PUCSYDIR
 10
0.0
 20
1.0
 30
0.0
  9
$QTEXTMODE
 70
0
  9
$REGENMODE
 70
1
  9
$SHADEDGE
 70
3
  9
$SHADEDIF
 70
70
  9
$SKETCHINC
 40
0.1
  9
$SKPOLY
 70
0
  9
$SPLFRAME
 70
0
  9
$SPLINESEGS
 70
8
  9
$SPLINETYPE
 70
6
  9
$SURFTAB1
 70
6
  9
$SURFTAB2
 70
6
  9
$SURFTYPE
 70
6
  9
$SURFU
 70
6
  9
$SURFV
 70
6
  9
$TEXTSIZE
 40
38.4102698155738906
  9
$TEXTSTYLE
  7
Standard
  9
$THICKNESS
 40
0.0
  9
$TILEMODE
 70
1
  9
$TRACEWID
 40
0.05
  9
$TREEDEPTH
 70
3020
  9
$UCSNAME
  2

  9
$UCSORG
 10
0.0
 20
0.0
 30
0.0
  9
$UCSXDIR
 10
1.0
 20
0.0
 30
0.0
  9
$UCSYDIR
 10
0.0
 20
1.0
 30
0.0
  9
$UNITMODE
 70
0
  9
$USERI1
 70
0
  9
$USERI2
 70
0
  9
$USERI3
 70
0
  9
$USERI4
 70
0
  9
$USERI5
 70
0
  9
$USERR1
 40
0.0
  9
$USERR2
 40
0.0
  9
$USERR3
 40
0.0
  9
$USERR4
 40
0.0
  9
$USERR5
 40
0.0
  9
$USRTIMER
 70
1
  9
$VISRETAIN
 70
1
  0
ENDSEC
  0
SECTION
  2
TABLES
  0
TABLE
  2
VPORT
  5
8
100
AcDbSymbolTable
 70
1
  0
VPORT
  5
30
100
AcDbSymbolTableRecord
100
AcDbViewportTableRecord
  2
*Active
 70
0
 10
0.0
 20
0.0
 11
1.0
 21
1.0
 12
286.3055555555554861
 22
148.5
 13
0.0
 23
0.0
 14
10.0
 24
10.0
 15
10.0
 25
10.0
 16
0.0
 26
0.0
 36
1.0
 17
0.0
 27
0.0
 37
0.0
 40
297.0
 41
1.92798353909465
 42
50.0
 43
0.0
 44
0.0
 50
0.0
 51
0.0
 71
0
 72
100
 73
1
 74
3
 75
1
 76
1
 77
0
 78
0
281
0
 65
1
110
0.0
120
0.0
130
0.0
111
1.0
121
0.0
131
0.0
112
0.0
122
1.0
132
0.0
 79
0
146
0.0
  0
ENDTAB
  0
TABLE
  2
LTYPE
  5
5
100
AcDbSymbolTable
 70
41
  0
LTYPE
  5
16
100
AcDbSymbolTableRecord
100
AcDbLinetypeTableRecord
  2
Continuous
 70
0
  3
Solid line
 72
65
 73
0
 40
0.0
  0
LTYPE
  5
31
100
AcDbSymbolTableRecord
100
AcDbLinetypeTableRecord
  2
PHANTOMX2
 70
0
  3
Phantom (2x) ____________    ____    ____   _
 72
65
 73
6
 40
127.0000000000000142
 49
63.5
 74
0
 49
-12.6999999999999993
 74
0
 49
12.6999999999999993
 74
0
 49
-12.6999999999999993
 74
0
 49
12.6999999999999993
 74
0
 49
-12.6999999999999993
 74
0
  0
LTYPE
  5
32
100
AcDbSymbolTableRecord
100
AcDbLinetypeTableRecord
  2
ACAD_ISO02W100
 70
0
  3
ISO dash __ __ __ __ __ __ __ __ __ __ __ __ __
 72
65
 73
2
 40
15.0
 49
12.0
 74
0
 49
-3.0
 74
0
  0
LTYPE
  5
33
100
AcDbSymbolTableRecord
100
AcDbLinetypeTableRecord
  2
CENTER2
 70
0
  3
Center (.5x) ___ _ ___ _ ___ _ ___ _ ___ _ ___
 72
65
 73
4
 40
28.5749999999999922
 49
19.0500000000000007
 74
0
 49
-3.174999999999998
 74
0
 49
3.174999999999998
 74
0
 49
-3.174999999999998
 74
0
  0
LTYPE
  5
34
100
AcDbSymbolTableRecord
100
AcDbLinetypeTableRecord
  2
DOT2
 70
0
  3
Dot (.5x) ........................................
 72
65
 73
2
 40
3.174999999999998
 49
0.1
 74
0
 49
-3.074999999999998
 74
0
  0
LTYPE
  5
35
100
AcDbSymbolTableRecord
100
AcDbLinetypeTableRecord
  2
HIDDEN2
 70
0
  3
Hidden (.5x) _ _ _ _ _ _ _ _ _ _ _ _ _ _ _ _ _ 
 72
65
 73
2
 40
4.7624999999999975
 49
3.174999999999998
 74
0
 49
-1.587499999999999
 74
0
  0
LTYPE
  5
36
100
AcDbSymbolTableRecord
100
AcDbLinetypeTableRecord
  2
ACAD_ISO08W100
 70
0
  3
ISO long-dash short-dash ____ __ ____ __ ____ _
 72
65
 73
4
 40
36.0
 49
24.0
 74
0
 49
-3.0
 74
0
 49
6.0
 74
0
 49
-3.0
 74
0
  0
LTYPE
  5
37
100
AcDbSymbolTableRecord
100
AcDbLinetypeTableRecord
  2
ACAD_ISO14W100
 70
0
  3
ISO dash triple-dot __ . . . __ . . . __ . . . _
 72
65
 73
8
 40
24.0
 49
12.0
 74
0
 49
-2.9500000000000002
 74
0
 49
0.1
 74
0
 49
-2.8999999999999999
 74
0
 49
0.1
 74
0
 49
-2.8999999999999999
 74
0
 49
0.1
 74
0
 49
-2.9500000000000002
 74
0
  0
LTYPE
  5
38
100
AcDbSymbolTableRecord
100
AcDbLinetypeTableRecord
  2
DOTX2
 70
0
  3
Dot (2x) .  .  .  .  .  .  .  .  .  .  .  .  .  .
 72
65
 73
2
 40
12.6999999999999993
 49
0.1
 74
0
 49
-12.5999999999999996
 74
0
  0
LTYPE
  5
39
100
AcDbSymbolTableRecord
100
AcDbLinetypeTableRecord
  2
DIVIDEX2
 70
0
  3
Divide (2x) ________  .  .  ________  .  .  _
 72
65
 73
6
 40
63.5
 49
25.3999999999999986
 74
0
 49
-12.6500000000000004
 74
0
 49
0.1
 74
0
 49
-12.5999999999999996
 74
0
 49
0.1
 74
0
 49
-12.6500000000000004
 74
0
  0
LTYPE
  5
3A
100
AcDbSymbolTableRecord
100
AcDbLinetypeTableRecord
  2
DOT
 70
0
  3
Dot . . . . . . . . . . . . . . . . . . . . . . . .
 72
65
 73
2
 40
6.3499999999999988
 49
0.1
 74
0
 49
-6.2499999999999991
 74
0
  0
LTYPE
  5
3B
100
AcDbSymbolTableRecord
100
AcDbLinetypeTableRecord
  2
ACAD_ISO07W100
 70
0
  3
ISO dot . . . . . . . . . . . . . . . . . . . . 
 72
65
 73
2
 40
3.0
 49
0.1
 74
0
 49
-2.8999999999999999
 74
0
  0
LTYPE
  5
3C
100
AcDbSymbolTableRecord
100
AcDbLinetypeTableRecord
  2
ACAD_ISO10W100
 70
0
  3
ISO dash dot __ . __ . __ . __ . __ . __ . __ . 
 72
65
 73
4
 40
18.0
 49
12.0
 74
0
 49
-2.9500000000000002
 74
0
 49
0.1
 74
0
 49
-2.9500000000000002
 74
0
  0
LTYPE
  5
3D
100
AcDbSymbolTableRecord
100
AcDbLinetypeTableRecord
  2
PHANTOM
 70
0
  3
Phantom ______  __  __  ______  __  __  ______ 
 72
65
 73
6
 40
63.4999999999999716
 49
31.75
 74
0
 49
-6.349999999999997
 74
0
 49
6.349999999999997
 74
0
 49
-6.349999999999997
 74
0
 49
6.349999999999997
 74
0
 49
-6.349999999999997
 74
0
  0
LTYPE
  5
3E
100
AcDbSymbolTableRecord
100
AcDbLinetypeTableRecord
  2
DASHDOTX2
 70
0
  3
Dash dot (2x) ____  .  ____  .  ____  .  ___
 72
65
 73
4
 40
50.7999999999999972
 49
25.3999999999999986
 74
0
 49
-12.6500000000000004
 74
0
 49
0.1
 74
0
 49
-12.6500000000000004
 74
0
  0
LTYPE
  5
3F
100
AcDbSymbolTableRecord
100
AcDbLinetypeTableRecord
  2
DIVIDE2
 70
0
  3
Divide (.5x) __..__..__..__..__..__..__..__.._
 72
65
 73
6
 40
15.8749999999999929
 49
6.349999999999997
 74
0
 49
-3.1249999999999991
 74
0
 49
0.1
 74
0
 49
-3.074999999999998
 74
0
 49
0.1
 74
0
 49
-3.1249999999999991
 74
0
  0
LTYPE
  5
40
100
AcDbSymbolTableRecord
100
AcDbLinetypeTableRecord
  2
ACAD_ISO09W100
 70
0
  3
ISO long-dash double-short-dash ____ __ __ ____
 72
65
 73
6
 40
45.0
 49
24.0
 74
0
 49
-3.0
 74
0
 49
6.0
 74
0
 49
-3.0
 74
0
 49
6.0
 74
0
 49
-3.0
 74
0
  0
LTYPE
  5
14
100
AcDbSymbolTableRecord
100
AcDbLinetypeTableRecord
  2
BYBLOCK
 70
0
  3

 72
65
 73
0
 40
0.0
  0
LTYPE
  5
41
100
AcDbSymbolTableRecord
100
AcDbLinetypeTableRecord
  2
DIVIDE
 70
0
  3
Divide ____ . . ____ . . ____ . . ____ . . ____
 72
65
 73
6
 40
31.7499999999999964
 49
12.6999999999999993
 74
0
 49
-6.299999999999998
 74
0
 49
0.1
 74
0
 49
-6.2499999999999991
 74
0
 49
0.1
 74
0
 49
-6.299999999999998
 74
0
  0
LTYPE
  5
42
100
AcDbSymbolTableRecord
100
AcDbLinetypeTableRecord
  2
ACAD_ISO04W100
 70
0
  3
ISO long-dash dot ____ . ____ . ____ . ____ . _
 72
65
 73
4
 40
30.0
 49
24.0
 74
0
 49
-2.9500000000000002
 74
0
 49
0.1
 74
0
 49
-2.9500000000000002
 74
0
  0
LTYPE
  5
43
100
AcDbSymbolTableRecord
100
AcDbLinetypeTableRecord
  2
ACAD_ISO11W100
 70
0
  3
ISO double-dash dot __ __ . __ __ . __ __ . __ _
 72
65
 73
6
 40
33.0
 49
12.0
 74
0
 49
-3.0
 74
0
 49
12.0
 74
0
 49
-2.9500000000000002
 74
0
 49
0.1
 74
0
 49
-2.9500000000000002
 74
0
  0
LTYPE
  5
44
100
AcDbSymbolTableRecord
100
AcDbLinetypeTableRecord
  2
HIDDENX2
 70
0
  3
Hidden (2x) ____ ____ ____ ____ ____ ____ ____ 
 72
65
 73
2
 40
19.0499999999999972
 49
12.6999999999999993
 74
0
 49
-6.349999999999997
 74
0
  0
LTYPE
  5
45
100
AcDbSymbolTableRecord
100
AcDbLinetypeTableRecord
  2
BORDERX2
 70
0
  3
Border (2x) ____  ____  .  ____  ____  .  ___
 72
65
 73
6
 40
88.8999999999999915
 49
25.3999999999999986
 74
0
 49
-12.6999999999999993
 74
0
 49
25.3999999999999986
 74
0
 49
-12.6500000000000004
 74
0
 49
0.1
 74
0
 49
-12.6500000000000004
 74
0
  0
LTYPE
  5
46
100
AcDbSymbolTableRecord
100
AcDbLinetypeTableRecord
  2
DASHEDX2
 70
0
  3
Dashed (2x) ____  ____  ____  ____  ____  ___
 72
65
 73
2
 40
38.0999999999999943
 49
25.3999999999999986
 74
0
 49
-12.6999999999999993
 74
0
  0
LTYPE
  5
47
100
AcDbSymbolTableRecord
100
AcDbLinetypeTableRecord
  2
ACAD_ISO15W100
 70
0
  3
ISO double-dash triple-dot __ __ . . . __ __ . .
 72
65
 73
10
 40
39.0000000000000071
 49
12.0
 74
0
 49
-3.0
 74
0
 49
12.0
 74
0
 49
-2.9500000000000002
 74
0
 49
0.1
 74
0
 49
-2.8999999999999999
 74
0
 49
0.1
 74
0
 49
-2.8999999999999999
 74
0
 49
0.1
 74
0
 49
-2.9500000000000002
 74
0
  0
LTYPE
  5
48
100
AcDbSymbolTableRecord
100
AcDbLinetypeTableRecord
  2
CENTERX2
 70
0
  3
Center (2x) ________  __  ________  __  _____
 72
65
 73
4
 40
101.6000000000000085
 49
63.5
 74
0
 49
-12.6999999999999993
 74
0
 49
12.6999999999999993
 74
0
 49
-12.6999999999999993
 74
0
  0
LTYPE
  5
49
100
AcDbSymbolTableRecord
100
AcDbLinetypeTableRecord
  2
CENTER
 70
0
  3
Center ____ _ ____ _ ____ _ ____ _ ____ _ ____
 72
65
 73
4
 40
50.7999999999999829
 49
31.75
 74
0
 49
-6.349999999999997
 74
0
 49
6.349999999999997
 74
0
 49
-6.349999999999997
 74
0
  0
LTYPE
  5
4A
100
AcDbSymbolTableRecord
100
AcDbLinetypeTableRecord
  2
DASHED2
 70
0
  3
Dashed (.5x) _ _ _ _ _ _ _ _ _ _ _ _ _ _ _ _ _ 
 72
65
 73
2
 40
9.524999999999995
 49
6.349999999999997
 74
0
 49
-3.174999999999998
 74
0
  0
LTYPE
  5
4B
100
AcDbSymbolTableRecord
100
AcDbLinetypeTableRecord
  2
PHANTOM2
 70
0
  3
Phantom (.5x) ___ _ _ ___ _ _ ___ _ _ ___ _ _
 72
65
 73
6
 40
31.7499999999999858
 49
15.875
 74
0
 49
-3.174999999999998
 74
0
 49
3.174999999999998
 74
0
 49
-3.174999999999998
 74
0
 49
3.174999999999998
 74
0
 49
-3.174999999999998
 74
0
  0
LTYPE
  5
4C
100
AcDbSymbolTableRecord
100
AcDbLinetypeTableRecord
  2
HIDDEN
 70
0
  3
Hidden __ __ __ __ __ __ __ __ __ __ __ __ __ __
 72
65
 73
2
 40
9.524999999999995
 49
6.349999999999997
 74
0
 49
-3.174999999999998
 74
0
  0
LTYPE
  5
4D
100
AcDbSymbolTableRecord
100
AcDbLinetypeTableRecord
  2
ACAD_ISO13W100
 70
0
  3
ISO double-dash double-dot __ __ . . __ __ . . _
 72
65
 73
8
 40
36.0000000000000071
 49
12.0
 74
0
 49
-3.0
 74
0
 49
12.0
 74
0
 49
-2.9500000000000002
 74
0
 49
0.1
 74
0
 49
-2.8999999999999999
 74
0
 49
0.1
 74
0
 49
-2.9500000000000002
 74
0
  0
LTYPE
  5
4E
100
AcDbSymbolTableRecord
100
AcDbLinetypeTableRecord
  2
DASHDOT
 70
0
  3
Dash dot __ . __ . __ . __ . __ . __ . __ . __
 72
65
 73
4
 40
25.399999999999995
 49
12.6999999999999993
 74
0
 49
-6.299999999999998
 74
0
 49
0.1
 74
0
 49
-6.299999999999998
 74
0
  0
LTYPE
  5
15
100
AcDbSymbolTableRecord
100
AcDbLinetypeTableRecord
  2
BYLAYER
 70
0
  3

 72
65
 73
0
 40
0.0
  0
LTYPE
  5
4F
100
AcDbSymbolTableRecord
100
AcDbLinetypeTableRecord
  2
ACAD_ISO12W100
 70
0
  3
ISO dash double-dot __ . . __ . . __ . . __ . . 
 72
65
 73
6
 40
21.0
 49
12.0
 74
0
 49
-2.9500000000000002
 74
0
 49
0.1
 74
0
 49
-2.8999999999999999
 74
0
 49
0.1
 74
0
 49
-2.9500000000000002
 74
0
  0
LTYPE
  5
50
100
AcDbSymbolTableRecord
100
AcDbLinetypeTableRecord
  2
BORDER
 70
0
  3
Border __ __ . __ __ . __ __ . __ __ . __ __ .
 72
65
 73
6
 40
44.4499999999999957
 49
12.6999999999999993
 74
0
 49
-6.349999999999997
 74
0
 49
12.6999999999999993
 74
0
 49
-6.299999999999998
 74
0
 49
0.1
 74
0
 49
-6.299999999999998
 74
0
  0
LTYPE
  5
51
100
AcDbSymbolTableRecord
100
AcDbLinetypeTableRecord
  2
ACAD_ISO03W100
 70
0
  3
ISO dash space __    __    __    __    __    __
 72
65
 73
2
 40
30.0
 49
12.0
 74
0
 49
-18.0
 74
0
  0
LTYPE
  5
52
100
AcDbSymbolTableRecord
100
AcDbLinetypeTableRecord
  2
ACAD_ISO06W100
 70
0
  3
ISO long-dash triple-dot ____ ... ____ ... ____
 72
65
 73
8
 40
36.0000000000000071
 49
24.0
 74
0
 49
-2.9500000000000002
 74
0
 49
0.1
 74
0
 49
-2.8999999999999999
 74
0
 49
0.1
 74
0
 49
-2.8999999999999999
 74
0
 49
0.1
 74
0
 49
-2.9500000000000002
 74
0
  0
LTYPE
  5
53
100
AcDbSymbolTableRecord
100
AcDbLinetypeTableRecord
  2
ACAD_ISO05W100
 70
0
  3
ISO long-dash double-dot ____ .. ____ .. ____ . 
 72
65
 73
6
 40
33.0
 49
24.0
 74
0
 49
-2.9500000000000002
 74
0
 49
0.1
 74
0
 49
-2.8999999999999999
 74
0
 49
0.1
 74
0
 49
-2.9500000000000002
 74
0
  0
LTYPE
  5
54
100
AcDbSymbolTableRecord
100
AcDbLinetypeTableRecord
  2
BORDER2
 70
0
  3
Border (.5x) __.__.__.__.__.__.__.__.__.__.__.
 72
65
 73
6
 40
22.2249999999999943
 49
6.349999999999997
 74
0
 49
-3.174999999999998
 74
0
 49
6.349999999999997
 74
0
 49
-3.1249999999999991
 74
0
 49
0.1
 74
0
 49
-3.1249999999999991
 74
0
  0
LTYPE
  5
55
100
AcDbSymbolTableRecord
100
AcDbLinetypeTableRecord
  2
DASHED
 70
0
  3
Dashed __ __ __ __ __ __ __ __ __ __ __ __ __ _
 72
65
 73
2
 40
19.0499999999999972
 49
12.6999999999999993
 74
0
 49
-6.349999999999997
 74
0
  0
LTYPE
  5
56
100
AcDbSymbolTableRecord
100
AcDbLinetypeTableRecord
  2
DASHDOT2
 70
0
  3
Dash dot (.5x) _._._._._._._._._._._._._._._.
 72
65
 73
4
 40
12.6999999999999957
 49
6.349999999999997
 74
0
 49
-3.1249999999999991
 74
0
 49
0.1
 74
0
 49
-3.1249999999999991
 74
0
  0
ENDTAB
  0
TABLE
  2
LAYER
  5
2
100
AcDbSymbolTable
 70
2
  0
LAYER
  5
10
100
AcDbSymbolTableRecord
100
AcDbLayerTableRecord
  2
0
 70
0
 62
7
420
16777215
  6
Continuous
370
25
390
F
  0
LAYER
  5
57
100
AcDbSymbolTableRecord
100
AcDbLayerTableRecord
  2
layer 1
 70
0
 62
7
420
0
  6
ACAD_ISO02W100
370
0
390
F
  0
ENDTAB
  0
TABLE
  2
STYLE
  5
3
100
AcDbSymbolTable
 70
4
  0
STYLE
  5
58
100
AcDbSymbolTableRecord
100
AcDbTextStyleTableRecord
  2
Standard
 70
0
 40
0.0
 41
1.0
 50
0.0
 71
0
 42
2.5
  3

  4

1001
ACAD
1000
txt
1071
0
  0
STYLE
  5
59
100
AcDbSymbolTableRecord
100
AcDbTextStyleTableRecord
  2
textstyle0
 70
0
 40
0.0
 41
1.0
 50
0.0
 71
0
 42
38.4102698155738906
  3

  4

1001
ACAD
1000

1071
0
  0
STYLE
  5
5A
100
AcDbSymbolTableRecord
100
AcDbTextStyleTableRecord
  2
textstyle1
 70
0
 40
0.0
 41
1.0
 50
0.0
 71
0
 42
3.0
  3

  4

1001
ACAD
1000
Standard
1071
0
  0
STYLE
  5
5B
100
AcDbSymbolTableRecord
100
AcDbTextStyleTableRecord
  2
textstyle2
 70
0
 40
0.0
 41
1.0
 50
0.0
 71
0
 42
15.0
  3

  4

1001
ACAD
1000
Standard
1071
0
  0
ENDTAB
  0
TABLE
  2
VIEW
  5
6
100
AcDbSymbolTable
 70
0
  0
ENDTAB
  0
TABLE
  2
UCS
  5
7
100
AcDbSymbolTable
 70
0
  0
ENDTAB
  0
TABLE
  2
APPID
  5
9
100
AcDbSymbolTable
 70
1
  0
APPID
  5
12
100
AcDbSymbolTableRecord
100
AcDbRegAppTableRecord
  2
ACAD
 70
0
  0
APPID
  5
5C
100
AcDbSymbolTableRecord
100
AcDbRegAppTableRecord
  2
QCAD
 70
0
  0
ENDTAB
  0
TABLE
  2
DIMSTYLE
  5
A
100
AcDbSymbolTable
 70
1
100
AcDbDimStyleTable
 71
0
  0
DIMSTYLE
105
27
100
AcDbSymbolTableRecord
100
AcDbDimStyleTableRecord
  2
Standard
 41
2.5
 42
0.625
 43
3.75
 44
1.25
 70
0
 73
0
 74
0
 77
1
 78
8
140
2.5
141
2.5
143
0.03937007874016
147
0.625
171
3
172
1
271
2
272
2
274
3
278
44
283
0
284
8
340
58
  0
ENDTAB
  0
TABLE
  2
BLOCK_RECORD
  5
1
100
AcDbSymbolTable
 70
1
  0
BLOCK_RECORD
  5
1F
100
AcDbSymbolTableRecord
100
AcDbBlockTableRecord
  2
*Model_Space
340
22
  0
BLOCK_RECORD
  5
1B
100
AcDbSymbolTableRecord
100
AcDbBlockTableRecord
  2
*Paper_Space
340
1E
  0
BLOCK_RECORD
  5
23
100
AcDbSymbolTableRecord
100
AcDbBlockTableRecord
  2
*Paper_Space0
340
26
  0
BLOCK_RECORD
  5
5D
100
AcDbSymbolTableRecord
100
AcDbBlockTableRecord
  2
A$C78216895
340
0
  0
ENDTAB
  0
ENDSEC
  0
SECTION
  2
BLOCKS
  0
BLOCK
  5
20
100
AcDbEntity
  8
0
100
AcDbBlockBegin
  2
*Model_Space
 70
0
 10
0.0
 20
0.0
 30
0.0
  3
*Model_Space
  1

  0
ENDBLK
  5
21
100
AcDbEntity
  8
0
100
AcDbBlockEnd
  0
BLOCK
  5
1C
100
AcDbEntity
 67
1
  8
0
100
AcDbBlockBegin
  2
*Paper_Space
 70
0
 10
0.0
 20
0.0
 30
0.0
  3
*Paper_Space
  1

  0
ENDBLK
  5
1D
100
AcDbEntity
 67
1
  8
0
100
AcDbBlockEnd
  0
BLOCK
  5
24
100
AcDbEntity
  8
0
100
AcDbBlockBegin
  2
*Paper_Space0
 70
0
 10
0.0
 20
0.0
 30
0.0
  3
*Paper_Space0
  1

  0
ENDBLK
  5
25
100
AcDbEntity
  8
0
100
AcDbBlockEnd
  0
BLOCK
  5
5E
100
AcDbEntity
  8
0
100
AcDbBlockBegin
  2
A$C78216895
 70
0
 10
0.0
 20
0.0
 30
0.0
  3
A$C78216895
  1

  0
HATCH
  5
5F
100
AcDbEntity
  8
0
 62
5
420
255
370
5
 48
1.0
  6
BYLAYER
100
AcDbHatch
 10
0.0
 20
0.0
 30
0.0
210
0.0
220
0.0
230
1.0
  2
SOLID
 70
1
 71
0
 91
1
 92
1
 93
1
 72
2
 10
3.7499981735754768
 20
3.750000601018427
 40
3.75
 50
180.0
 51
180.0
 73
0
 97
0
 75
0
 76
1
 98
0
1001
ACAD
1010
0.0
1020
0.0
1030
0
  0
CIRCLE
  5
60
100
AcDbEntity
  8
0
 62
1
420
16711680
370
5
 48
1.0
  6
BYLAYER
100
AcDbCircle
 10
3.7499981735754768
 20
3.750000601018427
 30
0.0
 40
2.8500000000000001
  0
ENDBLK
  5
61
100
AcDbEntity
  8
0
100
AcDbBlockEnd
  0
ENDSEC
  0
SECTION
  2
ENTITIES
  0
LINE
  5
62
100
AcDbEntity
  8
0
 62
1
420
16711680
370
5
 48
1.0
  6
BYLAYER
100
AcDbLine
 10
165.0
 20
-100.0
 30
0.0
 11
435.0
 21
-100.0
 31
0.0
  0
LINE
  5
63
100
AcDbEntity
  8
0
 62
1
420
16711680
370
5
 48
1.0
  6
BYLAYER
100
AcDbLine
 10
-134.9694255871389998
 20
-400.0
 30
0.0
 11
135.0305744128608865
 21
-400.0
 31
0.0
  0
LINE
  5
64
100
AcDbEntity
  8
0
 62
1
420
16711680
370
5
 48
1.0
  6
BYLAYER
100
AcDbLine
 10
-135.0
 20
-90.0
 30
0.0
 11
-135.0
 21
-90.0
 31
0.0
  0
LINE
  5
65
100
AcDbEntity
  8
0
 62
1
420
16711680
370
5
 48
1.0
  6
BYLAYER
100
AcDbLine
 10
435.0
 20
-100.0
 30
0.0
 11
435.0
 21
100.0
 31
0.0
  0
LINE
  5
66
100
AcDbEntity
  8
0
 62
1
420
16711680
370
5
 48
1.0
  6
BYLAYER
100
AcDbLine
 10
135.0305744128608865
 20
-400.0
 30
0.0
 11
135.0305744128608865
 21
-200.0
 31
0.0
  0
LINE
  5
67
100
AcDbEntity
  8
0
 62
1
420
16711680
370
5
 48
1.0
  6
BYLAYER
100
AcDbLine
 10
135.0
 20
100.0
 30
0.0
 11
135.0
 21
100.0
 31
0.0
  0
LINE
  5
68
100
AcDbEntity
  8
0
 62
1
420
16711680
370
5
 48
1.0
  6
BYLAYER
100
AcDbLine
 10
435.0
 20
100.0
 30
0.0
 11
165.0
 21
100.0
 31
0.0
  0
LINE
  5
69
100
AcDbEntity
  8
0
 62
1
420
16711680
370
5
 48
1.0
  6
BYLAYER
100
AcDbLine
 10
135.0305744128608865
 20
-200.0
 30
0.0
 11
-134.9694255871389998
 21
-200.0
 31
0.0
  0
LINE
  5
6A
100
AcDbEntity
  8
0
 62
1
420
16711680
370
5
 48
1.0
  6
BYLAYER
100
AcDbLine
 10
165.0
 20
100.0
 30
0.0
 11
165.0
 21
-100.0
 31
0.0
  0
LINE
  5
6B
100
AcDbEntity
  8
0
 62
1
420
16711680
370
5
 48
1.0
  6
BYLAYER
100
AcDbLine
 10
-134.9694255871389998
 20
-200.0
 30
0.0
 11
-134.9694255871389998
 21
-400.0
 31
0.0
  0
CIRCLE
  5
6C
100
AcDbEntity
  8
0
 62
1
420
16711680
370
5
 48
1.0
  6
BYLAYER
100
AcDbCircle
 10
-20.9999554023744004
 20
32.5566659249864898
 30
0.0
 40
2.0
  0
CIRCLE
  5
6D
100
AcDbEntity
  8
0
 62
1
420
16711680
370
5
 48
1.0
  6
BYLAYER
100
AcDbCircle
 10
-20.9999554023744004
 20
-32.5566659249864898
 30
0.0
 40
2.0
  0
CIRCLE
  5
6E
100
AcDbEntity
  8
0
 62
1
420
16711680
370
5
 48
1.0
  6
BYLAYER
100
AcDbCircle
 10
15.0
 20
32.5
 30
0.0
 40
2.0
  0
CIRCLE
  5
6F
100
AcDbEntity
  8
0
 62
1
420
16711680
370
5
 48
1.0
  6
BYLAYER
100
AcDbCircle
 10
15.0
 20
-32.5
 30
0.0
 40
2.0
  0
CIRCLE
  5
70
100
AcDbEntity
  8
0
 62
1
420
16711680
370
5
 48
1.0
  6
BYLAYER
100
AcDbCircle
 10
-20.8099735928678804
 20
55.5558812792557717
 30
0.0
 40
2.0
  0
CIRCLE
  5
71
100
AcDbEntity
  8
0
 62
1
420
16711680
370
5
 48
1.0
  6
BYLAYER
100
AcDbCircle
 10
-20.8099735928678804
 20
-55.5558812792557717
 30
0.0
 40
2.0
  0
CIRCLE
  5
72
100
AcDbEntity
  8
0
 62
1
420
16711680
370
5
 48
1.0
  6
BYLAYER
100
AcDbCircle
 10
120.0
 20
-60.0
 30
0.0
 40
2.0
  0
CIRCLE
  5
73
100
AcDbEntity
  8
0
 62
1
420
16711680
370
5
 48
1.0
  6
BYLAYER
100
AcDbCircle
 10
120.0
 20
60.0
 30
0.0
 40
2.0
  0
CIRCLE
  5
74
100
AcDbEntity
  8
0
 62
1
420
16711680
370
5
 48
1.0
  6
BYLAYER
100
AcDbCircle
 10
0.0
 20
80.0
 30
0.0
 40
2.0
  0
CIRCLE
  5
75
100
AcDbEntity
  8
0
 62
1
420
16711680
370
5
 48
1.0
  6
BYLAYER
100
AcDbCircle
 10
0.0
 20
-80.0
 30
0.0
 40
2.0
  0
LINE
  5
76
100
AcDbEntity
  8
0
 62
1
420
16711680
370
5
 48
1.0
  6
BYLAYER
100
AcDbLine
 10
33.5000706955991703
 20
-55.02378150111997
 30
0.0
 11
48.5000706955991703
 21
-55.02378150111997
 31
0.0
  0
LINE
  5
77
100
AcDbEntity
  8
0
 62
1
420
16711680
370
5
 48
1.0
  6
BYLAYER
100
AcDbLine
 10
48.5000706955991703
 20
-55.02378150111997
 30
0.0
 11
48.5000706955991703
 21
54.97621849888003
 31
0.0
  0
LINE
  5
78
100
AcDbEntity
  8
0
 62
1
420
16711680
370
5
 48
1.0
  6
BYLAYER
100
AcDbLine
 10
48.5000706955991703
 20
54.97621849888003
 30
0.0
 11
33.5000706955991703
 21
54.97621849888003
 31
0.0
  0
LINE
  5
79
100
AcDbEntity
  8
0
 62
1
420
16711680
370
5
 48
1.0
  6
BYLAYER
100
AcDbLine
 10
33.5000706955991703
 20
54.97621849888003
 30
0.0
 11
33.5000706955991703
 21
-55.02378150111997
 31
0.0
  0
POINT
  5
7A
100
AcDbEntity
  8
0
 62
1
420
16711680
370
5
 48
1.0
  6
BYLAYER
100
AcDbPoint
 10
-134.9594781526101031
 20
100.0
 30
0.0
  0
POINT
  5
7B
100
AcDbEntity
  8
0
 62
1
420
16711680
370
5
 48
1.0
  6
BYLAYER
100
AcDbPoint
 10
-134.9594781526101031
 20
100.0
 30
0.0
  0
POINT
  5
7C
100
AcDbEntity
  8
0
 62
1
420
16711680
370
5
 48
1.0
  6
BYLAYER
100
AcDbPoint
 10
-134.9594781526101031
 20
100.0
 30
0.0
  0
POINT
  5
7D
100
AcDbEntity
  8
0
 62
1
420
16711680
370
5
 48
1.0
  6
BYLAYER
100
AcDbPoint
 10
-134.9797389099628901
 20
95.000041049997364
 30
0.0
  0
POINT
  5
7E
100
AcDbEntity
  8
0
 62
1
420
16711680
370
5
 48
1.0
  6
BYLAYER
100
AcDbPoint
 10
165.0
 20
95.0
 30
0.0
  0
POINT
  5
7F
100
AcDbEntity
  8
0
 62
1
420
16711680
370
5
 48
1.0
  6
BYLAYER
100
AcDbPoint
 10
-134.9694255871389998
 20
-205.0
 30
0.0
  0
POINT
  5
80
100
AcDbEntity
  8
0
 62
1
420
16711680
370
5
 48
1.0
  6
BYLAYER
100
AcDbPoint
 10
164.9388511742779997
 20
-90.0001869606920764
 30
0.0
  0
POINT
  5
81
100
AcDbEntity
  8
0
 62
1
420
16711680
370
5
 48
1.0
  6
BYLAYER
100
AcDbPoint
 10
-135.0305744128608865
 20
-390.00018696069219
 30
0.0
  0
POINT
  5
82
100
AcDbEntity
  8
0
 62
1
420
16711680
370
5
 48
1.0
  6
BYLAYER
100
AcDbPoint
 10
435.0
 20
-255.0000000000001137
 30
0.0
  0
POINT
  5
83
100
AcDbEntity
  8
0
 62
1
420
16711680
370
5
 48
1.0
  6
BYLAYER
100
AcDbPoint
 10
435.0
 20
-452.5
 30
0.0
  0
POINT
  5
84
100
AcDbEntity
  8
0
 62
1
420
16711680
370
5
 48
1.0
  6
BYLAYER
100
AcDbPoint
 10
165.0
 20
-90.0
 30
0.0
  0
POINT
  5
85
100
AcDbEntity
  8
0
 62
1
420
16711680
370
5
 48
1.0
  6
BYLAYER
100
AcDbPoint
 10
-134.9694255871389998
 20
-390.0
 30
0.0
  0
LINE
  5
86
100
AcDbEntity
  8
0
 62
1
420
16711680
370
5
 48
1.0
  6
BYLAYER
100
AcDbLine
 10
135.0
 20
-90.0
 30
0.0
 11
135.0
 21
90.0
 31
0.0
  0
CIRCLE
  5
87
100
AcDbEntity
  8
0
 62
1
420
16711680
370
5
 48
1.0
  6
BYLAYER
100
AcDbCircle
 10
20.0
 20
0.0
 30
0.0
 40
2.0
  0
CIRCLE
  5
88
100
AcDbEntity
  8
0
 62
1
420
16711680
370
5
 48
1.0
  6
BYLAYER
100
AcDbCircle
 10
90.0
 20
0.0
 30
0.0
 40
37.0
  0
CIRCLE
  5
89
100
AcDbEntity
  8
0
 62
1
420
16711680
370
5
 48
1.0
  6
BYLAYER
100
AcDbCircle
 10
90.0
 20
-300.0
 30
0.0
 40
37.0
  0
POINT
  5
8A
100
AcDbEntity
  8
0
 62
1
420
16711680
370
5
 48
1.0
  6
BYLAYER
100
AcDbPoint
 10
33.5000706955991703
 20
54.97621849888003
 30
0.0
  0
POINT
  5
8B
100
AcDbEntity
  8
0
 62
1
420
16711680
370
5
 48
1.0
  6
BYLAYER
100
AcDbPoint
 10
33.5000706955991703
 20
-245.0237815011199984
 30
0.0
  0
LINE
  5
8C
100
AcDbEntity
  8
0
 62
7
420
16777215
370
5
 48
1.0
  6
BYLAYER
100
AcDbLine
 10
-124.5
 20
-71.0
 30
0.0
 11
-35.0
 21
-71.0
 31
0.0
  0
LINE
  5
8D
100
AcDbEntity
  8
0
 62
7
420
16777215
370
5
 48
1.0
  6
BYLAYER
100
AcDbLine
 10
-35.0
 20
-71.0
 30
0.0
 11
-35.0
 21
70.0
 31
0.0
  0
LINE
  5
8E
100
AcDbEntity
  8
0
 62
7
420
16777215
370
5
 48
1.0
  6
BYLAYER
100
AcDbLine
 10
-35.0
 20
70.0
 30
0.0
 11
-124.5
 21
70.0
 31
0.0
  0
LINE
  5
8F
100
AcDbEntity
  8
0
 62
7
420
16777215
370
5
 48
1.0
  6
BYLAYER
100
AcDbLine
 10
-124.5
 20
70.0
 30
0.0
 11
-124.5
 21
-71.0
 31
0.0
  0
CIRCLE
  5
90
100
AcDbEntity
  8
0
 62
1
420
16711680
370
5
 48
1.0
  6
BYLAYER
100
AcDbCircle
 10
-124.5
 20
70.0
 30
0.0
 40
1.3499999999999941
  0
CIRCLE
  5
91
100
AcDbEntity
  8
0
 62
1
420
16711680
370
5
 48
1.0
  6
BYLAYER
100
AcDbCircle
 10
-35.0
 20
70.0
 30
0.0
 40
1.3500000000000001
  0
CIRCLE
  5
92
100
AcDbEntity
  8
0
 62
1
420
16711680
370
5
 48
1.0
  6
BYLAYER
100
AcDbCircle
 10
-124.5
 20
-71.0
 30
0.0
 40
1.3499999999999941
  0
CIRCLE
  5
93
100
AcDbEntity
  8
0
 62
1
420
16711680
370
5
 48
1.0
  6
BYLAYER
100
AcDbCircle
 10
-35.0
 20
-71.0
 30
0.0
 40
1.3500000000000001
  0
HATCH
  5
94
100
AcDbEntity
  8
0
 62
5
420
255
370
-1
 48
1.0
  6
BYLAYER
100
AcDbHatch
 10
0.0
 20
0.0
 30
0.0
210
0.0
220
0.0
230
1.0
  2
SOLID
 70
1
 71
0
 91
1
 92
1
 93
1
 72
2
 10
180.0
 20
80.0
 40
3.75
 50
0.0
 51
360.0
 73
1
 97
0
 75
0
 76
1
 98
0
1001
ACAD
1010
0.0
1020
0.0
1030
0
  0
HATCH
  5
95
100
AcDbEntity
  8
0
 62
5
420
255
370
-1
 48
1.0
  6
BYLAYER
100
AcDbHatch
 10
0.0
 20
0.0
 30
0.0
210
0.0
220
0.0
230
1.0
  2
SOLID
 70
1
 71
0
 91
1
 92
1
 93
1
 72
2
 10
300.0
 20
80.0
 40
3.75
 50
0.0
 51
360.0
 73
1
 97
0
 75
0
 76
1
 98
0
1001
ACAD
1010
0.0
1020
0.0
1030
0
  0
HATCH
  5
96
100
AcDbEntity
  8
0
 62
5
420
255
370
-1
 48
1.0
  6
BYLAYER
100
AcDbHatch
 10
0.0
 20
0.0
 30
0.0
210
0.0
220
0.0
230
1.0
  2
SOLID
 70
1
 71
0
 91
1
 92
1
 93
1
 72
2
 10
420.0
 20
60.0
 40
3.75
 50
0.0
 51
360.0
 73
1
 97
0
 75
0
 76
1
 98
0
1001
ACAD
1010
0.0
1020
0.0
1030
0
  0
HATCH
  5
97
100
AcDbEntity
  8
0
 62
5
420
255
370
-1
 48
1.0
  6
BYLAYER
100
AcDbHatch
 10
0.0
 20
0.0
 30
0.0
210
0.0
220
0.0
230
1.0
  2
SOLID
 70
1
 71
0
 91
1
 92
1
 93
1
 72
2
 10
369.9999763015679264
 20
-59.9998042689902888
 40
3.75
 50
0.0
 51
360.0
 73
1
 97
0
 75
0
 76
1
 98
0
1001
ACAD
1010
0.0
1020
0.0
1030
0
  0
HATCH
  5
98
100
AcDbEntity
  8
0
 62
5
420
255
370
-1
 48
1.0
  6
BYLAYER
100
AcDbHatch
 10
0.0
 20
0.0
 30
0.0
210
0.0
220
0.0
230
1.0
  2
SOLID
 70
1
 71
0
 91
1
 92
1
 93
1
 72
2
 10
179.9481375814407045
 20
-79.9758287542257733
 40
3.75
 50
0.0
 51
360.0
 73
1
 97
0
 75
0
 76
1
 98
0
1001
ACAD
1010
0.0
1020
0.0
1030
0
  0
HATCH
  5
99
100
AcDbEntity
  8
0
 62
5
420
255
370
-1
 48
1.0
  6
BYLAYER
100
AcDbHatch
 10
0.0
 20
0.0
 30
0.0
210
0.0
220
0.0
230
1.0
  2
SOLID
 70
1
 71
0
 91
1
 92
1
 93
1
 72
2
 10
300.0
 20
-80.0
 40
3.75
 50
0.0
 51
360.0
 73
1
 97
0
 75
0
 76
1
 98
0
1001
ACAD
1010
0.0
1020
0.0
1030
0
  0
HATCH
  5
9A
100
AcDbEntity
  8
0
 62
5
420
255
370
-1
 48
1.0
  6
BYLAYER
100
AcDbHatch
 10
0.0
 20
0.0
 30
0.0
210
0.0
220
0.0
230
1.0
  2
SOLID
 70
1
 71
0
 91
1
 92
1
 93
1
 72
2
 10
420.0
 20
-59.9999999999999716
 40
3.75
 50
0.0
 51
360.0
 73
1
 97
0
 75
0
 76
1
 98
0
1001
ACAD
1010
0.0
1020
0.0
1030
0
  0
HATCH
  5
9B
100
AcDbEntity
  8
0
 62
5
420
255
370
-1
 48
1.0
  6
BYLAYER
100
AcDbHatch
 10
0.0
 20
0.0
 30
0.0
210
0.0
220
0.0
230
1.0
  2
SOLID
 70
1
 71
0
 91
1
 92
1
 93
1
 72
2
 10
20.0
 20
-300.0
 40
3.75
 50
0.0
 51
360.0
 73
1
 97
0
 75
0
 76
1
 98
0
1001
ACAD
1010
0.0
1020
0.0
1030
0
  0
CIRCLE
  5
9C
100
AcDbEntity
  8
0
 62
1
420
16711680
370
5
 48
1.0
  6
BYLAYER
100
AcDbCircle
 10
180.0
 20
80.0
 30
0.0
 40
2.8500000000000001
  0
CIRCLE
  5
9D
100
AcDbEntity
  8
0
 62
1
420
16711680
370
5
 48
1.0
  6
BYLAYER
100
AcDbCircle
 10
300.0
 20
80.0
 30
0.0
 40
2.8500000000000001
  0
CIRCLE
  5
9E
100
AcDbEntity
  8
0
 62
1
420
16711680
370
5
 48
1.0
  6
BYLAYER
100
AcDbCircle
 10
420.0
 20
60.0
 30
0.0
 40
2.8500000000000001
  0
CIRCLE
  5
9F
100
AcDbEntity
  8
0
 62
1
420
16711680
370
5
 48
1.0
  6
BYLAYER
100
AcDbCircle
 10
179.9481375814407045
 20
-79.9758287542257733
 30
0.0
 40
2.8500000000000001
  0
CIRCLE
  5
A0
100
AcDbEntity
  8
0
 62
1
420
16711680
370
5
 48
1.0
  6
BYLAYER
100
AcDbCircle
 10
300.0
 20
-80.0
 30
0.0
 40
2.8500000000000001
  0
CIRCLE
  5
A1
100
AcDbEntity
  8
0
 62
1
420
16711680
370
5
 48
1.0
  6
BYLAYER
100
AcDbCircle
 10
420.0
 20
-59.9999999999999716
 30
0.0
 40
2.8500000000000001
  0
CIRCLE
  5
A2
100
AcDbEntity
  8
0
 62
1
420
16711680
370
5
 48
1.0
  6
BYLAYER
100
AcDbCircle
 10
20.0
 20
-300.0
 30
0.0
 40
2.8500000000000001
  0
CIRCLE
  5
A3
100
AcDbEntity
  8
0
 62
1
420
16711680
370
5
 48
1.0
  6
BYLAYER
100
AcDbCircle
 10
-120.0
 20
80.0
 30
0.0
 40
2.0
  0
CIRCLE
  5
A4
100
AcDbEntity
  8
0
 62
1
420
16711680
370
-1
 48
1.0
  6
BYLAYER
100
AcDbCircle
 10
-120.0
 20
-80.0
 30
0.0
 40
2.0
  0
CIRCLE
  5
A5
100
AcDbEntity
  8
0
 62
1
420
16711680
370
5
 48
1.0
  6
BYLAYER
100
AcDbCircle
 10
-100.0
 20
-300.0
 30
0.0
 40
6.0
  0
CIRCLE
  5
A6
100
AcDbEntity
  8
0
 62
1
420
16711680
370
5
 48
1.0
  6
BYLAYER
100
AcDbCircle
 10
-80.0
 20
-300.0
 30
0.0
 40
6.0
  0
CIRCLE
  5
A7
100
AcDbEntity
  8
0
 62
1
420
16711680
370
5
 48
1.0
  6
BYLAYER
100
AcDbCircle
 10
-100.0
 20
-270.0
 30
0.0
 40
6.0
  0
CIRCLE
  5
A8
100
AcDbEntity
  8
0
 62
1
420
16711680
370
5
 48
1.0
  6
BYLAYER
100
AcDbCircle
 10
-80.0
 20
-270.0
 30
0.0
 40
6.0
  0
CIRCLE
  5
A9
100
AcDbEntity
  8
0
 62
1
420
16711680
370
5
 48
1.0
  6
BYLAYER
100
AcDbCircle
 10
-60.0
 20
-270.0
 30
0.0
 40
6.0
  0
CIRCLE
  5
AA
100
AcDbEntity
  8
0
 62
1
420
16711680
370
5
 48
1.0
  6
BYLAYER
100
AcDbCircle
 10
-100.0
 20
-330.0
 30
0.0
 40
6.0
  0
CIRCLE
  5
AB
100
AcDbEntity
  8
0
 62
1
420
16711680
370
5
 48
1.0
  6
BYLAYER
100
AcDbCircle
 10
-80.0
 20
-330.0
 30
0.0
 40
6.0
  0
CIRCLE
  5
AC
100
AcDbEntity
  8
0
 62
1
420
16711680
370
5
 48
1.0
  6
BYLAYER
100
AcDbCircle
 10
-60.0
 20
-330.0
 30
0.0
 40
6.0
  0
POINT
  5
AD
100
AcDbEntity
  8
0
 62
1
420
16711680
370
5
 48
1.0
  6
BYLAYER
100
AcDbPoint
 10
-50.0
 20
-240.0
 30
0.0
  0
POINT
  5
AE
100
AcDbEntity
  8
0
 62
1
420
16711680
370
5
 48
1.0
  6
BYLAYER
100
AcDbPoint
 10
-50.0
 20
-240.0
 30
0.0
  0
HATCH
  5
AF
100
AcDbEntity
  8
0
 62
5
420
255
370
-1
 48
1.0
  6
BYLAYER
100
AcDbHatch
 10
0.0
 20
0.0
 30
0.0
210
0.0
220
0.0
230
1.0
  2
SOLID
 70
1
 71
0
 91
1
 92
1
 93
4
 72
1
 10
-63.6499999999999986
 20
-253.9000000000000057
 11
-36.3500000000000014
 21
-253.9000000000000057
 72
1
 10
-36.3500000000000014
 20
-253.9000000000000057
 11
-36.3500000000000014
 21
-226.0999999999999943
 72
1
 10
-36.3500000000000014
 20
-226.0999999999999943
 11
-63.6499999999999986
 21
-226.0999999999999943
 72
1
 10
-63.6499999999999986
 20
-226.0999999999999943
 11
-63.6499999999999986
 21
-253.9000000000000057
 97
0
 75
0
 76
1
 98
0
1001
ACAD
1010
0.0
1020
0.0
1030
0
  0
LINE
  5
B0
100
AcDbEntity
  8
0
 62
1
420
16711680
370
5
 48
1.0
  6
BYLAYER
100
AcDbLine
 10
-63.3500000000000014
 20
-249.6339999999999861
 30
0.0
 11
-36.6499999999999986
 21
-249.6339999999999861
 31
0.0
  0
LINE
  5
B1
100
AcDbEntity
  8
0
 62
1
420
16711680
370
5
 48
1.0
  6
BYLAYER
100
AcDbLine
 10
-36.6499999999999986
 20
-249.6339999999999861
 30
0.0
 11
-36.6499999999999986
 21
-230.3660000000000139
 31
0.0
  0
LINE
  5
B2
100
AcDbEntity
  8
0
 62
1
420
16711680
370
5
 48
1.0
  6
BYLAYER
100
AcDbLine
 10
-36.6499999999999986
 20
-230.3660000000000139
 30
0.0
 11
-63.3500000000000014
 21
-230.3660000000000139
 31
0.0
  0
LINE
  5
B3
100
AcDbEntity
  8
0
 62
1
420
16711680
370
5
 48
1.0
  6
BYLAYER
100
AcDbLine
 10
-63.3500000000000014
 20
-230.3660000000000139
 30
0.0
 11
-63.3500000000000014
 21
-249.6339999999999861
 31
0.0
  0
LINE
  5
B4
100
AcDbEntity
  8
0
 62
1
420
16711680
370
5
 48
1.0
  6
BYLAYER
100
AcDbLine
 10
165.0
 20
-255.0000000000001137
 30
0.0
 11
165.0
 21
-205.0
 31
0.0
  0
LINE
  5
B5
100
AcDbEntity
  8
0
 62
1
420
16711680
370
5
 48
1.0
  6
BYLAYER
100
AcDbLine
 10
165.0
 20
-452.5
 30
0.0
 11
165.0
 21
-402.5
 31
0.0
  0
LINE
  5
B6
100
AcDbEntity
  8
0
 62
1
420
16711680
370
5
 48
1.0
  6
BYLAYER
100
AcDbLine
 10
435.0
 20
-205.0
 30
0.0
 11
435.0
 21
-255.0000000000001137
 31
0.0
  0
LINE
  5
B7
100
AcDbEntity
  8
0
 62
1
420
16711680
370
5
 48
1.0
  6
BYLAYER
100
AcDbLine
 10
435.0
 20
-402.5
 30
0.0
 11
435.0
 21
-452.5
 31
0.0
  0
LINE
  5
B8
100
AcDbEntity
  8
0
 62
1
420
16711680
370
5
 48
1.0
  6
BYLAYER
100
AcDbLine
 10
410.0
 20
-205.0
 30
0.0
 11
435.0
 21
-205.0
 31
0.0
  0
LINE
  5
B9
100
AcDbEntity
  8
0
 62
1
420
16711680
370
5
 48
1.0
  6
BYLAYER
100
AcDbLine
 10
410.0
 20
-402.5
 30
0.0
 11
435.0
 21
-402.5
 31
0.0
  0
LINE
  5
BA
100
AcDbEntity
  8
0
 62
1
420
16711680
370
5
 48
1.0
  6
BYLAYER
100
AcDbLine
 10
190.0
 20
-205.0
 30
0.0
 11
165.0
 21
-205.0
 31
0.0
  0
LINE
  5
BB
100
AcDbEntity
  8
0
 62
1
420
16711680
370
5
 48
1.0
  6
BYLAYER
100
AcDbLine
 10
190.0
 20
-402.5
 30
0.0
 11
165.0
 21
-402.5
 31
0.0
  0
CIRCLE
  5
BC
100
AcDbEntity
  8
0
 62
1
420
16711680
370
5
 48
1.0
  6
BYLAYER
100
AcDbCircle
 10
380.0
 20
-244.0
 30
0.0
 40
7.8499999999999934
  0
ARC
  5
BD
100
AcDbEntity
  8
0
 62
1
420
16711680
370
5
 48
1.0
  6
BYLAYER
100
AcDbCircle
 10
300.0
 20
-243.4999999999999716
 30
0.0
 40
6.0
100
AcDbArc
 50
113.5564643091011447
 51
246.4435356908988695
  0
ARC
  5
BE
100
AcDbEntity
  8
0
 62
1
420
16711680
370
5
 48
1.0
  6
BYLAYER
100
AcDbCircle
 10
300.0
 20
-243.4999999999999716
 30
0.0
 40
6.0
100
AcDbArc
 50
293.5564643091011021
 51
66.4435356908988553
  0
ARC
  5
BF
100
AcDbEntity
  8
0
 62
1
420
16711680
370
5
 48
1.0
  6
BYLAYER
100
AcDbCircle
 10
279.9394174008655796
 20
-243.845802507861606
 30
0.0
 40
6.0
100
AcDbArc
 50
113.5564643091011447
 51
246.4435356908988695
  0
ARC
  5
C0
100
AcDbEntity
  8
0
 62
1
420
16711680
370
5
 48
1.0
  6
BYLAYER
100
AcDbCircle
 10
279.9394174008655796
 20
-243.845802507861606
 30
0.0
 40
6.0
100
AcDbArc
 50
293.5564643091011021
 51
66.4435356908988553
  0
ARC
  5
C1
100
AcDbEntity
  8
0
 62
1
420
16711680
370
5
 48
1.0
  6
BYLAYER
100
AcDbCircle
 10
320.0
 20
-244.0
 30
0.0
 40
6.0
100
AcDbArc
 50
113.5564643091011447
 51
246.4435356908988695
  0
ARC
  5
C2
100
AcDbEntity
  8
0
 62
1
420
16711680
370
5
 48
1.0
  6
BYLAYER
100
AcDbCircle
 10
320.0
 20
-244.0
 30
0.0
 40
6.0
100
AcDbArc
 50
293.5564643091011021
 51
66.4435356908988553
  0
ARC
  5
C3
100
AcDbEntity
  8
0
 62
1
420
16711680
370
5
 48
1.0
  6
BYLAYER
100
AcDbCircle
 10
320.0
 20
-225.0
 30
0.0
 40
6.0
100
AcDbArc
 50
113.5564643091011447
 51
246.4435356908988695
  0
ARC
  5
C4
100
AcDbEntity
  8
0
 62
1
420
16711680
370
5
 48
1.0
  6
BYLAYER
100
AcDbCircle
 10
320.0
 20
-225.0
 30
0.0
 40
6.0
100
AcDbArc
 50
293.5564643091011021
 51
66.4435356908988553
  0
ARC
  5
C5
100
AcDbEntity
  8
0
 62
1
420
16711680
370
5
 48
1.0
  6
BYLAYER
100
AcDbCircle
 10
300.0
 20
-225.0
 30
0.0
 40
6.0
100
AcDbArc
 50
113.5564643091011447
 51
246.4435356908988695
  0
ARC
  5
C6
100
AcDbEntity
  8
0
 62
1
420
16711680
370
5
 48
1.0
  6
BYLAYER
100
AcDbCircle
 10
300.0
 20
-225.0
 30
0.0
 40
6.0
100
AcDbArc
 50
293.5564643091011021
 51
66.4435356908988553
  0
ARC
  5
C7
100
AcDbEntity
  8
0
 62
1
420
16711680
370
5
 48
1.0
  6
BYLAYER
100
AcDbCircle
 10
280.0
 20
-225.0
 30
0.0
 40
6.0
100
AcDbArc
 50
113.5564643091011447
 51
246.4435356908988695
  0
ARC
  5
C8
100
AcDbEntity
  8
0
 62
1
420
16711680
370
5
 48
1.0
  6
BYLAYER
100
AcDbCircle
 10
280.0
 20
-225.0
 30
0.0
 40
6.0
100
AcDbArc
 50
293.5564643091011021
 51
66.4435356908988553
  0
ARC
  5
C9
100
AcDbEntity
  8
0
 62
1
420
16711680
370
5
 48
1.0
  6
BYLAYER
100
AcDbCircle
 10
350.0
 20
-244.0
 30
0.0
 40
6.0
100
AcDbArc
 50
113.5564643091011447
 51
246.4435356908988695
  0
ARC
  5
CA
100
AcDbEntity
  8
0
 62
1
420
16711680
370
5
 48
1.0
  6
BYLAYER
100
AcDbCircle
 10
350.0
 20
-244.0
 30
0.0
 40
6.0
100
AcDbArc
 50
293.5564643091011021
 51
66.4435356908988553
  0
ARC
  5
CB
100
AcDbEntity
  8
0
 62
1
420
16711680
370
5
 48
1.0
  6
BYLAYER
100
AcDbCircle
 10
350.0
 20
-225.0
 30
0.0
 40
6.0
100
AcDbArc
 50
113.5564643091011447
 51
246.4435356908988695
  0
ARC
  5
CC
100
AcDbEntity
  8
0
 62
1
420
16711680
370
5
 48
1.0
  6
BYLAYER
100
AcDbCircle
 10
350.0
 20
-225.0
 30
0.0
 40
6.0
100
AcDbArc
 50
293.5564643091011021
 51
66.4435356908988553
  0
LINE
  5
CD
100
AcDbEntity
  8
0
 62
1
420
16711680
370
5
 48
1.0
  6
BYLAYER
100
AcDbLine
 10
165.0
 20
-255.0000000000001137
 30
0.0
 11
165.0
 21
-280.0000000000001137
 31
0.0
  0
LINE
  5
CE
100
AcDbEntity
  8
0
 62
1
420
16711680
370
5
 48
1.0
  6
BYLAYER
100
AcDbLine
 10
165.0
 20
-452.5
 30
0.0
 11
165.0
 21
-477.5000000000001137
 31
0.0
  0
LINE
  5
CF
100
AcDbEntity
  8
0
 62
1
420
16711680
370
5
 48
1.0
  6
BYLAYER
100
AcDbLine
 10
435.0
 20
-255.0000000000001137
 30
0.0
 11
435.0
 21
-280.0000000000001137
 31
0.0
  0
LINE
  5
D0
100
AcDbEntity
  8
0
 62
1
420
16711680
370
5
 48
1.0
  6
BYLAYER
100
AcDbLine
 10
435.0
 20
-452.5
 30
0.0
 11
435.0
 21
-477.5000000000001137
 31
0.0
  0
POINT
  5
D1
100
AcDbEntity
  8
0
 62
1
420
16711680
370
5
 48
1.0
  6
BYLAYER
100
AcDbPoint
 10
410.0
 20
-280.0000000000001137
 30
0.0
  0
POINT
  5
D2
100
AcDbEntity
  8
0
 62
1
420
16711680
370
5
 48
1.0
  6
BYLAYER
100
AcDbPoint
 10
410.0
 20
-477.5000000000001137
 30
0.0
  0
LINE
  5
D3
100
AcDbEntity
  8
0
 62
1
420
16711680
370
5
 48
1.0
  6
BYLAYER
100
AcDbLine
 10
410.0
 20
-284.9999999999996021
 30
0.0
 11
397.0
 21
-284.9999999999996021
 31
0.0
  0
LINE
  5
D4
100
AcDbEntity
  8
0
 62
1
420
16711680
370
5
 48
1.0
  6
BYLAYER
100
AcDbLine
 10
410.0
 20
-482.4999999999993747
 30
0.0
 11
397.0
 21
-482.4999999999993747
 31
0.0
  0
LINE
  5
D5
100
AcDbEntity
  8
0
 62
1
420
16711680
370
5
 48
1.0
  6
BYLAYER
100
AcDbLine
 10
387.0
 20
-285.0
 30
0.0
 11
374.0
 21
-285.0000000000001137
 31
0.0
  0
LINE
  5
D6
100
AcDbEntity
  8
0
 62
1
420
16711680
370
5
 48
1.0
  6
BYLAYER
100
AcDbLine
 10
387.0
 20
-482.5
 30
0.0
 11
374.0
 21
-482.5000000000001137
 31
0.0
  0
LINE
  5
D7
100
AcDbEntity
  8
0
 62
1
420
16711680
370
5
 48
1.0
  6
BYLAYER
100
AcDbLine
 10
364.0
 20
-284.9999999999996021
 30
0.0
 11
351.0
 21
-284.9999999999996021
 31
0.0
  0
LINE
  5
D8
100
AcDbEntity
  8
0
 62
1
420
16711680
370
5
 48
1.0
  6
BYLAYER
100
AcDbLine
 10
364.0
 20
-482.4999999999997158
 30
0.0
 11
351.0
 21
-482.4999999999997158
 31
0.0
  0
LINE
  5
D9
100
AcDbEntity
  8
0
 62
1
420
16711680
370
5
 48
1.0
  6
BYLAYER
100
AcDbLine
 10
341.0
 20
-284.9999999999997726
 30
0.0
 11
328.0
 21
-284.9999999999997158
 31
0.0
  0
LINE
  5
DA
100
AcDbEntity
  8
0
 62
1
420
16711680
370
5
 48
1.0
  6
BYLAYER
100
AcDbLine
 10
341.0
 20
-482.4999999999998863
 30
0.0
 11
328.0
 21
-482.4999999999997158
 31
0.0
  0
LINE
  5
DB
100
AcDbEntity
  8
0
 62
1
420
16711680
370
5
 48
1.0
  6
BYLAYER
100
AcDbLine
 10
318.0
 20
-284.9999999999997726
 30
0.0
 11
305.0
 21
-284.9999999999997726
 31
0.0
  0
LINE
  5
DC
100
AcDbEntity
  8
0
 62
1
420
16711680
370
5
 48
1.0
  6
BYLAYER
100
AcDbLine
 10
318.0
 20
-482.4999999999998863
 30
0.0
 11
305.0
 21
-482.4999999999998863
 31
0.0
  0
LINE
  5
DD
100
AcDbEntity
  8
0
 62
1
420
16711680
370
5
 48
1.0
  6
BYLAYER
100
AcDbLine
 10
295.0
 20
-284.9999999999997726
 30
0.0
 11
282.0
 21
-284.9999999999997726
 31
0.0
  0
LINE
  5
DE
100
AcDbEntity
  8
0
 62
1
420
16711680
370
5
 48
1.0
  6
BYLAYER
100
AcDbLine
 10
295.0
 20
-482.4999999999998863
 30
0.0
 11
282.0
 21
-482.4999999999998863
 31
0.0
  0
LINE
  5
DF
100
AcDbEntity
  8
0
 62
1
420
16711680
370
5
 48
1.0
  6
BYLAYER
100
AcDbLine
 10
272.0
 20
-284.9999999999997726
 30
0.0
 11
259.0
 21
-284.9999999999997726
 31
0.0
  0
LINE
  5
E0
100
AcDbEntity
  8
0
 62
1
420
16711680
370
5
 48
1.0
  6
BYLAYER
100
AcDbLine
 10
272.0
 20
-482.4999999999998863
 30
0.0
 11
259.0
 21
-482.4999999999998863
 31
0.0
  0
LINE
  5
E1
100
AcDbEntity
  8
0
 62
1
420
16711680
370
5
 48
1.0
  6
BYLAYER
100
AcDbLine
 10
249.0
 20
-284.9999999999997158
 30
0.0
 11
236.0
 21
-284.9999999999997158
 31
0.0
  0
LINE
  5
E2
100
AcDbEntity
  8
0
 62
1
420
16711680
370
5
 48
1.0
  6
BYLAYER
100
AcDbLine
 10
249.0
 20
-482.4999999999997158
 30
0.0
 11
236.0
 21
-482.4999999999997158
 31
0.0
  0
LINE
  5
E3
100
AcDbEntity
  8
0
 62
1
420
16711680
370
5
 48
1.0
  6
BYLAYER
100
AcDbLine
 10
226.0
 20
-285.0000000000001137
 30
0.0
 11
213.0
 21
-285.0
 31
0.0
  0
LINE
  5
E4
100
AcDbEntity
  8
0
 62
1
420
16711680
370
5
 48
1.0
  6
BYLAYER
100
AcDbLine
 10
226.0
 20
-482.5000000000001137
 30
0.0
 11
213.0
 21
-482.5
 31
0.0
  0
LINE
  5
E5
100
AcDbEntity
  8
0
 62
1
420
16711680
370
5
 48
1.0
  6
BYLAYER
100
AcDbLine
 10
203.0
 20
-284.9999999999996021
 30
0.0
 11
190.0
 21
-284.9999999999996021
 31
0.0
  0
LINE
  5
E6
100
AcDbEntity
  8
0
 62
1
420
16711680
370
5
 48
1.0
  6
BYLAYER
100
AcDbLine
 10
203.0
 20
-482.4999999999997158
 30
0.0
 11
190.0
 21
-482.4999999999993747
 31
0.0
  0
LINE
  5
E7
100
AcDbEntity
  8
0
 62
1
420
16711680
370
5
 48
1.0
  6
BYLAYER
100
AcDbLine
 10
397.0
 20
-284.9999999999996021
 30
0.0
 11
397.0
 21
-280.0000000000001137
 31
0.0
  0
LINE
  5
E8
100
AcDbEntity
  8
0
 62
1
420
16711680
370
5
 48
1.0
  6
BYLAYER
100
AcDbLine
 10
397.0
 20
-482.4999999999993747
 30
0.0
 11
397.0
 21
-477.5000000000001137
 31
0.0
  0
LINE
  5
E9
100
AcDbEntity
  8
0
 62
1
420
16711680
370
5
 48
1.0
  6
BYLAYER
100
AcDbLine
 10
374.0
 20
-285.0000000000001137
 30
0.0
 11
374.0
 21
-279.9999999999994884
 31
0.0
  0
LINE
  5
EA
100
AcDbEntity
  8
0
 62
1
420
16711680
370
5
 48
1.0
  6
BYLAYER
100
AcDbLine
 10
374.0
 20
-482.5000000000001137
 30
0.0
 11
374.0
 21
-477.4999999999994884
 31
0.0
  0
LINE
  5
EB
100
AcDbEntity
  8
0
 62
1
420
16711680
370
5
 48
1.0
  6
BYLAYER
100
AcDbLine
 10
351.0
 20
-284.9999999999996021
 30
0.0
 11
351.0
 21
-280.0000000000001137
 31
0.0
  0
LINE
  5
EC
100
AcDbEntity
  8
0
 62
1
420
16711680
370
5
 48
1.0
  6
BYLAYER
100
AcDbLine
 10
351.0
 20
-482.4999999999997158
 30
0.0
 11
351.0
 21
-477.5000000000001137
 31
0.0
  0
LINE
  5
ED
100
AcDbEntity
  8
0
 62
1
420
16711680
370
5
 48
1.0
  6
BYLAYER
100
AcDbLine
 10
328.0
 20
-284.9999999999997158
 30
0.0
 11
328.0
 21
-279.9999999999997726
 31
0.0
  0
LINE
  5
EE
100
AcDbEntity
  8
0
 62
1
420
16711680
370
5
 48
1.0
  6
BYLAYER
100
AcDbLine
 10
328.0
 20
-482.4999999999997158
 30
0.0
 11
328.0
 21
-477.4999999999997726
 31
0.0
  0
LINE
  5
EF
100
AcDbEntity
  8
0
 62
1
420
16711680
370
5
 48
1.0
  6
BYLAYER
100
AcDbLine
 10
305.0
 20
-284.9999999999997726
 30
0.0
 11
305.0
 21
-279.9999999999997726
 31
0.0
  0
LINE
  5
F0
100
AcDbEntity
  8
0
 62
1
420
16711680
370
5
 48
1.0
  6
BYLAYER
100
AcDbLine
 10
305.0
 20
-482.4999999999998863
 30
0.0
 11
305.0
 21
-477.4999999999997726
 31
0.0
  0
LINE
  5
F1
100
AcDbEntity
  8
0
 62
1
420
16711680
370
5
 48
1.0
  6
BYLAYER
100
AcDbLine
 10
282.0
 20
-284.9999999999997726
 30
0.0
 11
282.0
 21
-279.9999999999997726
 31
0.0
  0
LINE
  5
F2
100
AcDbEntity
  8
0
 62
1
420
16711680
370
5
 48
1.0
  6
BYLAYER
100
AcDbLine
 10
282.0
 20
-482.4999999999998863
 30
0.0
 11
282.0
 21
-477.4999999999997726
 31
0.0
  0
LINE
  5
F3
100
AcDbEntity
  8
0
 62
1
420
16711680
370
5
 48
1.0
  6
BYLAYER
100
AcDbLine
 10
259.0
 20
-284.9999999999997726
 30
0.0
 11
259.0
 21
-279.9999999999997726
 31
0.0
  0
LINE
  5
F4
100
AcDbEntity
  8
0
 62
1
420
16711680
370
5
 48
1.0
  6
BYLAYER
100
AcDbLine
 10
259.0
 20
-482.4999999999998863
 30
0.0
 11
259.0
 21
-477.4999999999997726
 31
0.0
  0
LINE
  5
F5
100
AcDbEntity
  8
0
 62
1
420
16711680
370
5
 48
1.0
  6
BYLAYER
100
AcDbLine
 10
236.0
 20
-284.9999999999997158
 30
0.0
 11
236.0
 21
-280.0000000000001137
 31
0.0
  0
LINE
  5
F6
100
AcDbEntity
  8
0
 62
1
420
16711680
370
5
 48
1.0
  6
BYLAYER
100
AcDbLine
 10
236.0
 20
-482.4999999999997158
 30
0.0
 11
236.0
 21
-477.5000000000001137
 31
0.0
  0
LINE
  5
F7
100
AcDbEntity
  8
0
 62
1
420
16711680
370
5
 48
1.0
  6
BYLAYER
100
AcDbLine
 10
213.0
 20
-285.0
 30
0.0
 11
213.0
 21
-279.9999999999997158
 31
0.0
  0
LINE
  5
F8
100
AcDbEntity
  8
0
 62
1
420
16711680
370
5
 48
1.0
  6
BYLAYER
100
AcDbLine
 10
213.0
 20
-482.5
 30
0.0
 11
213.0
 21
-477.4999999999997158
 31
0.0
  0
LINE
  5
F9
100
AcDbEntity
  8
0
 62
1
420
16711680
370
5
 48
1.0
  6
BYLAYER
100
AcDbLine
 10
190.0
 20
-284.9999999999996021
 30
0.0
 11
190.0
 21
-280.0000000000002842
 31
0.0
  0
LINE
  5
FA
100
AcDbEntity
  8
0
 62
1
420
16711680
370
5
 48
1.0
  6
BYLAYER
100
AcDbLine
 10
190.0
 20
-482.4999999999993747
 30
0.0
 11
190.0
 21
-477.5000000000002274
 31
0.0
  0
LINE
  5
FB
100
AcDbEntity
  8
0
 62
1
420
16711680
370
5
 48
1.0
  6
BYLAYER
100
AcDbLine
 10
410.0
 20
-280.0000000000001137
 30
0.0
 11
410.0
 21
-284.9999999999996021
 31
0.0
  0
LINE
  5
FC
100
AcDbEntity
  8
0
 62
1
420
16711680
370
5
 48
1.0
  6
BYLAYER
100
AcDbLine
 10
410.0
 20
-477.5000000000001137
 30
0.0
 11
410.0
 21
-482.4999999999993747
 31
0.0
  0
LINE
  5
FD
100
AcDbEntity
  8
0
 62
1
420
16711680
370
5
 48
1.0
  6
BYLAYER
100
AcDbLine
 10
387.0
 20
-279.9999999999997158
 30
0.0
 11
387.0
 21
-285.0
 31
0.0
  0
LINE
  5
FE
100
AcDbEntity
  8
0
 62
1
420
16711680
370
5
 48
1.0
  6
BYLAYER
100
AcDbLine
 10
387.0
 20
-477.4999999999997158
 30
0.0
 11
387.0
 21
-482.5
 31
0.0
  0
LINE
  5
FF
100
AcDbEntity
  8
0
 62
1
420
16711680
370
5
 48
1.0
  6
BYLAYER
100
AcDbLine
 10
364.0
 20
-280.0000000000001137
 30
0.0
 11
364.0
 21
-284.9999999999996021
 31
0.0
  0
LINE
  5
100
100
AcDbEntity
  8
0
 62
1
420
16711680
370
5
 48
1.0
  6
BYLAYER
100
AcDbLine
 10
364.0
 20
-477.5000000000001137
 30
0.0
 11
364.0
 21
-482.4999999999997158
 31
0.0
  0
LINE
  5
101
100
AcDbEntity
  8
0
 62
1
420
16711680
370
5
 48
1.0
  6
BYLAYER
100
AcDbLine
 10
341.0
 20
-279.9999999999997726
 30
0.0
 11
341.0
 21
-284.9999999999997726
 31
0.0
  0
LINE
  5
102
100
AcDbEntity
  8
0
 62
1
420
16711680
370
5
 48
1.0
  6
BYLAYER
100
AcDbLine
 10
341.0
 20
-477.4999999999997726
 30
0.0
 11
341.0
 21
-482.4999999999998863
 31
0.0
  0
LINE
  5
103
100
AcDbEntity
  8
0
 62
1
420
16711680
370
5
 48
1.0
  6
BYLAYER
100
AcDbLine
 10
318.0
 20
-279.9999999999997726
 30
0.0
 11
318.0
 21
-284.9999999999997726
 31
0.0
  0
LINE
  5
104
100
AcDbEntity
  8
0
 62
1
420
16711680
370
5
 48
1.0
  6
BYLAYER
100
AcDbLine
 10
318.0
 20
-477.4999999999997726
 30
0.0
 11
318.0
 21
-482.4999999999998863
 31
0.0
  0
LINE
  5
105
100
AcDbEntity
  8
0
 62
1
420
16711680
370
5
 48
1.0
  6
BYLAYER
100
AcDbLine
 10
295.0
 20
-279.9999999999997726
 30
0.0
 11
295.0
 21
-284.9999999999997726
 31
0.0
  0
LINE
  5
106
100
AcDbEntity
  8
0
 62
1
420
16711680
370
5
 48
1.0
  6
BYLAYER
100
AcDbLine
 10
295.0
 20
-477.4999999999997726
 30
0.0
 11
295.0
 21
-482.4999999999998863
 31
0.0
  0
LINE
  5
107
100
AcDbEntity
  8
0
 62
1
420
16711680
370
5
 48
1.0
  6
BYLAYER
100
AcDbLine
 10
272.0
 20
-279.9999999999997726
 30
0.0
 11
272.0
 21
-284.9999999999997726
 31
0.0
  0
LINE
  5
108
100
AcDbEntity
  8
0
 62
1
420
16711680
370
5
 48
1.0
  6
BYLAYER
100
AcDbLine
 10
272.0
 20
-477.4999999999997726
 30
0.0
 11
272.0
 21
-482.4999999999998863
 31
0.0
  0
LINE
  5
109
100
AcDbEntity
  8
0
 62
1
420
16711680
370
5
 48
1.0
  6
BYLAYER
100
AcDbLine
 10
249.0
 20
-280.0000000000001137
 30
0.0
 11
249.0
 21
-284.9999999999997158
 31
0.0
  0
LINE
  5
10A
100
AcDbEntity
  8
0
 62
1
420
16711680
370
5
 48
1.0
  6
BYLAYER
100
AcDbLine
 10
249.0
 20
-477.5000000000001137
 30
0.0
 11
249.0
 21
-482.4999999999997158
 31
0.0
  0
LINE
  5
10B
100
AcDbEntity
  8
0
 62
1
420
16711680
370
5
 48
1.0
  6
BYLAYER
100
AcDbLine
 10
226.0
 20
-279.9999999999993747
 30
0.0
 11
226.0
 21
-285.0000000000001137
 31
0.0
  0
LINE
  5
10C
100
AcDbEntity
  8
0
 62
1
420
16711680
370
5
 48
1.0
  6
BYLAYER
100
AcDbLine
 10
226.0
 20
-477.4999999999993747
 30
0.0
 11
226.0
 21
-482.5000000000001137
 31
0.0
  0
LINE
  5
10D
100
AcDbEntity
  8
0
 62
1
420
16711680
370
5
 48
1.0
  6
BYLAYER
100
AcDbLine
 10
203.0
 20
-280.0000000000001137
 30
0.0
 11
203.0
 21
-284.9999999999996021
 31
0.0
  0
LINE
  5
10E
100
AcDbEntity
  8
0
 62
1
420
16711680
370
5
 48
1.0
  6
BYLAYER
100
AcDbLine
 10
203.0
 20
-477.5000000000001137
 30
0.0
 11
203.0
 21
-482.4999999999997158
 31
0.0
  0
LINE
  5
10F
100
AcDbEntity
  8
0
 62
1
420
16711680
370
5
 48
1.0
  6
BYLAYER
100
AcDbLine
 10
165.0
 20
-280.0000000000001137
 30
0.0
 11
190.0
 21
-280.0000000000001137
 31
0.0
  0
LINE
  5
110
100
AcDbEntity
  8
0
 62
1
420
16711680
370
5
 48
1.0
  6
BYLAYER
100
AcDbLine
 10
165.0
 20
-477.5000000000001137
 30
0.0
 11
190.0
 21
-477.5000000000001137
 31
0.0
  0
LINE
  5
111
100
AcDbEntity
  8
0
 62
1
420
16711680
370
5
 48
1.0
  6
BYLAYER
100
AcDbLine
 10
203.0
 20
-280.0000000000001137
 30
0.0
 11
213.0
 21
-279.9999999999997158
 31
0.0
  0
LINE
  5
112
100
AcDbEntity
  8
0
 62
1
420
16711680
370
5
 48
1.0
  6
BYLAYER
100
AcDbLine
 10
203.0
 20
-477.5000000000001137
 30
0.0
 11
213.0
 21
-477.4999999999997158
 31
0.0
  0
LINE
  5
113
100
AcDbEntity
  8
0
 62
1
420
16711680
370
5
 48
1.0
  6
BYLAYER
100
AcDbLine
 10
236.0
 20
-280.0000000000001137
 30
0.0
 11
226.0
 21
-279.9999999999993747
 31
0.0
  0
LINE
  5
114
100
AcDbEntity
  8
0
 62
1
420
16711680
370
5
 48
1.0
  6
BYLAYER
100
AcDbLine
 10
236.0
 20
-477.5000000000001137
 30
0.0
 11
226.0
 21
-477.4999999999993747
 31
0.0
  0
LINE
  5
115
100
AcDbEntity
  8
0
 62
1
420
16711680
370
5
 48
1.0
  6
BYLAYER
100
AcDbLine
 10
249.0
 20
-280.0000000000001137
 30
0.0
 11
259.0
 21
-279.9999999999997726
 31
0.0
  0
LINE
  5
116
100
AcDbEntity
  8
0
 62
1
420
16711680
370
5
 48
1.0
  6
BYLAYER
100
AcDbLine
 10
249.0
 20
-477.5000000000001137
 30
0.0
 11
259.0
 21
-477.4999999999997726
 31
0.0
  0
LINE
  5
117
100
AcDbEntity
  8
0
 62
1
420
16711680
370
5
 48
1.0
  6
BYLAYER
100
AcDbLine
 10
272.0
 20
-279.9999999999997726
 30
0.0
 11
282.0
 21
-279.9999999999997726
 31
0.0
  0
LINE
  5
118
100
AcDbEntity
  8
0
 62
1
420
16711680
370
5
 48
1.0
  6
BYLAYER
100
AcDbLine
 10
272.0
 20
-477.4999999999997726
 30
0.0
 11
282.0
 21
-477.4999999999997726
 31
0.0
  0
LINE
  5
119
100
AcDbEntity
  8
0
 62
1
420
16711680
370
5
 48
1.0
  6
BYLAYER
100
AcDbLine
 10
295.0
 20
-279.9999999999997726
 30
0.0
 11
305.0
 21
-279.9999999999997726
 31
0.0
  0
LINE
  5
11A
100
AcDbEntity
  8
0
 62
1
420
16711680
370
5
 48
1.0
  6
BYLAYER
100
AcDbLine
 10
295.0
 20
-477.4999999999997726
 30
0.0
 11
305.0
 21
-477.4999999999997726
 31
0.0
  0
LINE
  5
11B
100
AcDbEntity
  8
0
 62
1
420
16711680
370
5
 48
1.0
  6
BYLAYER
100
AcDbLine
 10
318.0
 20
-279.9999999999997726
 30
0.0
 11
328.0
 21
-279.9999999999997726
 31
0.0
  0
LINE
  5
11C
100
AcDbEntity
  8
0
 62
1
420
16711680
370
5
 48
1.0
  6
BYLAYER
100
AcDbLine
 10
318.0
 20
-477.4999999999997726
 30
0.0
 11
328.0
 21
-477.4999999999997726
 31
0.0
  0
LINE
  5
11D
100
AcDbEntity
  8
0
 62
1
420
16711680
370
5
 48
1.0
  6
BYLAYER
100
AcDbLine
 10
341.0
 20
-279.9999999999997726
 30
0.0
 11
351.0
 21
-280.0000000000001137
 31
0.0
  0
LINE
  5
11E
100
AcDbEntity
  8
0
 62
1
420
16711680
370
5
 48
1.0
  6
BYLAYER
100
AcDbLine
 10
341.0
 20
-477.4999999999997726
 30
0.0
 11
351.0
 21
-477.5000000000001137
 31
0.0
  0
LINE
  5
11F
100
AcDbEntity
  8
0
 62
1
420
16711680
370
5
 48
1.0
  6
BYLAYER
100
AcDbLine
 10
364.0
 20
-280.0000000000001137
 30
0.0
 11
374.0
 21
-280.0000000000001137
 31
0.0
  0
LINE
  5
120
100
AcDbEntity
  8
0
 62
1
420
16711680
370
5
 48
1.0
  6
BYLAYER
100
AcDbLine
 10
364.0
 20
-477.5000000000001137
 30
0.0
 11
374.0
 21
-477.5000000000001137
 31
0.0
  0
LINE
  5
121
100
AcDbEntity
  8
0
 62
1
420
16711680
370
5
 48
1.0
  6
BYLAYER
100
AcDbLine
 10
387.0
 20
-279.9999999999997158
 30
0.0
 11
397.0
 21
-280.0000000000001137
 31
0.0
  0
LINE
  5
122
100
AcDbEntity
  8
0
 62
1
420
16711680
370
5
 48
1.0
  6
BYLAYER
100
AcDbLine
 10
387.0
 20
-477.4999999999997158
 30
0.0
 11
397.0
 21
-477.5000000000001137
 31
0.0
  0
LINE
  5
123
100
AcDbEntity
  8
0
 62
1
420
16711680
370
5
 48
1.0
  6
BYLAYER
100
AcDbLine
 10
410.0
 20
-280.0000000000001137
 30
0.0
 11
435.0
 21
-280.0000000000001137
 31
0.0
  0
LINE
  5
124
100
AcDbEntity
  8
0
 62
1
420
16711680
370
5
 48
1.0
  6
BYLAYER
100
AcDbLine
 10
410.0
 20
-477.5000000000001137
 30
0.0
 11
435.0
 21
-477.5000000000001137
 31
0.0
  0
POINT
  5
125
100
AcDbEntity
  8
0
 62
256
370
-1
 48
1.0
  6
BYLAYER
100
AcDbPoint
 10
-129.9802584292478116
 20
90.0
 30
0.0
  0
LINE
  5
126
100
AcDbEntity
  8
0
 62
1
420
16711680
370
5
 48
1.0
  6
BYLAYER
100
AcDbLine
 10
-129.9802584292478116
 20
90.0
 30
0.0
 11
-129.9802584292478116
 21
-90.0
 31
0.0
  0
LINE
  5
127
100
AcDbEntity
  8
0
 62
1
420
16711680
370
5
 48
1.0
  6
BYLAYER
100
AcDbLine
 10
-129.9802584292478116
 20
90.0
 30
0.0
 11
135.0
 21
90.0
 31
0.0
  0
LINE
  5
128
100
AcDbEntity
  8
0
 62
1
420
16711680
370
5
 48
1.0
  6
BYLAYER
100
AcDbLine
 10
-129.9802584292478116
 20
-90.0
 30
0.0
 11
135.0
 21
-90.0
 31
0.0
  0
LINE
  5
129
100
AcDbEntity
  8
0
 62
1
420
16711680
370
5
 48
1.0
  6
BYLAYER
100
AcDbLine
 10
190.0
 20
110.0
 30
0.0
 11
203.0
 21
110.0
 31
0.0
  0
LINE
  5
12A
100
AcDbEntity
  8
0
 62
1
420
16711680
370
5
 48
1.0
  6
BYLAYER
100
AcDbLine
 10
213.0
 20
110.0
 30
0.0
 11
226.0
 21
110.0
 31
0.0
  0
LINE
  5
12B
100
AcDbEntity
  8
0
 62
1
420
16711680
370
5
 48
1.0
  6
BYLAYER
100
AcDbLine
 10
236.0
 20
110.0
 30
0.0
 11
249.0
 21
110.0
 31
0.0
  0
LINE
  5
12C
100
AcDbEntity
  8
0
 62
1
420
16711680
370
5
 48
1.0
  6
BYLAYER
100
AcDbLine
 10
259.0
 20
110.0
 30
0.0
 11
272.0
 21
110.0
 31
0.0
  0
LINE
  5
12D
100
AcDbEntity
  8
0
 62
1
420
16711680
370
5
 48
1.0
  6
BYLAYER
100
AcDbLine
 10
282.0
 20
110.0
 30
0.0
 11
295.0
 21
110.0
 31
0.0
  0
LINE
  5
12E
100
AcDbEntity
  8
0
 62
1
420
16711680
370
5
 48
1.0
  6
BYLAYER
100
AcDbLine
 10
305.0
 20
110.0
 30
0.0
 11
318.0
 21
110.0
 31
0.0
  0
LINE
  5
12F
100
AcDbEntity
  8
0
 62
1
420
16711680
370
5
 48
1.0
  6
BYLAYER
100
AcDbLine
 10
328.0
 20
110.0
 30
0.0
 11
341.0
 21
110.0
 31
0.0
  0
LINE
  5
130
100
AcDbEntity
  8
0
 62
1
420
16711680
370
5
 48
1.0
  6
BYLAYER
100
AcDbLine
 10
351.0
 20
110.0
 30
0.0
 11
364.0
 21
110.0
 31
0.0
  0
LINE
  5
131
100
AcDbEntity
  8
0
 62
1
420
16711680
370
5
 48
1.0
  6
BYLAYER
100
AcDbLine
 10
374.0
 20
110.0
 30
0.0
 11
387.0
 21
110.0
 31
0.0
  0
LINE
  5
132
100
AcDbEntity
  8
0
 62
1
420
16711680
370
5
 48
1.0
  6
BYLAYER
100
AcDbLine
 10
397.0
 20
110.0
 30
0.0
 11
410.0
 21
110.0
 31
0.0
  0
LINE
  5
133
100
AcDbEntity
  8
0
 62
1
420
16711680
370
5
 48
1.0
  6
BYLAYER
100
AcDbLine
 10
190.0
 20
90.0
 30
0.0
 11
203.0
 21
90.0
 31
0.0
  0
LINE
  5
134
100
AcDbEntity
  8
0
 62
1
420
16711680
370
5
 48
1.0
  6
BYLAYER
100
AcDbLine
 10
213.0
 20
90.0
 30
0.0
 11
226.0
 21
90.0
 31
0.0
  0
LINE
  5
135
100
AcDbEntity
  8
0
 62
1
420
16711680
370
5
 48
1.0
  6
BYLAYER
100
AcDbLine
 10
236.0
 20
90.0
 30
0.0
 11
249.0
 21
90.0
 31
0.0
  0
LINE
  5
136
100
AcDbEntity
  8
0
 62
1
420
16711680
370
5
 48
1.0
  6
BYLAYER
100
AcDbLine
 10
259.0
 20
90.0
 30
0.0
 11
272.0
 21
90.0
 31
0.0
  0
LINE
  5
137
100
AcDbEntity
  8
0
 62
1
420
16711680
370
5
 48
1.0
  6
BYLAYER
100
AcDbLine
 10
282.0
 20
90.0
 30
0.0
 11
295.0
 21
90.0
 31
0.0
  0
LINE
  5
138
100
AcDbEntity
  8
0
 62
1
420
16711680
370
5
 48
1.0
  6
BYLAYER
100
AcDbLine
 10
305.0
 20
90.0
 30
0.0
 11
318.0
 21
90.0
 31
0.0
  0
LINE
  5
139
100
AcDbEntity
  8
0
 62
1
420
16711680
370
5
 48
1.0
  6
BYLAYER
100
AcDbLine
 10
328.0
 20
90.0
 30
0.0
 11
341.0
 21
90.0
 31
0.0
  0
LINE
  5
13A
100
AcDbEntity
  8
0
 62
1
420
16711680
370
5
 48
1.0
  6
BYLAYER
100
AcDbLine
 10
351.0
 20
90.0
 30
0.0
 11
364.0
 21
90.0
 31
0.0
  0
LINE
  5
13B
100
AcDbEntity
  8
0
 62
1
420
16711680
370
5
 48
1.0
  6
BYLAYER
100
AcDbLine
 10
374.0
 20
90.0
 30
0.0
 11
387.0
 21
90.0
 31
0.0
  0
LINE
  5
13C
100
AcDbEntity
  8
0
 62
1
420
16711680
370
5
 48
1.0
  6
BYLAYER
100
AcDbLine
 10
397.0
 20
90.0
 30
0.0
 11
410.0
 21
90.0
 31
0.0
  0
LINE
  5
13D
100
AcDbEntity
  8
0
 62
1
420
16711680
370
5
 48
1.0
  6
BYLAYER
100
AcDbLine
 10
190.0
 20
-94.578000000000003
 30
0.0
 11
203.0
 21
-94.578000000000003
 31
0.0
  0
LINE
  5
13E
100
AcDbEntity
  8
0
 62
1
420
16711680
370
5
 48
1.0
  6
BYLAYER
100
AcDbLine
 10
213.0
 20
-94.578000000000003
 30
0.0
 11
226.0
 21
-94.578000000000003
 31
0.0
  0
LINE
  5
13F
100
AcDbEntity
  8
0
 62
1
420
16711680
370
5
 48
1.0
  6
BYLAYER
100
AcDbLine
 10
236.0
 20
-94.578000000000003
 30
0.0
 11
249.0
 21
-94.578000000000003
 31
0.0
  0
LINE
  5
140
100
AcDbEntity
  8
0
 62
1
420
16711680
370
5
 48
1.0
  6
BYLAYER
100
AcDbLine
 10
259.0
 20
-94.578000000000003
 30
0.0
 11
272.0
 21
-94.578000000000003
 31
0.0
  0
LINE
  5
141
100
AcDbEntity
  8
0
 62
1
420
16711680
370
5
 48
1.0
  6
BYLAYER
100
AcDbLine
 10
282.0
 20
-94.578000000000003
 30
0.0
 11
295.0
 21
-94.578000000000003
 31
0.0
  0
LINE
  5
142
100
AcDbEntity
  8
0
 62
1
420
16711680
370
5
 48
1.0
  6
BYLAYER
100
AcDbLine
 10
305.0
 20
-94.578000000000003
 30
0.0
 11
318.0
 21
-94.578000000000003
 31
0.0
  0
LINE
  5
143
100
AcDbEntity
  8
0
 62
1
420
16711680
370
5
 48
1.0
  6
BYLAYER
100
AcDbLine
 10
328.0
 20
-94.578000000000003
 30
0.0
 11
341.0
 21
-94.578000000000003
 31
0.0
  0
LINE
  5
144
100
AcDbEntity
  8
0
 62
1
420
16711680
370
5
 48
1.0
  6
BYLAYER
100
AcDbLine
 10
351.0
 20
-94.578000000000003
 30
0.0
 11
364.0
 21
-94.578000000000003
 31
0.0
  0
LINE
  5
145
100
AcDbEntity
  8
0
 62
1
420
16711680
370
5
 48
1.0
  6
BYLAYER
100
AcDbLine
 10
374.0
 20
-94.578000000000003
 30
0.0
 11
387.0
 21
-94.578000000000003
 31
0.0
  0
LINE
  5
146
100
AcDbEntity
  8
0
 62
1
420
16711680
370
5
 48
1.0
  6
BYLAYER
100
AcDbLine
 10
397.0
 20
-94.578000000000003
 30
0.0
 11
410.0
 21
-94.578000000000003
 31
0.0
  0
LINE
  5
147
100
AcDbEntity
  8
0
 62
1
420
16711680
370
5
 48
1.0
  6
BYLAYER
100
AcDbLine
 10
-110.0
 20
-210.0
 30
0.0
 11
-97.0
 21
-210.0
 31
0.0
  0
LINE
  5
148
100
AcDbEntity
  8
0
 62
1
420
16711680
370
5
 48
1.0
  6
BYLAYER
100
AcDbLine
 10
-87.0
 20
-210.0
 30
0.0
 11
-74.0
 21
-210.0
 31
0.0
  0
LINE
  5
149
100
AcDbEntity
  8
0
 62
1
420
16711680
370
5
 48
1.0
  6
BYLAYER
100
AcDbLine
 10
-64.0
 20
-210.0
 30
0.0
 11
-51.0
 21
-210.0
 31
0.0
  0
LINE
  5
14A
100
AcDbEntity
  8
0
 62
1
420
16711680
370
5
 48
1.0
  6
BYLAYER
100
AcDbLine
 10
-41.0
 20
-210.0
 30
0.0
 11
-28.0
 21
-210.0
 31
0.0
  0
LINE
  5
14B
100
AcDbEntity
  8
0
 62
1
420
16711680
370
5
 48
1.0
  6
BYLAYER
100
AcDbLine
 10
-18.0
 20
-210.0
 30
0.0
 11
-5.0
 21
-210.0
 31
0.0
  0
LINE
  5
14C
100
AcDbEntity
  8
0
 62
1
420
16711680
370
5
 48
1.0
  6
BYLAYER
100
AcDbLine
 10
5.0
 20
-210.0
 30
0.0
 11
18.0
 21
-210.0
 31
0.0
  0
LINE
  5
14D
100
AcDbEntity
  8
0
 62
1
420
16711680
370
5
 48
1.0
  6
BYLAYER
100
AcDbLine
 10
28.0
 20
-210.0
 30
0.0
 11
41.0
 21
-210.0
 31
0.0
  0
LINE
  5
14E
100
AcDbEntity
  8
0
 62
1
420
16711680
370
5
 48
1.0
  6
BYLAYER
100
AcDbLine
 10
51.0
 20
-210.0
 30
0.0
 11
64.0
 21
-210.0
 31
0.0
  0
LINE
  5
14F
100
AcDbEntity
  8
0
 62
1
420
16711680
370
5
 48
1.0
  6
BYLAYER
100
AcDbLine
 10
74.0
 20
-210.0
 30
0.0
 11
87.0
 21
-210.0
 31
0.0
  0
LINE
  5
150
100
AcDbEntity
  8
0
 62
1
420
16711680
370
5
 48
1.0
  6
BYLAYER
100
AcDbLine
 10
97.0
 20
-210.0
 30
0.0
 11
110.0
 21
-210.0
 31
0.0
  0
LINE
  5
151
100
AcDbEntity
  8
0
 62
1
420
16711680
370
5
 48
1.0
  6
BYLAYER
100
AcDbLine
 10
-110.0
 20
-394.5779999999999745
 30
0.0
 11
-97.0
 21
-394.5779999999999745
 31
0.0
  0
LINE
  5
152
100
AcDbEntity
  8
0
 62
1
420
16711680
370
5
 48
1.0
  6
BYLAYER
100
AcDbLine
 10
-87.0
 20
-394.5779999999999745
 30
0.0
 11
-74.0
 21
-394.5779999999999745
 31
0.0
  0
LINE
  5
153
100
AcDbEntity
  8
0
 62
1
420
16711680
370
5
 48
1.0
  6
BYLAYER
100
AcDbLine
 10
-64.0
 20
-394.5779999999999745
 30
0.0
 11
-51.0
 21
-394.5779999999999745
 31
0.0
  0
LINE
  5
154
100
AcDbEntity
  8
0
 62
1
420
16711680
370
5
 48
1.0
  6
BYLAYER
100
AcDbLine
 10
-41.0
 20
-394.5779999999999745
 30
0.0
 11
-28.0
 21
-394.5779999999999745
 31
0.0
  0
LINE
  5
155
100
AcDbEntity
  8
0
 62
1
420
16711680
370
5
 48
1.0
  6
BYLAYER
100
AcDbLine
 10
-18.0
 20
-394.5779999999999745
 30
0.0
 11
-5.0
 21
-394.5779999999999745
 31
0.0
  0
LINE
  5
156
100
AcDbEntity
  8
0
 62
1
420
16711680
370
5
 48
1.0
  6
BYLAYER
100
AcDbLine
 10
5.0
 20
-394.5779999999999745
 30
0.0
 11
18.0
 21
-394.5779999999999745
 31
0.0
  0
LINE
  5
157
100
AcDbEntity
  8
0
 62
1
420
16711680
370
5
 48
1.0
  6
BYLAYER
100
AcDbLine
 10
28.0
 20
-394.5779999999999745
 30
0.0
 11
41.0
 21
-394.5779999999999745
 31
0.0
  0
LINE
  5
158
100
AcDbEntity
  8
0
 62
1
420
16711680
370
5
 48
1.0
  6
BYLAYER
100
AcDbLine
 10
51.0
 20
-394.5779999999999745
 30
0.0
 11
64.0
 21
-394.5779999999999745
 31
0.0
  0
LINE
  5
159
100
AcDbEntity
  8
0
 62
1
420
16711680
370
5
 48
1.0
  6
BYLAYER
100
AcDbLine
 10
74.0
 20
-394.5779999999999745
 30
0.0
 11
87.0
 21
-394.5779999999999745
 31
0.0
  0
LINE
  5
15A
100
AcDbEntity
  8
0
 62
1
420
16711680
370
5
 48
1.0
  6
BYLAYER
100
AcDbLine
 10
97.0
 20
-394.5779999999999745
 30
0.0
 11
110.0
 21
-394.5779999999999745
 31
0.0
  0
LINE
  5
15B
100
AcDbEntity
  8
0
 62
1
420
16711680
370
5
 48
1.0
  6
BYLAYER
100
AcDbLine
 10
203.0
 20
110.0
 30
0.0
 11
203.0
 21
114.578000000000003
 31
0.0
  0
LINE
  5
15C
100
AcDbEntity
  8
0
 62
1
420
16711680
370
5
 48
1.0
  6
BYLAYER
100
AcDbLine
 10
226.0
 20
110.0
 30
0.0
 11
226.0
 21
114.578000000000003
 31
0.0
  0
LINE
  5
15D
100
AcDbEntity
  8
0
 62
1
420
16711680
370
5
 48
1.0
  6
BYLAYER
100
AcDbLine
 10
249.0
 20
110.0
 30
0.0
 11
249.0
 21
114.578000000000003
 31
0.0
  0
LINE
  5
15E
100
AcDbEntity
  8
0
 62
1
420
16711680
370
5
 48
1.0
  6
BYLAYER
100
AcDbLine
 10
272.0
 20
110.0
 30
0.0
 11
272.0
 21
114.578000000000003
 31
0.0
  0
LINE
  5
15F
100
AcDbEntity
  8
0
 62
1
420
16711680
370
5
 48
1.0
  6
BYLAYER
100
AcDbLine
 10
295.0
 20
110.0
 30
0.0
 11
295.0
 21
114.578000000000003
 31
0.0
  0
LINE
  5
160
100
AcDbEntity
  8
0
 62
1
420
16711680
370
5
 48
1.0
  6
BYLAYER
100
AcDbLine
 10
318.0
 20
110.0
 30
0.0
 11
318.0
 21
114.578000000000003
 31
0.0
  0
LINE
  5
161
100
AcDbEntity
  8
0
 62
1
420
16711680
370
5
 48
1.0
  6
BYLAYER
100
AcDbLine
 10
341.0
 20
110.0
 30
0.0
 11
341.0
 21
114.578000000000003
 31
0.0
  0
LINE
  5
162
100
AcDbEntity
  8
0
 62
1
420
16711680
370
5
 48
1.0
  6
BYLAYER
100
AcDbLine
 10
364.0
 20
110.0
 30
0.0
 11
364.0
 21
114.578000000000003
 31
0.0
  0
LINE
  5
163
100
AcDbEntity
  8
0
 62
1
420
16711680
370
5
 48
1.0
  6
BYLAYER
100
AcDbLine
 10
387.0
 20
110.0
 30
0.0
 11
387.0
 21
114.578000000000003
 31
0.0
  0
LINE
  5
164
100
AcDbEntity
  8
0
 62
1
420
16711680
370
5
 48
1.0
  6
BYLAYER
100
AcDbLine
 10
410.0
 20
110.0
 30
0.0
 11
410.0
 21
114.578000000000003
 31
0.0
  0
LINE
  5
165
100
AcDbEntity
  8
0
 62
1
420
16711680
370
5
 48
1.0
  6
BYLAYER
100
AcDbLine
 10
203.0
 20
90.0
 30
0.0
 11
203.0
 21
94.578000000000003
 31
0.0
  0
LINE
  5
166
100
AcDbEntity
  8
0
 62
1
420
16711680
370
5
 48
1.0
  6
BYLAYER
100
AcDbLine
 10
226.0
 20
90.0
 30
0.0
 11
226.0
 21
94.578000000000003
 31
0.0
  0
LINE
  5
167
100
AcDbEntity
  8
0
 62
1
420
16711680
370
5
 48
1.0
  6
BYLAYER
100
AcDbLine
 10
249.0
 20
90.0
 30
0.0
 11
249.0
 21
94.578000000000003
 31
0.0
  0
LINE
  5
168
100
AcDbEntity
  8
0
 62
1
420
16711680
370
5
 48
1.0
  6
BYLAYER
100
AcDbLine
 10
272.0
 20
90.0
 30
0.0
 11
272.0
 21
94.578000000000003
 31
0.0
  0
LINE
  5
169
100
AcDbEntity
  8
0
 62
1
420
16711680
370
5
 48
1.0
  6
BYLAYER
100
AcDbLine
 10
295.0
 20
90.0
 30
0.0
 11
295.0
 21
94.578000000000003
 31
0.0
  0
LINE
  5
16A
100
AcDbEntity
  8
0
 62
1
420
16711680
370
5
 48
1.0
  6
BYLAYER
100
AcDbLine
 10
318.0
 20
90.0
 30
0.0
 11
318.0
 21
94.578000000000003
 31
0.0
  0
LINE
  5
16B
100
AcDbEntity
  8
0
 62
1
420
16711680
370
5
 48
1.0
  6
BYLAYER
100
AcDbLine
 10
341.0
 20
90.0
 30
0.0
 11
341.0
 21
94.578000000000003
 31
0.0
  0
LINE
  5
16C
100
AcDbEntity
  8
0
 62
1
420
16711680
370
5
 48
1.0
  6
BYLAYER
100
AcDbLine
 10
364.0
 20
90.0
 30
0.0
 11
364.0
 21
94.578000000000003
 31
0.0
  0
LINE
  5
16D
100
AcDbEntity
  8
0
 62
1
420
16711680
370
5
 48
1.0
  6
BYLAYER
100
AcDbLine
 10
387.0
 20
90.0
 30
0.0
 11
387.0
 21
94.578000000000003
 31
0.0
  0
LINE
  5
16E
100
AcDbEntity
  8
0
 62
1
420
16711680
370
5
 48
1.0
  6
BYLAYER
100
AcDbLine
 10
410.0
 20
90.0
 30
0.0
 11
410.0
 21
94.578000000000003
 31
0.0
  0
LINE
  5
16F
100
AcDbEntity
  8
0
 62
1
420
16711680
370
5
 48
1.0
  6
BYLAYER
100
AcDbLine
 10
203.0
 20
-94.578000000000003
 30
0.0
 11
203.0
 21
-90.0
 31
0.0
  0
LINE
  5
170
100
AcDbEntity
  8
0
 62
1
420
16711680
370
5
 48
1.0
  6
BYLAYER
100
AcDbLine
 10
226.0
 20
-94.578000000000003
 30
0.0
 11
226.0
 21
-90.0
 31
0.0
  0
LINE
  5
171
100
AcDbEntity
  8
0
 62
1
420
16711680
370
5
 48
1.0
  6
BYLAYER
100
AcDbLine
 10
249.0
 20
-94.578000000000003
 30
0.0
 11
249.0
 21
-90.0
 31
0.0
  0
LINE
  5
172
100
AcDbEntity
  8
0
 62
1
420
16711680
370
5
 48
1.0
  6
BYLAYER
100
AcDbLine
 10
272.0
 20
-94.578000000000003
 30
0.0
 11
272.0
 21
-90.0
 31
0.0
  0
LINE
  5
173
100
AcDbEntity
  8
0
 62
1
420
16711680
370
5
 48
1.0
  6
BYLAYER
100
AcDbLine
 10
295.0
 20
-94.578000000000003
 30
0.0
 11
295.0
 21
-90.0
 31
0.0
  0
LINE
  5
174
100
AcDbEntity
  8
0
 62
1
420
16711680
370
5
 48
1.0
  6
BYLAYER
100
AcDbLine
 10
318.0
 20
-94.578000000000003
 30
0.0
 11
318.0
 21
-90.0
 31
0.0
  0
LINE
  5
175
100
AcDbEntity
  8
0
 62
1
420
16711680
370
5
 48
1.0
  6
BYLAYER
100
AcDbLine
 10
341.0
 20
-94.578000000000003
 30
0.0
 11
341.0
 21
-90.0
 31
0.0
  0
LINE
  5
176
100
AcDbEntity
  8
0
 62
1
420
16711680
370
5
 48
1.0
  6
BYLAYER
100
AcDbLine
 10
364.0
 20
-94.578000000000003
 30
0.0
 11
364.0
 21
-90.0
 31
0.0
  0
LINE
  5
177
100
AcDbEntity
  8
0
 62
1
420
16711680
370
5
 48
1.0
  6
BYLAYER
100
AcDbLine
 10
387.0
 20
-94.578000000000003
 30
0.0
 11
387.0
 21
-90.0
 31
0.0
  0
LINE
  5
178
100
AcDbEntity
  8
0
 62
1
420
16711680
370
5
 48
1.0
  6
BYLAYER
100
AcDbLine
 10
410.0
 20
-94.578000000000003
 30
0.0
 11
410.0
 21
-90.0
 31
0.0
  0
LINE
  5
179
100
AcDbEntity
  8
0
 62
1
420
16711680
370
5
 48
1.0
  6
BYLAYER
100
AcDbLine
 10
-97.0
 20
-210.0
 30
0.0
 11
-97.0
 21
-205.421999999999997
 31
0.0
  0
LINE
  5
17A
100
AcDbEntity
  8
0
 62
1
420
16711680
370
5
 48
1.0
  6
BYLAYER
100
AcDbLine
 10
-74.0
 20
-210.0
 30
0.0
 11
-74.0
 21
-205.421999999999997
 31
0.0
  0
LINE
  5
17B
100
AcDbEntity
  8
0
 62
1
420
16711680
370
5
 48
1.0
  6
BYLAYER
100
AcDbLine
 10
-51.0
 20
-210.0
 30
0.0
 11
-51.0
 21
-205.421999999999997
 31
0.0
  0
LINE
  5
17C
100
AcDbEntity
  8
0
 62
1
420
16711680
370
5
 48
1.0
  6
BYLAYER
100
AcDbLine
 10
-28.0
 20
-210.0
 30
0.0
 11
-28.0
 21
-205.421999999999997
 31
0.0
  0
LINE
  5
17D
100
AcDbEntity
  8
0
 62
1
420
16711680
370
5
 48
1.0
  6
BYLAYER
100
AcDbLine
 10
-5.0
 20
-210.0
 30
0.0
 11
-5.0
 21
-205.421999999999997
 31
0.0
  0
LINE
  5
17E
100
AcDbEntity
  8
0
 62
1
420
16711680
370
5
 48
1.0
  6
BYLAYER
100
AcDbLine
 10
18.0
 20
-210.0
 30
0.0
 11
18.0
 21
-205.421999999999997
 31
0.0
  0
LINE
  5
17F
100
AcDbEntity
  8
0
 62
1
420
16711680
370
5
 48
1.0
  6
BYLAYER
100
AcDbLine
 10
41.0
 20
-210.0
 30
0.0
 11
41.0
 21
-205.421999999999997
 31
0.0
  0
LINE
  5
180
100
AcDbEntity
  8
0
 62
1
420
16711680
370
5
 48
1.0
  6
BYLAYER
100
AcDbLine
 10
64.0
 20
-210.0
 30
0.0
 11
64.0
 21
-205.421999999999997
 31
0.0
  0
LINE
  5
181
100
AcDbEntity
  8
0
 62
1
420
16711680
370
5
 48
1.0
  6
BYLAYER
100
AcDbLine
 10
87.0
 20
-210.0
 30
0.0
 11
87.0
 21
-205.421999999999997
 31
0.0
  0
LINE
  5
182
100
AcDbEntity
  8
0
 62
1
420
16711680
370
5
 48
1.0
  6
BYLAYER
100
AcDbLine
 10
110.0
 20
-210.0
 30
0.0
 11
110.0
 21
-205.421999999999997
 31
0.0
  0
LINE
  5
183
100
AcDbEntity
  8
0
 62
1
420
16711680
370
5
 48
1.0
  6
BYLAYER
100
AcDbLine
 10
-97.0
 20
-394.5779999999999745
 30
0.0
 11
-97.0
 21
-390.0
 31
0.0
  0
LINE
  5
184
100
AcDbEntity
  8
0
 62
1
420
16711680
370
5
 48
1.0
  6
BYLAYER
100
AcDbLine
 10
-74.0
 20
-394.5779999999999745
 30
0.0
 11
-74.0
 21
-390.0
 31
0.0
  0
LINE
  5
185
100
AcDbEntity
  8
0
 62
1
420
16711680
370
5
 48
1.0
  6
BYLAYER
100
AcDbLine
 10
-51.0
 20
-394.5779999999999745
 30
0.0
 11
-51.0
 21
-390.0
 31
0.0
  0
LINE
  5
186
100
AcDbEntity
  8
0
 62
1
420
16711680
370
5
 48
1.0
  6
BYLAYER
100
AcDbLine
 10
-28.0
 20
-394.5779999999999745
 30
0.0
 11
-28.0
 21
-390.0
 31
0.0
  0
LINE
  5
187
100
AcDbEntity
  8
0
 62
1
420
16711680
370
5
 48
1.0
  6
BYLAYER
100
AcDbLine
 10
-5.0
 20
-394.5779999999999745
 30
0.0
 11
-5.0
 21
-390.0
 31
0.0
  0
LINE
  5
188
100
AcDbEntity
  8
0
 62
1
420
16711680
370
5
 48
1.0
  6
BYLAYER
100
AcDbLine
 10
18.0
 20
-394.5779999999999745
 30
0.0
 11
18.0
 21
-390.0
 31
0.0
  0
LINE
  5
189
100
AcDbEntity
  8
0
 62
1
420
16711680
370
5
 48
1.0
  6
BYLAYER
100
AcDbLine
 10
41.0
 20
-394.5779999999999745
 30
0.0
 11
41.0
 21
-390.0
 31
0.0
  0
LINE
  5
18A
100
AcDbEntity
  8
0
 62
1
420
16711680
370
5
 48
1.0
  6
BYLAYER
100
AcDbLine
 10
64.0
 20
-394.5779999999999745
 30
0.0
 11
64.0
 21
-390.0
 31
0.0
  0
LINE
  5
18B
100
AcDbEntity
  8
0
 62
1
420
16711680
370
5
 48
1.0
  6
BYLAYER
100
AcDbLine
 10
87.0
 20
-394.5779999999999745
 30
0.0
 11
87.0
 21
-390.0
 31
0.0
  0
LINE
  5
18C
100
AcDbEntity
  8
0
 62
1
420
16711680
370
5
 48
1.0
  6
BYLAYER
100
AcDbLine
 10
110.0
 20
-394.5779999999999745
 30
0.0
 11
110.0
 21
-390.0
 31
0.0
  0
LINE
  5
18D
100
AcDbEntity
  8
0
 62
1
420
16711680
370
5
 48
1.0
  6
BYLAYER
100
AcDbLine
 10
203.0
 20
114.578000000000003
 30
0.0
 11
190.0
 21
114.578000000000003
 31
0.0
  0
LINE
  5
18E
100
AcDbEntity
  8
0
 62
1
420
16711680
370
5
 48
1.0
  6
BYLAYER
100
AcDbLine
 10
226.0
 20
114.578000000000003
 30
0.0
 11
213.0
 21
114.578000000000003
 31
0.0
  0
LINE
  5
18F
100
AcDbEntity
  8
0
 62
1
420
16711680
370
5
 48
1.0
  6
BYLAYER
100
AcDbLine
 10
249.0
 20
114.578000000000003
 30
0.0
 11
236.0
 21
114.578000000000003
 31
0.0
  0
LINE
  5
190
100
AcDbEntity
  8
0
 62
1
420
16711680
370
5
 48
1.0
  6
BYLAYER
100
AcDbLine
 10
272.0
 20
114.578000000000003
 30
0.0
 11
259.0
 21
114.578000000000003
 31
0.0
  0
LINE
  5
191
100
AcDbEntity
  8
0
 62
1
420
16711680
370
5
 48
1.0
  6
BYLAYER
100
AcDbLine
 10
295.0
 20
114.578000000000003
 30
0.0
 11
282.0
 21
114.578000000000003
 31
0.0
  0
LINE
  5
192
100
AcDbEntity
  8
0
 62
1
420
16711680
370
5
 48
1.0
  6
BYLAYER
100
AcDbLine
 10
318.0
 20
114.578000000000003
 30
0.0
 11
305.0
 21
114.578000000000003
 31
0.0
  0
LINE
  5
193
100
AcDbEntity
  8
0
 62
1
420
16711680
370
5
 48
1.0
  6
BYLAYER
100
AcDbLine
 10
341.0
 20
114.578000000000003
 30
0.0
 11
328.0
 21
114.578000000000003
 31
0.0
  0
LINE
  5
194
100
AcDbEntity
  8
0
 62
1
420
16711680
370
5
 48
1.0
  6
BYLAYER
100
AcDbLine
 10
364.0
 20
114.578000000000003
 30
0.0
 11
351.0
 21
114.578000000000003
 31
0.0
  0
LINE
  5
195
100
AcDbEntity
  8
0
 62
1
420
16711680
370
5
 48
1.0
  6
BYLAYER
100
AcDbLine
 10
387.0
 20
114.578000000000003
 30
0.0
 11
374.0
 21
114.578000000000003
 31
0.0
  0
LINE
  5
196
100
AcDbEntity
  8
0
 62
1
420
16711680
370
5
 48
1.0
  6
BYLAYER
100
AcDbLine
 10
410.0
 20
114.578000000000003
 30
0.0
 11
397.0
 21
114.578000000000003
 31
0.0
  0
LINE
  5
197
100
AcDbEntity
  8
0
 62
1
420
16711680
370
5
 48
1.0
  6
BYLAYER
100
AcDbLine
 10
203.0
 20
94.578000000000003
 30
0.0
 11
190.0
 21
94.578000000000003
 31
0.0
  0
LINE
  5
198
100
AcDbEntity
  8
0
 62
1
420
16711680
370
5
 48
1.0
  6
BYLAYER
100
AcDbLine
 10
226.0
 20
94.578000000000003
 30
0.0
 11
213.0
 21
94.578000000000003
 31
0.0
  0
LINE
  5
199
100
AcDbEntity
  8
0
 62
1
420
16711680
370
5
 48
1.0
  6
BYLAYER
100
AcDbLine
 10
249.0
 20
94.578000000000003
 30
0.0
 11
236.0
 21
94.578000000000003
 31
0.0
  0
LINE
  5
19A
100
AcDbEntity
  8
0
 62
1
420
16711680
370
5
 48
1.0
  6
BYLAYER
100
AcDbLine
 10
272.0
 20
94.578000000000003
 30
0.0
 11
259.0
 21
94.578000000000003
 31
0.0
  0
LINE
  5
19B
100
AcDbEntity
  8
0
 62
1
420
16711680
370
5
 48
1.0
  6
BYLAYER
100
AcDbLine
 10
295.0
 20
94.578000000000003
 30
0.0
 11
282.0
 21
94.578000000000003
 31
0.0
  0
LINE
  5
19C
100
AcDbEntity
  8
0
 62
1
420
16711680
370
5
 48
1.0
  6
BYLAYER
100
AcDbLine
 10
318.0
 20
94.578000000000003
 30
0.0
 11
305.0
 21
94.578000000000003
 31
0.0
  0
LINE
  5
19D
100
AcDbEntity
  8
0
 62
1
420
16711680
370
5
 48
1.0
  6
BYLAYER
100
AcDbLine
 10
341.0
 20
94.578000000000003
 30
0.0
 11
328.0
 21
94.578000000000003
 31
0.0
  0
LINE
  5
19E
100
AcDbEntity
  8
0
 62
1
420
16711680
370
5
 48
1.0
  6
BYLAYER
100
AcDbLine
 10
364.0
 20
94.578000000000003
 30
0.0
 11
351.0
 21
94.578000000000003
 31
0.0
  0
LINE
  5
19F
100
AcDbEntity
  8
0
 62
1
420
16711680
370
5
 48
1.0
  6
BYLAYER
100
AcDbLine
 10
387.0
 20
94.578000000000003
 30
0.0
 11
374.0
 21
94.578000000000003
 31
0.0
  0
LINE
  5
1A0
100
AcDbEntity
  8
0
 62
1
420
16711680
370
5
 48
1.0
  6
BYLAYER
100
AcDbLine
 10
410.0
 20
94.578000000000003
 30
0.0
 11
397.0
 21
94.578000000000003
 31
0.0
  0
LINE
  5
1A1
100
AcDbEntity
  8
0
 62
1
420
16711680
370
5
 48
1.0
  6
BYLAYER
100
AcDbLine
 10
203.0
 20
-90.0
 30
0.0
 11
190.0
 21
-90.0
 31
0.0
  0
LINE
  5
1A2
100
AcDbEntity
  8
0
 62
1
420
16711680
370
5
 48
1.0
  6
BYLAYER
100
AcDbLine
 10
226.0
 20
-90.0
 30
0.0
 11
213.0
 21
-90.0
 31
0.0
  0
LINE
  5
1A3
100
AcDbEntity
  8
0
 62
1
420
16711680
370
5
 48
1.0
  6
BYLAYER
100
AcDbLine
 10
249.0
 20
-90.0
 30
0.0
 11
236.0
 21
-90.0
 31
0.0
  0
LINE
  5
1A4
100
AcDbEntity
  8
0
 62
1
420
16711680
370
5
 48
1.0
  6
BYLAYER
100
AcDbLine
 10
272.0
 20
-90.0
 30
0.0
 11
259.0
 21
-90.0
 31
0.0
  0
LINE
  5
1A5
100
AcDbEntity
  8
0
 62
1
420
16711680
370
5
 48
1.0
  6
BYLAYER
100
AcDbLine
 10
295.0
 20
-90.0
 30
0.0
 11
282.0
 21
-90.0
 31
0.0
  0
LINE
  5
1A6
100
AcDbEntity
  8
0
 62
1
420
16711680
370
5
 48
1.0
  6
BYLAYER
100
AcDbLine
 10
318.0
 20
-90.0
 30
0.0
 11
305.0
 21
-90.0
 31
0.0
  0
LINE
  5
1A7
100
AcDbEntity
  8
0
 62
1
420
16711680
370
5
 48
1.0
  6
BYLAYER
100
AcDbLine
 10
341.0
 20
-90.0
 30
0.0
 11
328.0
 21
-90.0
 31
0.0
  0
LINE
  5
1A8
100
AcDbEntity
  8
0
 62
1
420
16711680
370
5
 48
1.0
  6
BYLAYER
100
AcDbLine
 10
364.0
 20
-90.0
 30
0.0
 11
351.0
 21
-90.0
 31
0.0
  0
LINE
  5
1A9
100
AcDbEntity
  8
0
 62
1
420
16711680
370
5
 48
1.0
  6
BYLAYER
100
AcDbLine
 10
531.5
 20
-25.0
 30
0.0
 11
518.5
 21
-25.0
 31
0.0
  0
LINE
  5
1AA
100
AcDbEntity
  8
0
 62
1
420
16711680
370
5
 48
1.0
  6
BYLAYER
100
AcDbLine
 10
387.0
 20
-90.0
 30
0.0
 11
374.0
 21
-90.0
 31
0.0
  0
LINE
  5
1AB
100
AcDbEntity
  8
0
 62
1
420
16711680
370
5
 48
1.0
  6
BYLAYER
100
AcDbLine
 10
554.5
 20
-25.0
 30
0.0
 11
541.5
 21
-25.0
 31
0.0
  0
LINE
  5
1AC
100
AcDbEntity
  8
0
 62
1
420
16711680
370
5
 48
1.0
  6
BYLAYER
100
AcDbLine
 10
410.0
 20
-90.0
 30
0.0
 11
397.0
 21
-90.0
 31
0.0
  0
LINE
  5
1AD
100
AcDbEntity
  8
0
 62
1
420
16711680
370
5
 48
1.0
  6
BYLAYER
100
AcDbLine
 10
-97.0
 20
-205.421999999999997
 30
0.0
 11
-110.0
 21
-205.421999999999997
 31
0.0
  0
LINE
  5
1AE
100
AcDbEntity
  8
0
 62
1
420
16711680
370
5
 48
1.0
  6
BYLAYER
100
AcDbLine
 10
-74.0
 20
-205.421999999999997
 30
0.0
 11
-87.0
 21
-205.421999999999997
 31
0.0
  0
LINE
  5
1AF
100
AcDbEntity
  8
0
 62
1
420
16711680
370
5
 48
1.0
  6
BYLAYER
100
AcDbLine
 10
-51.0
 20
-205.421999999999997
 30
0.0
 11
-64.0
 21
-205.421999999999997
 31
0.0
  0
LINE
  5
1B0
100
AcDbEntity
  8
0
 62
1
420
16711680
370
5
 48
1.0
  6
BYLAYER
100
AcDbLine
 10
-28.0
 20
-205.421999999999997
 30
0.0
 11
-41.0
 21
-205.421999999999997
 31
0.0
  0
LINE
  5
1B1
100
AcDbEntity
  8
0
 62
1
420
16711680
370
5
 48
1.0
  6
BYLAYER
100
AcDbLine
 10
-5.0
 20
-205.421999999999997
 30
0.0
 11
-18.0
 21
-205.421999999999997
 31
0.0
  0
LINE
  5
1B2
100
AcDbEntity
  8
0
 62
1
420
16711680
370
5
 48
1.0
  6
BYLAYER
100
AcDbLine
 10
18.0
 20
-205.421999999999997
 30
0.0
 11
5.0
 21
-205.421999999999997
 31
0.0
  0
LINE
  5
1B3
100
AcDbEntity
  8
0
 62
1
420
16711680
370
5
 48
1.0
  6
BYLAYER
100
AcDbLine
 10
41.0
 20
-205.421999999999997
 30
0.0
 11
28.0
 21
-205.421999999999997
 31
0.0
  0
LINE
  5
1B4
100
AcDbEntity
  8
0
 62
1
420
16711680
370
5
 48
1.0
  6
BYLAYER
100
AcDbLine
 10
64.0
 20
-205.421999999999997
 30
0.0
 11
51.0
 21
-205.421999999999997
 31
0.0
  0
LINE
  5
1B5
100
AcDbEntity
  8
0
 62
1
420
16711680
370
5
 48
1.0
  6
BYLAYER
100
AcDbLine
 10
87.0
 20
-205.421999999999997
 30
0.0
 11
74.0
 21
-205.421999999999997
 31
0.0
  0
LINE
  5
1B6
100
AcDbEntity
  8
0
 62
1
420
16711680
370
5
 48
1.0
  6
BYLAYER
100
AcDbLine
 10
110.0
 20
-205.421999999999997
 30
0.0
 11
97.0
 21
-205.421999999999997
 31
0.0
  0
LINE
  5
1B7
100
AcDbEntity
  8
0
 62
1
420
16711680
370
5
 48
1.0
  6
BYLAYER
100
AcDbLine
 10
-97.0
 20
-390.0
 30
0.0
 11
-110.0
 21
-390.0
 31
0.0
  0
LINE
  5
1B8
100
AcDbEntity
  8
0
 62
1
420
16711680
370
5
 48
1.0
  6
BYLAYER
100
AcDbLine
 10
-74.0
 20
-390.0
 30
0.0
 11
-87.0
 21
-390.0
 31
0.0
  0
LINE
  5
1B9
100
AcDbEntity
  8
0
 62
1
420
16711680
370
5
 48
1.0
  6
BYLAYER
100
AcDbLine
 10
-51.0
 20
-390.0
 30
0.0
 11
-64.0
 21
-390.0
 31
0.0
  0
LINE
  5
1BA
100
AcDbEntity
  8
0
 62
1
420
16711680
370
5
 48
1.0
  6
BYLAYER
100
AcDbLine
 10
-28.0
 20
-390.0
 30
0.0
 11
-41.0
 21
-390.0
 31
0.0
  0
LINE
  5
1BB
100
AcDbEntity
  8
0
 62
1
420
16711680
370
5
 48
1.0
  6
BYLAYER
100
AcDbLine
 10
-5.0
 20
-390.0
 30
0.0
 11
-18.0
 21
-390.0
 31
0.0
  0
LINE
  5
1BC
100
AcDbEntity
  8
0
 62
1
420
16711680
370
5
 48
1.0
  6
BYLAYER
100
AcDbLine
 10
18.0
 20
-390.0
 30
0.0
 11
5.0
 21
-390.0
 31
0.0
  0
LINE
  5
1BD
100
AcDbEntity
  8
0
 62
1
420
16711680
370
5
 48
1.0
  6
BYLAYER
100
AcDbLine
 10
41.0
 20
-390.0
 30
0.0
 11
28.0
 21
-390.0
 31
0.0
  0
LINE
  5
1BE
100
AcDbEntity
  8
0
 62
1
420
16711680
370
5
 48
1.0
  6
BYLAYER
100
AcDbLine
 10
64.0
 20
-390.0
 30
0.0
 11
51.0
 21
-390.0
 31
0.0
  0
LINE
  5
1BF
100
AcDbEntity
  8
0
 62
1
420
16711680
370
5
 48
1.0
  6
BYLAYER
100
AcDbLine
 10
87.0
 20
-390.0
 30
0.0
 11
74.0
 21
-390.0
 31
0.0
  0
LINE
  5
1C0
100
AcDbEntity
  8
0
 62
1
420
16711680
370
5
 48
1.0
  6
BYLAYER
100
AcDbLine
 10
110.0
 20
-390.0
 30
0.0
 11
97.0
 21
-390.0
 31
0.0
  0
LINE
  5
1C1
100
AcDbEntity
  8
0
 62
1
420
16711680
370
5
 48
1.0
  6
BYLAYER
100
AcDbLine
 10
190.0
 20
114.578000000000003
 30
0.0
 11
190.0
 21
110.0
 31
0.0
  0
LINE
  5
1C2
100
AcDbEntity
  8
0
 62
1
420
16711680
370
5
 48
1.0
  6
BYLAYER
100
AcDbLine
 10
213.0
 20
114.578000000000003
 30
0.0
 11
213.0
 21
110.0
 31
0.0
  0
LINE
  5
1C3
100
AcDbEntity
  8
0
 62
1
420
16711680
370
5
 48
1.0
  6
BYLAYER
100
AcDbLine
 10
236.0
 20
114.578000000000003
 30
0.0
 11
236.0
 21
110.0
 31
0.0
  0
LINE
  5
1C4
100
AcDbEntity
  8
0
 62
1
420
16711680
370
5
 48
1.0
  6
BYLAYER
100
AcDbLine
 10
259.0
 20
114.578000000000003
 30
0.0
 11
259.0
 21
110.0
 31
0.0
  0
LINE
  5
1C5
100
AcDbEntity
  8
0
 62
1
420
16711680
370
5
 48
1.0
  6
BYLAYER
100
AcDbLine
 10
282.0
 20
114.578000000000003
 30
0.0
 11
282.0
 21
110.0
 31
0.0
  0
LINE
  5
1C6
100
AcDbEntity
  8
0
 62
1
420
16711680
370
5
 48
1.0
  6
BYLAYER
100
AcDbLine
 10
305.0
 20
114.578000000000003
 30
0.0
 11
305.0
 21
110.0
 31
0.0
  0
LINE
  5
1C7
100
AcDbEntity
  8
0
 62
1
420
16711680
370
5
 48
1.0
  6
BYLAYER
100
AcDbLine
 10
328.0
 20
114.578000000000003
 30
0.0
 11
328.0
 21
110.0
 31
0.0
  0
LINE
  5
1C8
100
AcDbEntity
  8
0
 62
1
420
16711680
370
5
 48
1.0
  6
BYLAYER
100
AcDbLine
 10
351.0
 20
114.578000000000003
 30
0.0
 11
351.0
 21
110.0
 31
0.0
  0
LINE
  5
1C9
100
AcDbEntity
  8
0
 62
1
420
16711680
370
5
 48
1.0
  6
BYLAYER
100
AcDbLine
 10
374.0
 20
114.578000000000003
 30
0.0
 11
374.0
 21
110.0
 31
0.0
  0
LINE
  5
1CA
100
AcDbEntity
  8
0
 62
1
420
16711680
370
5
 48
1.0
  6
BYLAYER
100
AcDbLine
 10
397.0
 20
114.578000000000003
 30
0.0
 11
397.0
 21
110.0
 31
0.0
  0
LINE
  5
1CB
100
AcDbEntity
  8
0
 62
1
420
16711680
370
5
 48
1.0
  6
BYLAYER
100
AcDbLine
 10
190.0
 20
94.578000000000003
 30
0.0
 11
190.0
 21
90.0
 31
0.0
  0
LINE
  5
1CC
100
AcDbEntity
  8
0
 62
1
420
16711680
370
5
 48
1.0
  6
BYLAYER
100
AcDbLine
 10
213.0
 20
94.578000000000003
 30
0.0
 11
213.0
 21
90.0
 31
0.0
  0
LINE
  5
1CD
100
AcDbEntity
  8
0
 62
1
420
16711680
370
5
 48
1.0
  6
BYLAYER
100
AcDbLine
 10
236.0
 20
94.578000000000003
 30
0.0
 11
236.0
 21
90.0
 31
0.0
  0
LINE
  5
1CE
100
AcDbEntity
  8
0
 62
1
420
16711680
370
5
 48
1.0
  6
BYLAYER
100
AcDbLine
 10
259.0
 20
94.578000000000003
 30
0.0
 11
259.0
 21
90.0
 31
0.0
  0
LINE
  5
1CF
100
AcDbEntity
  8
0
 62
1
420
16711680
370
5
 48
1.0
  6
BYLAYER
100
AcDbLine
 10
282.0
 20
94.578000000000003
 30
0.0
 11
282.0
 21
90.0
 31
0.0
  0
LINE
  5
1D0
100
AcDbEntity
  8
0
 62
1
420
16711680
370
5
 48
1.0
  6
BYLAYER
100
AcDbLine
 10
305.0
 20
94.578000000000003
 30
0.0
 11
305.0
 21
90.0
 31
0.0
  0
LINE
  5
1D1
100
AcDbEntity
  8
0
 62
1
420
16711680
370
5
 48
1.0
  6
BYLAYER
100
AcDbLine
 10
328.0
 20
94.578000000000003
 30
0.0
 11
328.0
 21
90.0
 31
0.0
  0
LINE
  5
1D2
100
AcDbEntity
  8
0
 62
1
420
16711680
370
5
 48
1.0
  6
BYLAYER
100
AcDbLine
 10
351.0
 20
94.578000000000003
 30
0.0
 11
351.0
 21
90.0
 31
0.0
  0
LINE
  5
1D3
100
AcDbEntity
  8
0
 62
1
420
16711680
370
5
 48
1.0
  6
BYLAYER
100
AcDbLine
 10
374.0
 20
94.578000000000003
 30
0.0
 11
374.0
 21
90.0
 31
0.0
  0
LINE
  5
1D4
100
AcDbEntity
  8
0
 62
1
420
16711680
370
5
 48
1.0
  6
BYLAYER
100
AcDbLine
 10
397.0
 20
94.578000000000003
 30
0.0
 11
397.0
 21
90.0
 31
0.0
  0
LINE
  5
1D5
100
AcDbEntity
  8
0
 62
1
420
16711680
370
5
 48
1.0
  6
BYLAYER
100
AcDbLine
 10
190.0
 20
-90.0
 30
0.0
 11
190.0
 21
-94.578000000000003
 31
0.0
  0
LINE
  5
1D6
100
AcDbEntity
  8
0
 62
1
420
16711680
370
5
 48
1.0
  6
BYLAYER
100
AcDbLine
 10
213.0
 20
-90.0
 30
0.0
 11
213.0
 21
-94.578000000000003
 31
0.0
  0
LINE
  5
1D7
100
AcDbEntity
  8
0
 62
1
420
16711680
370
5
 48
1.0
  6
BYLAYER
100
AcDbLine
 10
236.0
 20
-90.0
 30
0.0
 11
236.0
 21
-94.578000000000003
 31
0.0
  0
LINE
  5
1D8
100
AcDbEntity
  8
0
 62
1
420
16711680
370
5
 48
1.0
  6
BYLAYER
100
AcDbLine
 10
259.0
 20
-90.0
 30
0.0
 11
259.0
 21
-94.578000000000003
 31
0.0
  0
LINE
  5
1D9
100
AcDbEntity
  8
0
 62
1
420
16711680
370
5
 48
1.0
  6
BYLAYER
100
AcDbLine
 10
282.0
 20
-90.0
 30
0.0
 11
282.0
 21
-94.578000000000003
 31
0.0
  0
LINE
  5
1DA
100
AcDbEntity
  8
0
 62
1
420
16711680
370
5
 48
1.0
  6
BYLAYER
100
AcDbLine
 10
305.0
 20
-90.0
 30
0.0
 11
305.0
 21
-94.578000000000003
 31
0.0
  0
LINE
  5
1DB
100
AcDbEntity
  8
0
 62
1
420
16711680
370
5
 48
1.0
  6
BYLAYER
100
AcDbLine
 10
328.0
 20
-90.0
 30
0.0
 11
328.0
 21
-94.578000000000003
 31
0.0
  0
LINE
  5
1DC
100
AcDbEntity
  8
0
 62
1
420
16711680
370
5
 48
1.0
  6
BYLAYER
100
AcDbLine
 10
351.0
 20
-90.0
 30
0.0
 11
351.0
 21
-94.578000000000003
 31
0.0
  0
LINE
  5
1DD
100
AcDbEntity
  8
0
 62
1
420
16711680
370
5
 48
1.0
  6
BYLAYER
100
AcDbLine
 10
374.0
 20
-90.0
 30
0.0
 11
374.0
 21
-94.578000000000003
 31
0.0
  0
LINE
  5
1DE
100
AcDbEntity
  8
0
 62
1
420
16711680
370
5
 48
1.0
  6
BYLAYER
100
AcDbLine
 10
397.0
 20
-90.0
 30
0.0
 11
397.0
 21
-94.578000000000003
 31
0.0
  0
LINE
  5
1DF
100
AcDbEntity
  8
0
 62
1
420
16711680
370
5
 48
1.0
  6
BYLAYER
100
AcDbLine
 10
-110.0
 20
-205.421999999999997
 30
0.0
 11
-110.0
 21
-210.0
 31
0.0
  0
LINE
  5
1E0
100
AcDbEntity
  8
0
 62
1
420
16711680
370
5
 48
1.0
  6
BYLAYER
100
AcDbLine
 10
-87.0
 20
-205.421999999999997
 30
0.0
 11
-87.0
 21
-210.0
 31
0.0
  0
LINE
  5
1E1
100
AcDbEntity
  8
0
 62
1
420
16711680
370
5
 48
1.0
  6
BYLAYER
100
AcDbLine
 10
-64.0
 20
-205.421999999999997
 30
0.0
 11
-64.0
 21
-210.0
 31
0.0
  0
LINE
  5
1E2
100
AcDbEntity
  8
0
 62
1
420
16711680
370
5
 48
1.0
  6
BYLAYER
100
AcDbLine
 10
-41.0
 20
-205.421999999999997
 30
0.0
 11
-41.0
 21
-210.0
 31
0.0
  0
LINE
  5
1E3
100
AcDbEntity
  8
0
 62
1
420
16711680
370
5
 48
1.0
  6
BYLAYER
100
AcDbLine
 10
-18.0
 20
-205.421999999999997
 30
0.0
 11
-18.0
 21
-210.0
 31
0.0
  0
LINE
  5
1E4
100
AcDbEntity
  8
0
 62
1
420
16711680
370
5
 48
1.0
  6
BYLAYER
100
AcDbLine
 10
5.0
 20
-205.421999999999997
 30
0.0
 11
5.0
 21
-210.0
 31
0.0
  0
LINE
  5
1E5
100
AcDbEntity
  8
0
 62
1
420
16711680
370
5
 48
1.0
  6
BYLAYER
100
AcDbLine
 10
28.0
 20
-205.421999999999997
 30
0.0
 11
28.0
 21
-210.0
 31
0.0
  0
LINE
  5
1E6
100
AcDbEntity
  8
0
 62
1
420
16711680
370
5
 48
1.0
  6
BYLAYER
100
AcDbLine
 10
51.0
 20
-205.421999999999997
 30
0.0
 11
51.0
 21
-210.0
 31
0.0
  0
LINE
  5
1E7
100
AcDbEntity
  8
0
 62
1
420
16711680
370
5
 48
1.0
  6
BYLAYER
100
AcDbLine
 10
74.0
 20
-205.421999999999997
 30
0.0
 11
74.0
 21
-210.0
 31
0.0
  0
LINE
  5
1E8
100
AcDbEntity
  8
0
 62
1
420
16711680
370
5
 48
1.0
  6
BYLAYER
100
AcDbLine
 10
97.0
 20
-205.421999999999997
 30
0.0
 11
97.0
 21
-210.0
 31
0.0
  0
LINE
  5
1E9
100
AcDbEntity
  8
0
 62
1
420
16711680
370
5
 48
1.0
  6
BYLAYER
100
AcDbLine
 10
-110.0
 20
-390.0
 30
0.0
 11
-110.0
 21
-394.5779999999999745
 31
0.0
  0
LINE
  5
1EA
100
AcDbEntity
  8
0
 62
1
420
16711680
370
5
 48
1.0
  6
BYLAYER
100
AcDbLine
 10
-87.0
 20
-390.0
 30
0.0
 11
-87.0
 21
-394.5779999999999745
 31
0.0
  0
LINE
  5
1EB
100
AcDbEntity
  8
0
 62
1
420
16711680
370
5
 48
1.0
  6
BYLAYER
100
AcDbLine
 10
-64.0
 20
-390.0
 30
0.0
 11
-64.0
 21
-394.5779999999999745
 31
0.0
  0
LINE
  5
1EC
100
AcDbEntity
  8
0
 62
1
420
16711680
370
5
 48
1.0
  6
BYLAYER
100
AcDbLine
 10
-41.0
 20
-390.0
 30
0.0
 11
-41.0
 21
-394.5779999999999745
 31
0.0
  0
LINE
  5
1ED
100
AcDbEntity
  8
0
 62
1
420
16711680
370
5
 48
1.0
  6
BYLAYER
100
AcDbLine
 10
-18.0
 20
-390.0
 30
0.0
 11
-18.0
 21
-394.5779999999999745
 31
0.0
  0
LINE
  5
1EE
100
AcDbEntity
  8
0
 62
1
420
16711680
370
5
 48
1.0
  6
BYLAYER
100
AcDbLine
 10
5.0
 20
-390.0
 30
0.0
 11
5.0
 21
-394.5779999999999745
 31
0.0
  0
LINE
  5
1EF
100
AcDbEntity
  8
0
 62
1
420
16711680
370
5
 48
1.0
  6
BYLAYER
100
AcDbLine
 10
28.0
 20
-390.0
 30
0.0
 11
28.0
 21
-394.5779999999999745
 31
0.0
  0
LINE
  5
1F0
100
AcDbEntity
  8
0
 62
1
420
16711680
370
5
 48
1.0
  6
BYLAYER
100
AcDbLine
 10
51.0
 20
-390.0
 30
0.0
 11
51.0
 21
-394.5779999999999745
 31
0.0
  0
LINE
  5
1F1
100
AcDbEntity
  8
0
 62
1
420
16711680
370
5
 48
1.0
  6
BYLAYER
100
AcDbLine
 10
74.0
 20
-390.0
 30
0.0
 11
74.0
 21
-394.5779999999999745
 31
0.0
  0
LINE
  5
1F2
100
AcDbEntity
  8
0
 62
1
420
16711680
370
5
 48
1.0
  6
BYLAYER
100
AcDbLine
 10
97.0
 20
-390.0
 30
0.0
 11
97.0
 21
-394.5779999999999745
 31
0.0
  0
POINT
  5
1F3
100
AcDbEntity
  8
0
 62
1
420
16711680
370
5
 48
1.0
  6
BYLAYER
100
AcDbPoint
 10
213.0
 20
110.0
 30
0.0
  0
POINT
  5
1F4
100
AcDbEntity
  8
0
 62
1
420
16711680
370
5
 48
1.0
  6
BYLAYER
100
AcDbPoint
 10
213.0
 20
90.0
 30
0.0
  0
POINT
  5
1F5
100
AcDbEntity
  8
0
 62
1
420
16711680
370
5
 48
1.0
  6
BYLAYER
100
AcDbPoint
 10
213.0
 20
-94.578000000000003
 30
0.0
  0
POINT
  5
1F6
100
AcDbEntity
  8
0
 62
1
420
16711680
370
5
 48
1.0
  6
BYLAYER
100
AcDbPoint
 10
-87.0
 20
-210.0
 30
0.0
  0
POINT
  5
1F7
100
AcDbEntity
  8
0
 62
1
420
16711680
370
5
 48
1.0
  6
BYLAYER
100
AcDbPoint
 10
-87.0
 20
-394.5779999999999745
 30
0.0
  0
CIRCLE
  5
1F8
100
AcDbEntity
  8
0
 62
1
420
16711680
370
5
 48
1.0
  6
BYLAYER
100
AcDbCircle
 10
41.0000706955991703
 20
-253.0237815011199984
 30
0.0
 40
10.9658560997306704
  0
CIRCLE
  5
1F9
100
AcDbEntity
  8
0
 62
1
420
16711680
370
5
 48
1.0
  6
BYLAYER
100
AcDbCircle
 10
41.0000706955991703
 20
-347.0237815011200269
 30
0.0
 40
10.9658560997306491
  0
CIRCLE
  5
1FA
100
AcDbEntity
  8
0
 62
1
420
16711680
370
5
 48
1.0
  6
BYLAYER
100
AcDbCircle
 10
320.0
 20
0.0
 30
0.0
 40
4.5
  0
CIRCLE
  5
1FB
100
AcDbEntity
  8
0
 62
1
420
16711680
370
5
 48
1.0
  6
BYLAYER
100
AcDbCircle
 10
540.0001712164926175
 20
49.9998474330213725
 30
0.0
 40
4.5
  0
CIRCLE
  5
1FC
100
AcDbEntity
  8
0
 62
1
420
16711680
370
5
 48
1.0
  6
BYLAYER
100
AcDbCircle
 10
0.0
 20
-300.0
 30
0.0
 40
2.0
  0
LINE
  5
1FD
100
AcDbEntity
  8
0
 62
1
420
16711680
370
5
 48
1.0
  6
BYLAYER
100
AcDbLine
 10
203.0
 20
-190.0
 30
0.0
 11
203.0
 21
-185.0
 31
0.0
  0
LINE
  5
1FE
100
AcDbEntity
  8
0
 62
1
420
16711680
370
5
 48
1.0
  6
BYLAYER
100
AcDbLine
 10
226.0
 20
-190.0
 30
0.0
 11
226.0
 21
-185.0
 31
0.0
  0
LINE
  5
1FF
100
AcDbEntity
  8
0
 62
1
420
16711680
370
5
 48
1.0
  6
BYLAYER
100
AcDbLine
 10
249.0
 20
-190.0
 30
0.0
 11
249.0
 21
-185.0
 31
0.0
  0
LINE
  5
200
100
AcDbEntity
  8
0
 62
1
420
16711680
370
5
 48
1.0
  6
BYLAYER
100
AcDbLine
 10
272.0
 20
-190.0
 30
0.0
 11
272.0
 21
-185.0
 31
0.0
  0
LINE
  5
201
100
AcDbEntity
  8
0
 62
1
420
16711680
370
5
 48
1.0
  6
BYLAYER
100
AcDbLine
 10
295.0
 20
-190.0
 30
0.0
 11
295.0
 21
-185.0
 31
0.0
  0
LINE
  5
202
100
AcDbEntity
  8
0
 62
1
420
16711680
370
5
 48
1.0
  6
BYLAYER
100
AcDbLine
 10
318.0
 20
-190.0
 30
0.0
 11
318.0
 21
-185.0
 31
0.0
  0
LINE
  5
203
100
AcDbEntity
  8
0
 62
1
420
16711680
370
5
 48
1.0
  6
BYLAYER
100
AcDbLine
 10
341.0
 20
-190.0
 30
0.0
 11
341.0
 21
-185.0
 31
0.0
  0
LINE
  5
204
100
AcDbEntity
  8
0
 62
1
420
16711680
370
5
 48
1.0
  6
BYLAYER
100
AcDbLine
 10
364.0
 20
-190.0
 30
0.0
 11
364.0
 21
-185.0
 31
0.0
  0
LINE
  5
205
100
AcDbEntity
  8
0
 62
1
420
16711680
370
5
 48
1.0
  6
BYLAYER
100
AcDbLine
 10
387.0
 20
-190.0
 30
0.0
 11
387.0
 21
-185.0
 31
0.0
  0
LINE
  5
206
100
AcDbEntity
  8
0
 62
1
420
16711680
370
5
 48
1.0
  6
BYLAYER
100
AcDbLine
 10
410.0
 20
-190.0
 30
0.0
 11
410.0
 21
-185.0
 31
0.0
  0
LINE
  5
207
100
AcDbEntity
  8
0
 62
1
420
16711680
370
5
 48
1.0
  6
BYLAYER
100
AcDbLine
 10
203.0
 20
-205.0
 30
0.0
 11
203.0
 21
-200.0
 31
0.0
  0
LINE
  5
208
100
AcDbEntity
  8
0
 62
1
420
16711680
370
5
 48
1.0
  6
BYLAYER
100
AcDbLine
 10
226.0
 20
-205.0
 30
0.0
 11
226.0
 21
-200.0
 31
0.0
  0
LINE
  5
209
100
AcDbEntity
  8
0
 62
1
420
16711680
370
5
 48
1.0
  6
BYLAYER
100
AcDbLine
 10
249.0
 20
-205.0
 30
0.0
 11
249.0
 21
-200.0
 31
0.0
  0
LINE
  5
20A
100
AcDbEntity
  8
0
 62
1
420
16711680
370
5
 48
1.0
  6
BYLAYER
100
AcDbLine
 10
272.0
 20
-205.0
 30
0.0
 11
272.0
 21
-200.0
 31
0.0
  0
LINE
  5
20B
100
AcDbEntity
  8
0
 62
1
420
16711680
370
5
 48
1.0
  6
BYLAYER
100
AcDbLine
 10
295.0
 20
-205.0
 30
0.0
 11
295.0
 21
-200.0
 31
0.0
  0
LINE
  5
20C
100
AcDbEntity
  8
0
 62
1
420
16711680
370
5
 48
1.0
  6
BYLAYER
100
AcDbLine
 10
318.0
 20
-205.0
 30
0.0
 11
318.0
 21
-200.0
 31
0.0
  0
LINE
  5
20D
100
AcDbEntity
  8
0
 62
1
420
16711680
370
5
 48
1.0
  6
BYLAYER
100
AcDbLine
 10
341.0
 20
-205.0
 30
0.0
 11
341.0
 21
-200.0
 31
0.0
  0
LINE
  5
20E
100
AcDbEntity
  8
0
 62
1
420
16711680
370
5
 48
1.0
  6
BYLAYER
100
AcDbLine
 10
364.0
 20
-205.0
 30
0.0
 11
364.0
 21
-200.0
 31
0.0
  0
LINE
  5
20F
100
AcDbEntity
  8
0
 62
1
420
16711680
370
5
 48
1.0
  6
BYLAYER
100
AcDbLine
 10
387.0
 20
-205.0
 30
0.0
 11
387.0
 21
-200.0
 31
0.0
  0
LINE
  5
210
100
AcDbEntity
  8
0
 62
1
420
16711680
370
5
 48
1.0
  6
BYLAYER
100
AcDbLine
 10
410.0
 20
-205.0
 30
0.0
 11
410.0
 21
-200.0
 31
0.0
  0
LINE
  5
211
100
AcDbEntity
  8
0
 62
1
420
16711680
370
5
 48
1.0
  6
BYLAYER
100
AcDbLine
 10
203.0
 20
-167.500000000000199
 30
0.0
 11
203.0
 21
-172.499999999999801
 31
0.0
  0
LINE
  5
212
100
AcDbEntity
  8
0
 62
1
420
16711680
370
5
 48
1.0
  6
BYLAYER
100
AcDbLine
 10
226.0
 20
-167.4999999999996874
 30
0.0
 11
226.0
 21
-172.5000000000003126
 31
0.0
  0
LINE
  5
213
100
AcDbEntity
  8
0
 62
1
420
16711680
370
5
 48
1.0
  6
BYLAYER
100
AcDbLine
 10
249.0
 20
-167.5
 30
0.0
 11
249.0
 21
-172.4999999999998863
 31
0.0
  0
LINE
  5
214
100
AcDbEntity
  8
0
 62
1
420
16711680
370
5
 48
1.0
  6
BYLAYER
100
AcDbLine
 10
272.0
 20
-167.5
 30
0.0
 11
272.0
 21
-172.4999999999998863
 31
0.0
  0
LINE
  5
215
100
AcDbEntity
  8
0
 62
1
420
16711680
370
5
 48
1.0
  6
BYLAYER
100
AcDbLine
 10
295.0
 20
-167.5
 30
0.0
 11
295.0
 21
-172.5
 31
0.0
  0
LINE
  5
216
100
AcDbEntity
  8
0
 62
1
420
16711680
370
5
 48
1.0
  6
BYLAYER
100
AcDbLine
 10
318.0
 20
-167.5
 30
0.0
 11
318.0
 21
-172.5
 31
0.0
  0
LINE
  5
217
100
AcDbEntity
  8
0
 62
1
420
16711680
370
5
 48
1.0
  6
BYLAYER
100
AcDbLine
 10
341.0
 20
-167.5
 30
0.0
 11
341.0
 21
-172.5
 31
0.0
  0
LINE
  5
218
100
AcDbEntity
  8
0
 62
1
420
16711680
370
5
 48
1.0
  6
BYLAYER
100
AcDbLine
 10
364.0
 20
-167.5000000000001137
 30
0.0
 11
364.0
 21
-172.499999999999801
 31
0.0
  0
LINE
  5
219
100
AcDbEntity
  8
0
 62
1
420
16711680
370
5
 48
1.0
  6
BYLAYER
100
AcDbLine
 10
387.0
 20
-167.499999999999801
 30
0.0
 11
387.0
 21
-172.5000000000001137
 31
0.0
  0
LINE
  5
21A
100
AcDbEntity
  8
0
 62
1
420
16711680
370
5
 48
1.0
  6
BYLAYER
100
AcDbLine
 10
410.0
 20
-167.500000000000199
 30
0.0
 11
410.0
 21
-172.4999999999996874
 31
0.0
  0
LINE
  5
21B
100
AcDbEntity
  8
0
 62
1
420
16711680
370
5
 48
1.0
  6
BYLAYER
100
AcDbLine
 10
203.0
 20
-402.5
 30
0.0
 11
203.0
 21
-397.5
 31
0.0
  0
LINE
  5
21C
100
AcDbEntity
  8
0
 62
1
420
16711680
370
5
 48
1.0
  6
BYLAYER
100
AcDbLine
 10
226.0
 20
-402.5
 30
0.0
 11
226.0
 21
-397.5
 31
0.0
  0
LINE
  5
21D
100
AcDbEntity
  8
0
 62
1
420
16711680
370
5
 48
1.0
  6
BYLAYER
100
AcDbLine
 10
249.0
 20
-402.5
 30
0.0
 11
249.0
 21
-397.5
 31
0.0
  0
LINE
  5
21E
100
AcDbEntity
  8
0
 62
1
420
16711680
370
5
 48
1.0
  6
BYLAYER
100
AcDbLine
 10
272.0
 20
-402.5
 30
0.0
 11
272.0
 21
-397.5
 31
0.0
  0
LINE
  5
21F
100
AcDbEntity
  8
0
 62
1
420
16711680
370
5
 48
1.0
  6
BYLAYER
100
AcDbLine
 10
295.0
 20
-402.5
 30
0.0
 11
295.0
 21
-397.5
 31
0.0
  0
LINE
  5
220
100
AcDbEntity
  8
0
 62
1
420
16711680
370
5
 48
1.0
  6
BYLAYER
100
AcDbLine
 10
318.0
 20
-402.5
 30
0.0
 11
318.0
 21
-397.5
 31
0.0
  0
LINE
  5
221
100
AcDbEntity
  8
0
 62
1
420
16711680
370
5
 48
1.0
  6
BYLAYER
100
AcDbLine
 10
341.0
 20
-402.5
 30
0.0
 11
341.0
 21
-397.5
 31
0.0
  0
LINE
  5
222
100
AcDbEntity
  8
0
 62
1
420
16711680
370
5
 48
1.0
  6
BYLAYER
100
AcDbLine
 10
364.0
 20
-402.5
 30
0.0
 11
364.0
 21
-397.5
 31
0.0
  0
LINE
  5
223
100
AcDbEntity
  8
0
 62
1
420
16711680
370
5
 48
1.0
  6
BYLAYER
100
AcDbLine
 10
387.0
 20
-402.5
 30
0.0
 11
387.0
 21
-397.5
 31
0.0
  0
LINE
  5
224
100
AcDbEntity
  8
0
 62
1
420
16711680
370
5
 48
1.0
  6
BYLAYER
100
AcDbLine
 10
410.0
 20
-402.5
 30
0.0
 11
410.0
 21
-397.5
 31
0.0
  0
LINE
  5
225
100
AcDbEntity
  8
0
 62
1
420
16711680
370
5
 48
1.0
  6
BYLAYER
100
AcDbLine
 10
203.0
 20
-185.0
 30
0.0
 11
190.0
 21
-185.0
 31
0.0
  0
LINE
  5
226
100
AcDbEntity
  8
0
 62
1
420
16711680
370
5
 48
1.0
  6
BYLAYER
100
AcDbLine
 10
226.0
 20
-185.0
 30
0.0
 11
213.0
 21
-185.0
 31
0.0
  0
LINE
  5
227
100
AcDbEntity
  8
0
 62
1
420
16711680
370
5
 48
1.0
  6
BYLAYER
100
AcDbLine
 10
249.0
 20
-185.0
 30
0.0
 11
236.0
 21
-185.0
 31
0.0
  0
LINE
  5
228
100
AcDbEntity
  8
0
 62
1
420
16711680
370
5
 48
1.0
  6
BYLAYER
100
AcDbLine
 10
272.0
 20
-185.0
 30
0.0
 11
259.0
 21
-185.0
 31
0.0
  0
LINE
  5
229
100
AcDbEntity
  8
0
 62
1
420
16711680
370
5
 48
1.0
  6
BYLAYER
100
AcDbLine
 10
295.0
 20
-185.0
 30
0.0
 11
282.0
 21
-185.0
 31
0.0
  0
LINE
  5
22A
100
AcDbEntity
  8
0
 62
1
420
16711680
370
5
 48
1.0
  6
BYLAYER
100
AcDbLine
 10
318.0
 20
-185.0
 30
0.0
 11
305.0
 21
-185.0
 31
0.0
  0
LINE
  5
22B
100
AcDbEntity
  8
0
 62
1
420
16711680
370
5
 48
1.0
  6
BYLAYER
100
AcDbLine
 10
341.0
 20
-185.0
 30
0.0
 11
328.0
 21
-185.0
 31
0.0
  0
LINE
  5
22C
100
AcDbEntity
  8
0
 62
1
420
16711680
370
5
 48
1.0
  6
BYLAYER
100
AcDbLine
 10
364.0
 20
-185.0
 30
0.0
 11
351.0
 21
-185.0
 31
0.0
  0
LINE
  5
22D
100
AcDbEntity
  8
0
 62
1
420
16711680
370
5
 48
1.0
  6
BYLAYER
100
AcDbLine
 10
387.0
 20
-185.0
 30
0.0
 11
374.0
 21
-185.0
 31
0.0
  0
LINE
  5
22E
100
AcDbEntity
  8
0
 62
1
420
16711680
370
5
 48
1.0
  6
BYLAYER
100
AcDbLine
 10
410.0
 20
-185.0
 30
0.0
 11
397.0
 21
-185.0
 31
0.0
  0
LINE
  5
22F
100
AcDbEntity
  8
0
 62
1
420
16711680
370
5
 48
1.0
  6
BYLAYER
100
AcDbLine
 10
203.0
 20
-200.0
 30
0.0
 11
190.0
 21
-200.0
 31
0.0
  0
LINE
  5
230
100
AcDbEntity
  8
0
 62
1
420
16711680
370
5
 48
1.0
  6
BYLAYER
100
AcDbLine
 10
226.0
 20
-200.0
 30
0.0
 11
213.0
 21
-200.0
 31
0.0
  0
LINE
  5
231
100
AcDbEntity
  8
0
 62
1
420
16711680
370
5
 48
1.0
  6
BYLAYER
100
AcDbLine
 10
249.0
 20
-200.0
 30
0.0
 11
236.0
 21
-200.0
 31
0.0
  0
LINE
  5
232
100
AcDbEntity
  8
0
 62
1
420
16711680
370
5
 48
1.0
  6
BYLAYER
100
AcDbLine
 10
272.0
 20
-200.0
 30
0.0
 11
259.0
 21
-200.0
 31
0.0
  0
LINE
  5
233
100
AcDbEntity
  8
0
 62
1
420
16711680
370
5
 48
1.0
  6
BYLAYER
100
AcDbLine
 10
295.0
 20
-200.0
 30
0.0
 11
282.0
 21
-200.0
 31
0.0
  0
LINE
  5
234
100
AcDbEntity
  8
0
 62
1
420
16711680
370
5
 48
1.0
  6
BYLAYER
100
AcDbLine
 10
318.0
 20
-200.0
 30
0.0
 11
305.0
 21
-200.0
 31
0.0
  0
LINE
  5
235
100
AcDbEntity
  8
0
 62
1
420
16711680
370
5
 48
1.0
  6
BYLAYER
100
AcDbLine
 10
341.0
 20
-200.0
 30
0.0
 11
328.0
 21
-200.0
 31
0.0
  0
LINE
  5
236
100
AcDbEntity
  8
0
 62
1
420
16711680
370
5
 48
1.0
  6
BYLAYER
100
AcDbLine
 10
364.0
 20
-200.0
 30
0.0
 11
351.0
 21
-200.0
 31
0.0
  0
LINE
  5
237
100
AcDbEntity
  8
0
 62
1
420
16711680
370
5
 48
1.0
  6
BYLAYER
100
AcDbLine
 10
387.0
 20
-200.0
 30
0.0
 11
374.0
 21
-200.0
 31
0.0
  0
LINE
  5
238
100
AcDbEntity
  8
0
 62
1
420
16711680
370
5
 48
1.0
  6
BYLAYER
100
AcDbLine
 10
410.0
 20
-200.0
 30
0.0
 11
397.0
 21
-200.0
 31
0.0
  0
LINE
  5
239
100
AcDbEntity
  8
0
 62
1
420
16711680
370
5
 48
1.0
  6
BYLAYER
100
AcDbLine
 10
203.0
 20
-172.499999999999801
 30
0.0
 11
190.0
 21
-172.4999999999996874
 31
0.0
  0
LINE
  5
23A
100
AcDbEntity
  8
0
 62
1
420
16711680
370
5
 48
1.0
  6
BYLAYER
100
AcDbLine
 10
226.0
 20
-172.5000000000003126
 30
0.0
 11
213.0
 21
-172.500000000000199
 31
0.0
  0
LINE
  5
23B
100
AcDbEntity
  8
0
 62
1
420
16711680
370
5
 48
1.0
  6
BYLAYER
100
AcDbLine
 10
249.0
 20
-172.4999999999998863
 30
0.0
 11
236.0
 21
-172.499999999999801
 31
0.0
  0
LINE
  5
23C
100
AcDbEntity
  8
0
 62
1
420
16711680
370
5
 48
1.0
  6
BYLAYER
100
AcDbLine
 10
272.0
 20
-172.4999999999998863
 30
0.0
 11
259.0
 21
-172.4999999999998863
 31
0.0
  0
LINE
  5
23D
100
AcDbEntity
  8
0
 62
1
420
16711680
370
5
 48
1.0
  6
BYLAYER
100
AcDbLine
 10
295.0
 20
-172.5
 30
0.0
 11
282.0
 21
-172.4999999999998863
 31
0.0
  0
LINE
  5
23E
100
AcDbEntity
  8
0
 62
1
420
16711680
370
5
 48
1.0
  6
BYLAYER
100
AcDbLine
 10
318.0
 20
-172.5
 30
0.0
 11
305.0
 21
-172.5
 31
0.0
  0
LINE
  5
23F
100
AcDbEntity
  8
0
 62
1
420
16711680
370
5
 48
1.0
  6
BYLAYER
100
AcDbLine
 10
341.0
 20
-172.5
 30
0.0
 11
328.0
 21
-172.4999999999998863
 31
0.0
  0
LINE
  5
240
100
AcDbEntity
  8
0
 62
1
420
16711680
370
5
 48
1.0
  6
BYLAYER
100
AcDbLine
 10
364.0
 20
-172.499999999999801
 30
0.0
 11
351.0
 21
-172.4999999999998863
 31
0.0
  0
LINE
  5
241
100
AcDbEntity
  8
0
 62
1
420
16711680
370
5
 48
1.0
  6
BYLAYER
100
AcDbLine
 10
387.0
 20
-172.5000000000001137
 30
0.0
 11
374.0
 21
-172.5000000000003126
 31
0.0
  0
LINE
  5
242
100
AcDbEntity
  8
0
 62
1
420
16711680
370
5
 48
1.0
  6
BYLAYER
100
AcDbLine
 10
410.0
 20
-172.4999999999996874
 30
0.0
 11
397.0
 21
-172.499999999999801
 31
0.0
  0
LINE
  5
243
100
AcDbEntity
  8
0
 62
1
420
16711680
370
5
 48
1.0
  6
BYLAYER
100
AcDbLine
 10
203.0
 20
-397.5
 30
0.0
 11
190.0
 21
-397.5
 31
0.0
  0
LINE
  5
244
100
AcDbEntity
  8
0
 62
1
420
16711680
370
5
 48
1.0
  6
BYLAYER
100
AcDbLine
 10
226.0
 20
-397.5
 30
0.0
 11
213.0
 21
-397.5
 31
0.0
  0
LINE
  5
245
100
AcDbEntity
  8
0
 62
1
420
16711680
370
5
 48
1.0
  6
BYLAYER
100
AcDbLine
 10
249.0
 20
-397.5
 30
0.0
 11
236.0
 21
-397.5
 31
0.0
  0
LINE
  5
246
100
AcDbEntity
  8
0
 62
1
420
16711680
370
5
 48
1.0
  6
BYLAYER
100
AcDbLine
 10
272.0
 20
-397.5
 30
0.0
 11
259.0
 21
-397.5
 31
0.0
  0
LINE
  5
247
100
AcDbEntity
  8
0
 62
1
420
16711680
370
5
 48
1.0
  6
BYLAYER
100
AcDbLine
 10
295.0
 20
-397.5
 30
0.0
 11
282.0
 21
-397.5
 31
0.0
  0
LINE
  5
248
100
AcDbEntity
  8
0
 62
1
420
16711680
370
5
 48
1.0
  6
BYLAYER
100
AcDbLine
 10
318.0
 20
-397.5
 30
0.0
 11
305.0
 21
-397.5
 31
0.0
  0
LINE
  5
249
100
AcDbEntity
  8
0
 62
1
420
16711680
370
5
 48
1.0
  6
BYLAYER
100
AcDbLine
 10
341.0
 20
-397.5
 30
0.0
 11
328.0
 21
-397.5
 31
0.0
  0
LINE
  5
24A
100
AcDbEntity
  8
0
 62
1
420
16711680
370
5
 48
1.0
  6
BYLAYER
100
AcDbLine
 10
364.0
 20
-397.5
 30
0.0
 11
351.0
 21
-397.5
 31
0.0
  0
LINE
  5
24B
100
AcDbEntity
  8
0
 62
1
420
16711680
370
5
 48
1.0
  6
BYLAYER
100
AcDbLine
 10
387.0
 20
-397.5
 30
0.0
 11
374.0
 21
-397.5
 31
0.0
  0
LINE
  5
24C
100
AcDbEntity
  8
0
 62
1
420
16711680
370
5
 48
1.0
  6
BYLAYER
100
AcDbLine
 10
410.0
 20
-397.5
 30
0.0
 11
397.0
 21
-397.5
 31
0.0
  0
LINE
  5
24D
100
AcDbEntity
  8
0
 62
1
420
16711680
370
5
 48
1.0
  6
BYLAYER
100
AcDbLine
 10
190.0
 20
-185.0
 30
0.0
 11
190.0
 21
-190.0
 31
0.0
  0
LINE
  5
24E
100
AcDbEntity
  8
0
 62
1
420
16711680
370
5
 48
1.0
  6
BYLAYER
100
AcDbLine
 10
213.0
 20
-185.0
 30
0.0
 11
213.0
 21
-190.0
 31
0.0
  0
LINE
  5
24F
100
AcDbEntity
  8
0
 62
1
420
16711680
370
5
 48
1.0
  6
BYLAYER
100
AcDbLine
 10
236.0
 20
-185.0
 30
0.0
 11
236.0
 21
-190.0
 31
0.0
  0
LINE
  5
250
100
AcDbEntity
  8
0
 62
1
420
16711680
370
5
 48
1.0
  6
BYLAYER
100
AcDbLine
 10
259.0
 20
-185.0
 30
0.0
 11
259.0
 21
-190.0
 31
0.0
  0
LINE
  5
251
100
AcDbEntity
  8
0
 62
1
420
16711680
370
5
 48
1.0
  6
BYLAYER
100
AcDbLine
 10
282.0
 20
-185.0
 30
0.0
 11
282.0
 21
-190.0
 31
0.0
  0
LINE
  5
252
100
AcDbEntity
  8
0
 62
1
420
16711680
370
5
 48
1.0
  6
BYLAYER
100
AcDbLine
 10
305.0
 20
-185.0
 30
0.0
 11
305.0
 21
-190.0
 31
0.0
  0
LINE
  5
253
100
AcDbEntity
  8
0
 62
1
420
16711680
370
5
 48
1.0
  6
BYLAYER
100
AcDbLine
 10
328.0
 20
-185.0
 30
0.0
 11
328.0
 21
-190.0
 31
0.0
  0
LINE
  5
254
100
AcDbEntity
  8
0
 62
1
420
16711680
370
5
 48
1.0
  6
BYLAYER
100
AcDbLine
 10
351.0
 20
-185.0
 30
0.0
 11
351.0
 21
-190.0
 31
0.0
  0
LINE
  5
255
100
AcDbEntity
  8
0
 62
1
420
16711680
370
5
 48
1.0
  6
BYLAYER
100
AcDbLine
 10
374.0
 20
-185.0
 30
0.0
 11
374.0
 21
-190.0
 31
0.0
  0
LINE
  5
256
100
AcDbEntity
  8
0
 62
1
420
16711680
370
5
 48
1.0
  6
BYLAYER
100
AcDbLine
 10
397.0
 20
-185.0
 30
0.0
 11
397.0
 21
-190.0
 31
0.0
  0
LINE
  5
257
100
AcDbEntity
  8
0
 62
1
420
16711680
370
5
 48
1.0
  6
BYLAYER
100
AcDbLine
 10
190.0
 20
-200.0
 30
0.0
 11
190.0
 21
-205.0
 31
0.0
  0
LINE
  5
258
100
AcDbEntity
  8
0
 62
1
420
16711680
370
5
 48
1.0
  6
BYLAYER
100
AcDbLine
 10
213.0
 20
-200.0
 30
0.0
 11
213.0
 21
-205.0
 31
0.0
  0
LINE
  5
259
100
AcDbEntity
  8
0
 62
1
420
16711680
370
5
 48
1.0
  6
BYLAYER
100
AcDbLine
 10
236.0
 20
-200.0
 30
0.0
 11
236.0
 21
-205.0
 31
0.0
  0
LINE
  5
25A
100
AcDbEntity
  8
0
 62
1
420
16711680
370
5
 48
1.0
  6
BYLAYER
100
AcDbLine
 10
259.0
 20
-200.0
 30
0.0
 11
259.0
 21
-205.0
 31
0.0
  0
LINE
  5
25B
100
AcDbEntity
  8
0
 62
1
420
16711680
370
5
 48
1.0
  6
BYLAYER
100
AcDbLine
 10
282.0
 20
-200.0
 30
0.0
 11
282.0
 21
-205.0
 31
0.0
  0
LINE
  5
25C
100
AcDbEntity
  8
0
 62
1
420
16711680
370
5
 48
1.0
  6
BYLAYER
100
AcDbLine
 10
305.0
 20
-200.0
 30
0.0
 11
305.0
 21
-205.0
 31
0.0
  0
LINE
  5
25D
100
AcDbEntity
  8
0
 62
1
420
16711680
370
5
 48
1.0
  6
BYLAYER
100
AcDbLine
 10
328.0
 20
-200.0
 30
0.0
 11
328.0
 21
-205.0
 31
0.0
  0
LINE
  5
25E
100
AcDbEntity
  8
0
 62
1
420
16711680
370
5
 48
1.0
  6
BYLAYER
100
AcDbLine
 10
351.0
 20
-200.0
 30
0.0
 11
351.0
 21
-205.0
 31
0.0
  0
LINE
  5
25F
100
AcDbEntity
  8
0
 62
1
420
16711680
370
5
 48
1.0
  6
BYLAYER
100
AcDbLine
 10
374.0
 20
-200.0
 30
0.0
 11
374.0
 21
-205.0
 31
0.0
  0
LINE
  5
260
100
AcDbEntity
  8
0
 62
1
420
16711680
370
5
 48
1.0
  6
BYLAYER
100
AcDbLine
 10
397.0
 20
-200.0
 30
0.0
 11
397.0
 21
-205.0
 31
0.0
  0
LINE
  5
261
100
AcDbEntity
  8
0
 62
1
420
16711680
370
5
 48
1.0
  6
BYLAYER
100
AcDbLine
 10
190.0
 20
-172.4999999999996874
 30
0.0
 11
190.0
 21
-167.5000000000003126
 31
0.0
  0
LINE
  5
262
100
AcDbEntity
  8
0
 62
1
420
16711680
370
5
 48
1.0
  6
BYLAYER
100
AcDbLine
 10
213.0
 20
-172.500000000000199
 30
0.0
 11
213.0
 21
-167.499999999999801
 31
0.0
  0
LINE
  5
263
100
AcDbEntity
  8
0
 62
1
420
16711680
370
5
 48
1.0
  6
BYLAYER
100
AcDbLine
 10
236.0
 20
-172.499999999999801
 30
0.0
 11
236.0
 21
-167.5000000000001137
 31
0.0
  0
LINE
  5
264
100
AcDbEntity
  8
0
 62
1
420
16711680
370
5
 48
1.0
  6
BYLAYER
100
AcDbLine
 10
259.0
 20
-172.4999999999998863
 30
0.0
 11
259.0
 21
-167.5
 31
0.0
  0
LINE
  5
265
100
AcDbEntity
  8
0
 62
1
420
16711680
370
5
 48
1.0
  6
BYLAYER
100
AcDbLine
 10
282.0
 20
-172.4999999999998863
 30
0.0
 11
282.0
 21
-167.5
 31
0.0
  0
LINE
  5
266
100
AcDbEntity
  8
0
 62
1
420
16711680
370
5
 48
1.0
  6
BYLAYER
100
AcDbLine
 10
305.0
 20
-172.5
 30
0.0
 11
305.0
 21
-167.5
 31
0.0
  0
LINE
  5
267
100
AcDbEntity
  8
0
 62
1
420
16711680
370
5
 48
1.0
  6
BYLAYER
100
AcDbLine
 10
328.0
 20
-172.4999999999998863
 30
0.0
 11
328.0
 21
-167.5
 31
0.0
  0
LINE
  5
268
100
AcDbEntity
  8
0
 62
1
420
16711680
370
5
 48
1.0
  6
BYLAYER
100
AcDbLine
 10
351.0
 20
-172.4999999999998863
 30
0.0
 11
351.0
 21
-167.5
 31
0.0
  0
LINE
  5
269
100
AcDbEntity
  8
0
 62
1
420
16711680
370
5
 48
1.0
  6
BYLAYER
100
AcDbLine
 10
374.0
 20
-172.5000000000003126
 30
0.0
 11
374.0
 21
-167.4999999999996874
 31
0.0
  0
LINE
  5
26A
100
AcDbEntity
  8
0
 62
1
420
16711680
370
5
 48
1.0
  6
BYLAYER
100
AcDbLine
 10
397.0
 20
-172.499999999999801
 30
0.0
 11
397.0
 21
-167.5000000000001137
 31
0.0
  0
LINE
  5
26B
100
AcDbEntity
  8
0
 62
1
420
16711680
370
5
 48
1.0
  6
BYLAYER
100
AcDbLine
 10
190.0
 20
-397.5
 30
0.0
 11
190.0
 21
-402.5
 31
0.0
  0
LINE
  5
26C
100
AcDbEntity
  8
0
 62
1
420
16711680
370
5
 48
1.0
  6
BYLAYER
100
AcDbLine
 10
213.0
 20
-397.5
 30
0.0
 11
213.0
 21
-402.5
 31
0.0
  0
LINE
  5
26D
100
AcDbEntity
  8
0
 62
1
420
16711680
370
5
 48
1.0
  6
BYLAYER
100
AcDbLine
 10
236.0
 20
-397.5
 30
0.0
 11
236.0
 21
-402.5
 31
0.0
  0
LINE
  5
26E
100
AcDbEntity
  8
0
 62
1
420
16711680
370
5
 48
1.0
  6
BYLAYER
100
AcDbLine
 10
259.0
 20
-397.5
 30
0.0
 11
259.0
 21
-402.5
 31
0.0
  0
LINE
  5
26F
100
AcDbEntity
  8
0
 62
1
420
16711680
370
5
 48
1.0
  6
BYLAYER
100
AcDbLine
 10
282.0
 20
-397.5
 30
0.0
 11
282.0
 21
-402.5
 31
0.0
  0
LINE
  5
270
100
AcDbEntity
  8
0
 62
1
420
16711680
370
5
 48
1.0
  6
BYLAYER
100
AcDbLine
 10
305.0
 20
-397.5
 30
0.0
 11
305.0
 21
-402.5
 31
0.0
  0
LINE
  5
271
100
AcDbEntity
  8
0
 62
1
420
16711680
370
5
 48
1.0
  6
BYLAYER
100
AcDbLine
 10
328.0
 20
-397.5
 30
0.0
 11
328.0
 21
-402.5
 31
0.0
  0
LINE
  5
272
100
AcDbEntity
  8
0
 62
1
420
16711680
370
5
 48
1.0
  6
BYLAYER
100
AcDbLine
 10
351.0
 20
-397.5
 30
0.0
 11
351.0
 21
-402.5
 31
0.0
  0
LINE
  5
273
100
AcDbEntity
  8
0
 62
1
420
16711680
370
5
 48
1.0
  6
BYLAYER
100
AcDbLine
 10
374.0
 20
-397.5
 30
0.0
 11
374.0
 21
-402.5
 31
0.0
  0
LINE
  5
274
100
AcDbEntity
  8
0
 62
1
420
16711680
370
5
 48
1.0
  6
BYLAYER
100
AcDbLine
 10
397.0
 20
-397.5
 30
0.0
 11
397.0
 21
-402.5
 31
0.0
  0
POINT
  5
275
100
AcDbEntity
  8
0
 62
1
420
16711680
370
5
 48
1.0
  6
BYLAYER
100
AcDbPoint
 10
213.0
 20
-190.0
 30
0.0
  0
POINT
  5
276
100
AcDbEntity
  8
0
 62
1
420
16711680
370
5
 48
1.0
  6
BYLAYER
100
AcDbPoint
 10
213.0
 20
-205.0
 30
0.0
  0
POINT
  5
277
100
AcDbEntity
  8
0
 62
1
420
16711680
370
5
 48
1.0
  6
BYLAYER
100
AcDbPoint
 10
213.0
 20
-167.499999999999801
 30
0.0
  0
POINT
  5
278
100
AcDbEntity
  8
0
 62
1
420
16711680
370
5
 48
1.0
  6
BYLAYER
100
AcDbPoint
 10
213.0
 20
-402.5
 30
0.0
  0
LINE
  5
279
100
AcDbEntity
  8
0
 62
1
420
16711680
370
5
 48
1.0
  6
BYLAYER
100
AcDbLine
 10
203.0
 20
-190.0
 30
0.0
 11
213.0
 21
-190.0
 31
0.0
  0
LINE
  5
27A
100
AcDbEntity
  8
0
 62
1
420
16711680
370
5
 48
1.0
  6
BYLAYER
100
AcDbLine
 10
203.0
 20
-205.0
 30
0.0
 11
213.0
 21
-205.0
 31
0.0
  0
LINE
  5
27B
100
AcDbEntity
  8
0
 62
1
420
16711680
370
5
 48
1.0
  6
BYLAYER
100
AcDbLine
 10
203.0
 20
-167.500000000000199
 30
0.0
 11
213.0
 21
-167.499999999999801
 31
0.0
  0
LINE
  5
27C
100
AcDbEntity
  8
0
 62
1
420
16711680
370
5
 48
1.0
  6
BYLAYER
100
AcDbLine
 10
203.0
 20
-402.5
 30
0.0
 11
213.0
 21
-402.5
 31
0.0
  0
LINE
  5
27D
100
AcDbEntity
  8
0
 62
1
420
16711680
370
5
 48
1.0
  6
BYLAYER
100
AcDbLine
 10
226.0
 20
-190.0
 30
0.0
 11
236.0
 21
-190.0
 31
0.0
  0
LINE
  5
27E
100
AcDbEntity
  8
0
 62
1
420
16711680
370
5
 48
1.0
  6
BYLAYER
100
AcDbLine
 10
226.0
 20
-205.0
 30
0.0
 11
236.0
 21
-205.0
 31
0.0
  0
LINE
  5
27F
100
AcDbEntity
  8
0
 62
1
420
16711680
370
5
 48
1.0
  6
BYLAYER
100
AcDbLine
 10
226.0
 20
-167.4999999999996874
 30
0.0
 11
236.0
 21
-167.5000000000001137
 31
0.0
  0
LINE
  5
280
100
AcDbEntity
  8
0
 62
1
420
16711680
370
5
 48
1.0
  6
BYLAYER
100
AcDbLine
 10
226.0
 20
-402.5
 30
0.0
 11
236.0
 21
-402.5
 31
0.0
  0
LINE
  5
281
100
AcDbEntity
  8
0
 62
1
420
16711680
370
5
 48
1.0
  6
BYLAYER
100
AcDbLine
 10
249.0
 20
-190.0
 30
0.0
 11
259.0
 21
-190.0
 31
0.0
  0
LINE
  5
282
100
AcDbEntity
  8
0
 62
1
420
16711680
370
5
 48
1.0
  6
BYLAYER
100
AcDbLine
 10
249.0
 20
-205.0
 30
0.0
 11
259.0
 21
-205.0
 31
0.0
  0
LINE
  5
283
100
AcDbEntity
  8
0
 62
1
420
16711680
370
5
 48
1.0
  6
BYLAYER
100
AcDbLine
 10
249.0
 20
-167.5
 30
0.0
 11
259.0
 21
-167.5
 31
0.0
  0
LINE
  5
284
100
AcDbEntity
  8
0
 62
1
420
16711680
370
5
 48
1.0
  6
BYLAYER
100
AcDbLine
 10
249.0
 20
-402.5
 30
0.0
 11
259.0
 21
-402.5
 31
0.0
  0
LINE
  5
285
100
AcDbEntity
  8
0
 62
1
420
16711680
370
5
 48
1.0
  6
BYLAYER
100
AcDbLine
 10
272.0
 20
-190.0
 30
0.0
 11
282.0
 21
-190.0
 31
0.0
  0
LINE
  5
286
100
AcDbEntity
  8
0
 62
1
420
16711680
370
5
 48
1.0
  6
BYLAYER
100
AcDbLine
 10
272.0
 20
-205.0
 30
0.0
 11
282.0
 21
-205.0
 31
0.0
  0
LINE
  5
287
100
AcDbEntity
  8
0
 62
1
420
16711680
370
5
 48
1.0
  6
BYLAYER
100
AcDbLine
 10
272.0
 20
-167.5
 30
0.0
 11
282.0
 21
-167.5
 31
0.0
  0
LINE
  5
288
100
AcDbEntity
  8
0
 62
1
420
16711680
370
5
 48
1.0
  6
BYLAYER
100
AcDbLine
 10
272.0
 20
-402.5
 30
0.0
 11
282.0
 21
-402.5
 31
0.0
  0
LINE
  5
289
100
AcDbEntity
  8
0
 62
1
420
16711680
370
5
 48
1.0
  6
BYLAYER
100
AcDbLine
 10
295.0
 20
-190.0
 30
0.0
 11
305.0
 21
-190.0
 31
0.0
  0
LINE
  5
28A
100
AcDbEntity
  8
0
 62
1
420
16711680
370
5
 48
1.0
  6
BYLAYER
100
AcDbLine
 10
295.0
 20
-205.0
 30
0.0
 11
305.0
 21
-205.0
 31
0.0
  0
LINE
  5
28B
100
AcDbEntity
  8
0
 62
1
420
16711680
370
5
 48
1.0
  6
BYLAYER
100
AcDbLine
 10
295.0
 20
-167.5
 30
0.0
 11
305.0
 21
-167.5
 31
0.0
  0
LINE
  5
28C
100
AcDbEntity
  8
0
 62
1
420
16711680
370
5
 48
1.0
  6
BYLAYER
100
AcDbLine
 10
295.0
 20
-402.5
 30
0.0
 11
305.0
 21
-402.5
 31
0.0
  0
LINE
  5
28D
100
AcDbEntity
  8
0
 62
1
420
16711680
370
5
 48
1.0
  6
BYLAYER
100
AcDbLine
 10
318.0
 20
-190.0
 30
0.0
 11
328.0
 21
-190.0
 31
0.0
  0
LINE
  5
28E
100
AcDbEntity
  8
0
 62
1
420
16711680
370
5
 48
1.0
  6
BYLAYER
100
AcDbLine
 10
318.0
 20
-205.0
 30
0.0
 11
328.0
 21
-205.0
 31
0.0
  0
LINE
  5
28F
100
AcDbEntity
  8
0
 62
1
420
16711680
370
5
 48
1.0
  6
BYLAYER
100
AcDbLine
 10
318.0
 20
-167.5
 30
0.0
 11
328.0
 21
-167.5
 31
0.0
  0
LINE
  5
290
100
AcDbEntity
  8
0
 62
1
420
16711680
370
5
 48
1.0
  6
BYLAYER
100
AcDbLine
 10
318.0
 20
-402.5
 30
0.0
 11
328.0
 21
-402.5
 31
0.0
  0
LINE
  5
291
100
AcDbEntity
  8
0
 62
1
420
16711680
370
5
 48
1.0
  6
BYLAYER
100
AcDbLine
 10
341.0
 20
-190.0
 30
0.0
 11
351.0
 21
-190.0
 31
0.0
  0
LINE
  5
292
100
AcDbEntity
  8
0
 62
1
420
16711680
370
5
 48
1.0
  6
BYLAYER
100
AcDbLine
 10
341.0
 20
-205.0
 30
0.0
 11
351.0
 21
-205.0
 31
0.0
  0
LINE
  5
293
100
AcDbEntity
  8
0
 62
1
420
16711680
370
5
 48
1.0
  6
BYLAYER
100
AcDbLine
 10
341.0
 20
-167.5
 30
0.0
 11
351.0
 21
-167.5
 31
0.0
  0
LINE
  5
294
100
AcDbEntity
  8
0
 62
1
420
16711680
370
5
 48
1.0
  6
BYLAYER
100
AcDbLine
 10
341.0
 20
-402.5
 30
0.0
 11
351.0
 21
-402.5
 31
0.0
  0
LINE
  5
295
100
AcDbEntity
  8
0
 62
1
420
16711680
370
5
 48
1.0
  6
BYLAYER
100
AcDbLine
 10
364.0
 20
-190.0
 30
0.0
 11
374.0
 21
-190.0
 31
0.0
  0
LINE
  5
296
100
AcDbEntity
  8
0
 62
1
420
16711680
370
5
 48
1.0
  6
BYLAYER
100
AcDbLine
 10
364.0
 20
-205.0
 30
0.0
 11
374.0
 21
-205.0
 31
0.0
  0
LINE
  5
297
100
AcDbEntity
  8
0
 62
1
420
16711680
370
5
 48
1.0
  6
BYLAYER
100
AcDbLine
 10
364.0
 20
-167.5000000000001137
 30
0.0
 11
374.0
 21
-167.4999999999996874
 31
0.0
  0
LINE
  5
298
100
AcDbEntity
  8
0
 62
1
420
16711680
370
5
 48
1.0
  6
BYLAYER
100
AcDbLine
 10
364.0
 20
-402.5
 30
0.0
 11
374.0
 21
-402.5
 31
0.0
  0
LINE
  5
299
100
AcDbEntity
  8
0
 62
1
420
16711680
370
5
 48
1.0
  6
BYLAYER
100
AcDbLine
 10
387.0
 20
-190.0
 30
0.0
 11
397.0
 21
-190.0
 31
0.0
  0
LINE
  5
29A
100
AcDbEntity
  8
0
 62
1
420
16711680
370
5
 48
1.0
  6
BYLAYER
100
AcDbLine
 10
387.0
 20
-205.0
 30
0.0
 11
397.0
 21
-205.0
 31
0.0
  0
LINE
  5
29B
100
AcDbEntity
  8
0
 62
1
420
16711680
370
5
 48
1.0
  6
BYLAYER
100
AcDbLine
 10
387.0
 20
-167.499999999999801
 30
0.0
 11
397.0
 21
-167.5000000000001137
 31
0.0
  0
LINE
  5
29C
100
AcDbEntity
  8
0
 62
1
420
16711680
370
5
 48
1.0
  6
BYLAYER
100
AcDbLine
 10
387.0
 20
-402.5
 30
0.0
 11
397.0
 21
-402.5
 31
0.0
  0
LINE
  5
29D
100
AcDbEntity
  8
0
 62
1
420
16711680
370
5
 48
1.0
  6
BYLAYER
100
AcDbLine
 10
470.0
 20
-220.0
 30
0.0
 11
472.0
 21
-220.0
 31
0.0
  0
LINE
  5
29E
100
AcDbEntity
  8
0
 62
1
420
16711680
370
5
 48
1.0
  6
BYLAYER
100
AcDbLine
 10
470.0
 20
-255.0
 30
0.0
 11
472.0
 21
-255.0
 31
0.0
  0
LINE
  5
29F
100
AcDbEntity
  8
0
 62
1
420
16711680
370
5
 48
1.0
  6
BYLAYER
100
AcDbLine
 10
168.0
 20
-240.0
 30
0.0
 11
170.0
 21
-240.0
 31
0.0
  0
LINE
  5
2A0
100
AcDbEntity
  8
0
 62
1
420
16711680
370
5
 48
1.0
  6
BYLAYER
100
AcDbLine
 10
168.0
 20
-275.0
 30
0.0
 11
170.0
 21
-275.0
 31
0.0
  0
LINE
  5
2A1
100
AcDbEntity
  8
0
 62
1
420
16711680
370
5
 48
1.0
  6
BYLAYER
100
AcDbLine
 10
168.0
 20
-437.5
 30
0.0
 11
170.0
 21
-437.5
 31
0.0
  0
LINE
  5
2A2
100
AcDbEntity
  8
0
 62
1
420
16711680
370
5
 48
1.0
  6
BYLAYER
100
AcDbLine
 10
168.0
 20
-472.5
 30
0.0
 11
170.0
 21
-472.5
 31
0.0
  0
LINE
  5
2A3
100
AcDbEntity
  8
0
 62
1
420
16711680
370
5
 48
1.0
  6
BYLAYER
100
AcDbLine
 10
472.0
 20
-220.0
 30
0.0
 11
472.0
 21
-190.0
 31
0.0
  0
LINE
  5
2A4
100
AcDbEntity
  8
0
 62
1
420
16711680
370
5
 48
1.0
  6
BYLAYER
100
AcDbLine
 10
472.0
 20
-255.0
 30
0.0
 11
472.0
 21
-225.0
 31
0.0
  0
LINE
  5
2A5
100
AcDbEntity
  8
0
 62
1
420
16711680
370
5
 48
1.0
  6
BYLAYER
100
AcDbLine
 10
170.0
 20
-240.0
 30
0.0
 11
170.0
 21
-210.0
 31
0.0
  0
LINE
  5
2A6
100
AcDbEntity
  8
0
 62
1
420
16711680
370
5
 48
1.0
  6
BYLAYER
100
AcDbLine
 10
170.0
 20
-275.0
 30
0.0
 11
170.0
 21
-245.0
 31
0.0
  0
LINE
  5
2A7
100
AcDbEntity
  8
0
 62
1
420
16711680
370
5
 48
1.0
  6
BYLAYER
100
AcDbLine
 10
170.0
 20
-437.5
 30
0.0
 11
170.0
 21
-407.5
 31
0.0
  0
LINE
  5
2A8
100
AcDbEntity
  8
0
 62
1
420
16711680
370
5
 48
1.0
  6
BYLAYER
100
AcDbLine
 10
170.0
 20
-472.5
 30
0.0
 11
170.0
 21
-442.4999999999998863
 31
0.0
  0
LINE
  5
2A9
100
AcDbEntity
  8
0
 62
1
420
16711680
370
5
 48
1.0
  6
BYLAYER
100
AcDbLine
 10
472.0
 20
-190.0
 30
0.0
 11
470.0
 21
-190.0
 31
0.0
  0
LINE
  5
2AA
100
AcDbEntity
  8
0
 62
1
420
16711680
370
5
 48
1.0
  6
BYLAYER
100
AcDbLine
 10
472.0
 20
-225.0
 30
0.0
 11
470.0
 21
-225.0
 31
0.0
  0
LINE
  5
2AB
100
AcDbEntity
  8
0
 62
1
420
16711680
370
5
 48
1.0
  6
BYLAYER
100
AcDbLine
 10
170.0
 20
-210.0
 30
0.0
 11
168.0
 21
-210.0
 31
0.0
  0
LINE
  5
2AC
100
AcDbEntity
  8
0
 62
1
420
16711680
370
5
 48
1.0
  6
BYLAYER
100
AcDbLine
 10
170.0
 20
-245.0
 30
0.0
 11
168.0
 21
-245.0
 31
0.0
  0
LINE
  5
2AD
100
AcDbEntity
  8
0
 62
1
420
16711680
370
5
 48
1.0
  6
BYLAYER
100
AcDbLine
 10
170.0
 20
-407.5
 30
0.0
 11
168.0
 21
-407.5
 31
0.0
  0
LINE
  5
2AE
100
AcDbEntity
  8
0
 62
1
420
16711680
370
5
 48
1.0
  6
BYLAYER
100
AcDbLine
 10
170.0
 20
-442.4999999999998863
 30
0.0
 11
168.0
 21
-442.4999999999998863
 31
0.0
  0
LINE
  5
2AF
100
AcDbEntity
  8
0
 62
1
420
16711680
370
5
 48
1.0
  6
BYLAYER
100
AcDbLine
 10
470.0
 20
-190.0
 30
0.0
 11
470.0
 21
-220.0
 31
0.0
  0
LINE
  5
2B0
100
AcDbEntity
  8
0
 62
1
420
16711680
370
5
 48
1.0
  6
BYLAYER
100
AcDbLine
 10
470.0
 20
-225.0
 30
0.0
 11
470.0
 21
-255.0
 31
0.0
  0
LINE
  5
2B1
100
AcDbEntity
  8
0
 62
1
420
16711680
370
5
 48
1.0
  6
BYLAYER
100
AcDbLine
 10
168.0
 20
-210.0
 30
0.0
 11
168.0
 21
-240.0
 31
0.0
  0
LINE
  5
2B2
100
AcDbEntity
  8
0
 62
1
420
16711680
370
5
 48
1.0
  6
BYLAYER
100
AcDbLine
 10
168.0
 20
-245.0
 30
0.0
 11
168.0
 21
-275.0
 31
0.0
  0
LINE
  5
2B3
100
AcDbEntity
  8
0
 62
1
420
16711680
370
5
 48
1.0
  6
BYLAYER
100
AcDbLine
 10
168.0
 20
-407.5
 30
0.0
 11
168.0
 21
-437.5
 31
0.0
  0
LINE
  5
2B4
100
AcDbEntity
  8
0
 62
1
420
16711680
370
5
 48
1.0
  6
BYLAYER
100
AcDbLine
 10
168.0
 20
-442.4999999999998863
 30
0.0
 11
168.0
 21
-472.5
 31
0.0
  0
POINT
  5
2B5
100
AcDbEntity
  8
0
 62
1
420
16711680
370
5
 48
1.0
  6
BYLAYER
100
AcDbPoint
 10
470.0
 20
-225.0
 30
0.0
  0
POINT
  5
2B6
100
AcDbEntity
  8
0
 62
1
420
16711680
370
5
 48
1.0
  6
BYLAYER
100
AcDbPoint
 10
168.0
 20
-245.0
 30
0.0
  0
POINT
  5
2B7
100
AcDbEntity
  8
0
 62
1
420
16711680
370
5
 48
1.0
  6
BYLAYER
100
AcDbPoint
 10
168.0
 20
-442.4999999999998863
 30
0.0
  0
LINE
  5
2B8
100
AcDbEntity
  8
0
 62
1
420
16711680
370
5
 48
1.0
  6
BYLAYER
100
AcDbLine
 10
209.5368618651621944
 20
-374.2640463257192209
 30
0.0
 11
389.5368618651622228
 21
-374.2640463257192209
 31
0.0
  0
LINE
  5
2B9
100
AcDbEntity
  8
0
 62
1
420
16711680
370
5
 48
1.0
  6
BYLAYER
100
AcDbLine
 10
389.5368618651622228
 20
-299.2640463257192209
 30
0.0
 11
209.5368618651621944
 21
-299.2640463257192209
 31
0.0
  0
LINE
  5
2BA
100
AcDbEntity
  8
0
 62
1
420
16711680
370
5
 48
1.0
  6
BYLAYER
100
AcDbLine
 10
180.0
 20
-330.0
 30
0.0
 11
184.578000000000003
 21
-330.0
 31
0.0
  0
LINE
  5
2BB
100
AcDbEntity
  8
0
 62
1
420
16711680
370
5
 48
1.0
  6
BYLAYER
100
AcDbLine
 10
180.0
 20
-365.0
 30
0.0
 11
184.578000000000003
 21
-365.0
 31
0.0
  0
LINE
  5
2BC
100
AcDbEntity
  8
0
 62
1
420
16711680
370
5
 48
1.0
  6
BYLAYER
100
AcDbLine
 10
204.9588618651621914
 20
-334.2640463257191072
 30
0.0
 11
209.5368618651621944
 21
-334.2640463257191072
 31
0.0
  0
LINE
  5
2BD
100
AcDbEntity
  8
0
 62
1
420
16711680
370
5
 48
1.0
  6
BYLAYER
100
AcDbLine
 10
204.9588618651621914
 20
-369.2640463257192209
 30
0.0
 11
209.5368618651621944
 21
-369.2640463257192209
 31
0.0
  0
LINE
  5
2BE
100
AcDbEntity
  8
0
 62
1
420
16711680
370
5
 48
1.0
  6
BYLAYER
100
AcDbLine
 10
394.1148618651621973
 20
-334.2640463257191072
 30
0.0
 11
389.5368618651622228
 21
-334.2640463257191072
 31
0.0
  0
LINE
  5
2BF
100
AcDbEntity
  8
0
 62
1
420
16711680
370
5
 48
1.0
  6
BYLAYER
100
AcDbLine
 10
394.1148618651621973
 20
-369.2640463257192209
 30
0.0
 11
389.5368618651622228
 21
-369.2640463257192209
 31
0.0
  0
LINE
  5
2C0
100
AcDbEntity
  8
0
 62
1
420
16711680
370
5
 48
1.0
  6
BYLAYER
100
AcDbLine
 10
184.578000000000003
 20
-300.0
 30
0.0
 11
180.0
 21
-300.0
 31
0.0
  0
LINE
  5
2C1
100
AcDbEntity
  8
0
 62
1
420
16711680
370
5
 48
1.0
  6
BYLAYER
100
AcDbLine
 10
184.578000000000003
 20
-335.0
 30
0.0
 11
180.0
 21
-335.0
 31
0.0
  0
LINE
  5
2C2
100
AcDbEntity
  8
0
 62
1
420
16711680
370
5
 48
1.0
  6
BYLAYER
100
AcDbLine
 10
209.5368618651621944
 20
-304.2640463257192209
 30
0.0
 11
204.9588618651621914
 21
-304.2640463257192209
 31
0.0
  0
LINE
  5
2C3
100
AcDbEntity
  8
0
 62
1
420
16711680
370
5
 48
1.0
  6
BYLAYER
100
AcDbLine
 10
209.5368618651621944
 20
-339.2640463257192209
 30
0.0
 11
204.9588618651621914
 21
-339.2640463257192209
 31
0.0
  0
LINE
  5
2C4
100
AcDbEntity
  8
0
 62
1
420
16711680
370
5
 48
1.0
  6
BYLAYER
100
AcDbLine
 10
389.5368618651622228
 20
-304.2640463257192209
 30
0.0
 11
394.1148618651621973
 21
-304.2640463257192209
 31
0.0
  0
LINE
  5
2C5
100
AcDbEntity
  8
0
 62
1
420
16711680
370
5
 48
1.0
  6
BYLAYER
100
AcDbLine
 10
389.5368618651622228
 20
-339.2640463257192209
 30
0.0
 11
394.1148618651621973
 21
-339.2640463257192209
 31
0.0
  0
LINE
  5
2C6
100
AcDbEntity
  8
0
 62
1
420
16711680
370
5
 48
1.0
  6
BYLAYER
100
AcDbLine
 10
180.0
 20
-300.0
 30
0.0
 11
180.0
 21
-330.0
 31
0.0
  0
LINE
  5
2C7
100
AcDbEntity
  8
0
 62
1
420
16711680
370
5
 48
1.0
  6
BYLAYER
100
AcDbLine
 10
180.0
 20
-335.0
 30
0.0
 11
180.0
 21
-365.0
 31
0.0
  0
LINE
  5
2C8
100
AcDbEntity
  8
0
 62
1
420
16711680
370
5
 48
1.0
  6
BYLAYER
100
AcDbLine
 10
204.9588618651621914
 20
-304.2640463257192209
 30
0.0
 11
204.9588618651621914
 21
-334.2640463257191072
 31
0.0
  0
LINE
  5
2C9
100
AcDbEntity
  8
0
 62
1
420
16711680
370
5
 48
1.0
  6
BYLAYER
100
AcDbLine
 10
204.9588618651621914
 20
-339.2640463257192209
 30
0.0
 11
204.9588618651621914
 21
-369.2640463257192209
 31
0.0
  0
LINE
  5
2CA
100
AcDbEntity
  8
0
 62
1
420
16711680
370
5
 48
1.0
  6
BYLAYER
100
AcDbLine
 10
394.1148618651621973
 20
-304.2640463257192209
 30
0.0
 11
394.1148618651621973
 21
-334.2640463257191072
 31
0.0
  0
LINE
  5
2CB
100
AcDbEntity
  8
0
 62
1
420
16711680
370
5
 48
1.0
  6
BYLAYER
100
AcDbLine
 10
394.1148618651621973
 20
-339.2640463257192209
 30
0.0
 11
394.1148618651621973
 21
-369.2640463257192209
 31
0.0
  0
LINE
  5
2CC
100
AcDbEntity
  8
0
 62
1
420
16711680
370
5
 48
1.0
  6
BYLAYER
100
AcDbLine
 10
184.578000000000003
 20
-330.0
 30
0.0
 11
184.578000000000003
 21
-335.0
 31
0.0
  0
LINE
  5
2CD
100
AcDbEntity
  8
0
 62
1
420
16711680
370
5
 48
1.0
  6
BYLAYER
100
AcDbLine
 10
209.5368618651621944
 20
-334.2640463257191072
 30
0.0
 11
209.5368618651621944
 21
-339.2640463257192209
 31
0.0
  0
LINE
  5
2CE
100
AcDbEntity
  8
0
 62
1
420
16711680
370
5
 48
1.0
  6
BYLAYER
100
AcDbLine
 10
389.5368618651622228
 20
-334.2640463257191072
 30
0.0
 11
389.5368618651622228
 21
-339.2640463257192209
 31
0.0
  0
LINE
  5
2CF
100
AcDbEntity
  8
0
 62
1
420
16711680
370
5
 48
1.0
  6
BYLAYER
100
AcDbLine
 10
184.578000000000003
 20
-300.0
 30
0.0
 11
184.578000000000003
 21
-295.0
 31
0.0
  0
LINE
  5
2D0
100
AcDbEntity
  8
0
 62
1
420
16711680
370
5
 48
1.0
  6
BYLAYER
100
AcDbLine
 10
209.5368618651621944
 20
-304.2640463257192209
 30
0.0
 11
209.5368618651621944
 21
-299.2640463257192209
 31
0.0
  0
LINE
  5
2D1
100
AcDbEntity
  8
0
 62
1
420
16711680
370
5
 48
1.0
  6
BYLAYER
100
AcDbLine
 10
389.5368618651622228
 20
-304.2640463257192209
 30
0.0
 11
389.5368618651622228
 21
-299.2640463257192209
 31
0.0
  0
LINE
  5
2D2
100
AcDbEntity
  8
0
 62
1
420
16711680
370
5
 48
1.0
  6
BYLAYER
100
AcDbLine
 10
184.578000000000003
 20
-365.0
 30
0.0
 11
184.578000000000003
 21
-370.0
 31
0.0
  0
LINE
  5
2D3
100
AcDbEntity
  8
0
 62
1
420
16711680
370
5
 48
1.0
  6
BYLAYER
100
AcDbLine
 10
209.5368618651621944
 20
-369.2640463257192209
 30
0.0
 11
209.5368618651621944
 21
-374.2640463257192209
 31
0.0
  0
LINE
  5
2D4
100
AcDbEntity
  8
0
 62
1
420
16711680
370
5
 48
1.0
  6
BYLAYER
100
AcDbLine
 10
389.5368618651622228
 20
-369.2640463257192209
 30
0.0
 11
389.5368618651622228
 21
-374.2640463257192209
 31
0.0
  0
CIRCLE
  5
2D5
100
AcDbEntity
  8
0
 62
1
420
16711680
370
5
 48
1.0
  6
BYLAYER
100
AcDbCircle
 10
70.0
 20
-60.0
 30
0.0
 40
6.4000000000000012
  0
CIRCLE
  5
2D6
100
AcDbEntity
  8
0
 62
1
420
16711680
370
5
 48
1.0
  6
BYLAYER
100
AcDbCircle
 10
70.0
 20
-360.0
 30
0.0
 40
6.4000000000000012
  0
CIRCLE
  5
2D7
100
AcDbEntity
  8
0
 62
1
420
16711680
370
5
 48
1.0
  6
BYLAYER
100
AcDbCircle
 10
370.0
 20
-60.0
 30
0.0
 40
3.0
  0
CIRCLE
  5
2D8
100
AcDbEntity
  8
0
 62
1
420
16711680
370
5
 48
1.0
  6
BYLAYER
100
AcDbCircle
 10
537.5
 20
5.0
 30
0.0
 40
3.0
  0
CIRCLE
  5
2D9
100
AcDbEntity
  8
0
 62
1
420
16711680
370
5
 48
1.0
  6
BYLAYER
100
AcDbCircle
 10
387.5
 20
62.5
 30
0.0
 40
2.8500000000000218
  0
CIRCLE
  5
2DA
100
AcDbEntity
  8
0
 62
1
420
16711680
370
5
 48
1.0
  6
BYLAYER
100
AcDbCircle
 10
387.5
 20
-62.5
 30
0.0
 40
2.8500000000000218
  0
CIRCLE
  5
2DB
100
AcDbEntity
  8
0
 62
1
420
16711680
370
5
 48
1.0
  6
BYLAYER
100
AcDbCircle
 10
212.5
 20
62.5
 30
0.0
 40
2.8500000000000218
  0
CIRCLE
  5
2DC
100
AcDbEntity
  8
0
 62
1
420
16711680
370
5
 48
1.0
  6
BYLAYER
100
AcDbCircle
 10
212.5
 20
-62.5000000000000213
 30
0.0
 40
2.8500000000000218
  0
CIRCLE
  5
2DD
100
AcDbEntity
  8
0
 62
1
420
16711680
370
5
 48
1.0
  6
BYLAYER
100
AcDbCircle
 10
555.0
 20
2.5
 30
0.0
 40
2.8500000000000218
  0
CIRCLE
  5
2DE
100
AcDbEntity
  8
0
 62
1
420
16711680
370
5
 48
1.0
  6
BYLAYER
100
AcDbCircle
 10
470.0
 20
0.0
 30
0.0
 40
2.8500000000000218
  0
CIRCLE
  5
2DF
100
AcDbEntity
  8
0
 62
1
420
16711680
370
5
 48
1.0
  6
BYLAYER
100
AcDbCircle
 10
360.0
 20
-50.0
 30
0.0
 40
1.3500000000000221
  0
CIRCLE
  5
2E0
100
AcDbEntity
  8
0
 62
1
420
16711680
370
5
 48
1.0
  6
BYLAYER
100
AcDbCircle
 10
527.5
 20
15.0
 30
0.0
 40
1.3500000000000221
  0
CIRCLE
  5
2E1
100
AcDbEntity
  8
0
 62
1
420
16711680
370
5
 48
1.0
  6
BYLAYER
100
AcDbCircle
 10
380.0
 20
-50.0
 30
0.0
 40
1.3500000000000221
  0
CIRCLE
  5
2E2
100
AcDbEntity
  8
0
 62
1
420
16711680
370
5
 48
1.0
  6
BYLAYER
100
AcDbCircle
 10
547.5
 20
15.0
 30
0.0
 40
1.3500000000000221
  0
CIRCLE
  5
2E3
100
AcDbEntity
  8
0
 62
1
420
16711680
370
5
 48
1.0
  6
BYLAYER
100
AcDbCircle
 10
380.0
 20
-70.0
 30
0.0
 40
1.3500000000000221
  0
CIRCLE
  5
2E4
100
AcDbEntity
  8
0
 62
1
420
16711680
370
5
 48
1.0
  6
BYLAYER
100
AcDbCircle
 10
547.5
 20
-5.0
 30
0.0
 40
1.3500000000000221
  0
CIRCLE
  5
2E5
100
AcDbEntity
  8
0
 62
1
420
16711680
370
5
 48
1.0
  6
BYLAYER
100
AcDbCircle
 10
360.0
 20
-70.0
 30
0.0
 40
1.3500000000000221
  0
CIRCLE
  5
2E6
100
AcDbEntity
  8
0
 62
1
420
16711680
370
5
 48
1.0
  6
BYLAYER
100
AcDbCircle
 10
527.5
 20
-5.0
 30
0.0
 40
1.3500000000000221
  0
CIRCLE
  5
2E7
100
AcDbEntity
  8
0
 62
1
420
16711680
370
5
 48
1.0
  6
BYLAYER
100
AcDbCircle
 10
300.0
 20
0.0
 30
0.0
 40
2.8500000000000218
  0
CIRCLE
  5
2E8
100
AcDbEntity
  8
0
 62
1
420
16711680
370
5
 48
1.0
  6
BYLAYER
100
AcDbCircle
 10
520.0001712164926175
 20
49.9998474330213725
 30
0.0
 40
2.8500000000000218
  0
POINT
  5
2E9
100
AcDbEntity
  8
0
 62
1
420
16711680
370
5
 48
1.0
  6
BYLAYER
100
AcDbPoint
 10
435.0
 20
-612.5000000000001137
 30
0.0
  0
LINE
  5
2EA
100
AcDbEntity
  8
0
 62
1
420
16711680
370
5
 48
1.0
  6
BYLAYER
100
AcDbLine
 10
165.0
 20
-612.5000000000001137
 30
0.0
 11
165.0
 21
-562.5000000000001137
 31
0.0
  0
LINE
  5
2EB
100
AcDbEntity
  8
0
 62
1
420
16711680
370
5
 48
1.0
  6
BYLAYER
100
AcDbLine
 10
435.0
 20
-562.5000000000001137
 30
0.0
 11
435.0
 21
-612.5000000000001137
 31
0.0
  0
LINE
  5
2EC
100
AcDbEntity
  8
0
 62
1
420
16711680
370
5
 48
1.0
  6
BYLAYER
100
AcDbLine
 10
410.0
 20
-562.5000000000001137
 30
0.0
 11
435.0
 21
-562.5000000000001137
 31
0.0
  0
LINE
  5
2ED
100
AcDbEntity
  8
0
 62
1
420
16711680
370
5
 48
1.0
  6
BYLAYER
100
AcDbLine
 10
190.0
 20
-562.4999999999998863
 30
0.0
 11
165.0
 21
-562.5000000000001137
 31
0.0
  0
LINE
  5
2EE
100
AcDbEntity
  8
0
 62
1
420
16711680
370
5
 48
1.0
  6
BYLAYER
100
AcDbLine
 10
165.0
 20
-612.5000000000001137
 30
0.0
 11
165.0
 21
-637.5000000000001137
 31
0.0
  0
LINE
  5
2EF
100
AcDbEntity
  8
0
 62
1
420
16711680
370
5
 48
1.0
  6
BYLAYER
100
AcDbLine
 10
435.0
 20
-612.5000000000001137
 30
0.0
 11
435.0
 21
-637.5000000000001137
 31
0.0
  0
POINT
  5
2F0
100
AcDbEntity
  8
0
 62
1
420
16711680
370
5
 48
1.0
  6
BYLAYER
100
AcDbPoint
 10
410.0
 20
-637.5000000000001137
 30
0.0
  0
LINE
  5
2F1
100
AcDbEntity
  8
0
 62
1
420
16711680
370
5
 48
1.0
  6
BYLAYER
100
AcDbLine
 10
410.0
 20
-642.4999999999994316
 30
0.0
 11
397.0
 21
-642.4999999999994316
 31
0.0
  0
LINE
  5
2F2
100
AcDbEntity
  8
0
 62
1
420
16711680
370
5
 48
1.0
  6
BYLAYER
100
AcDbLine
 10
387.0
 20
-642.4999999999998863
 30
0.0
 11
374.0
 21
-642.5000000000001137
 31
0.0
  0
LINE
  5
2F3
100
AcDbEntity
  8
0
 62
1
420
16711680
370
5
 48
1.0
  6
BYLAYER
100
AcDbLine
 10
364.0
 20
-642.4999999999996589
 30
0.0
 11
351.0
 21
-642.4999999999996589
 31
0.0
  0
LINE
  5
2F4
100
AcDbEntity
  8
0
 62
1
420
16711680
370
5
 48
1.0
  6
BYLAYER
100
AcDbLine
 10
341.0
 20
-642.4999999999998863
 30
0.0
 11
328.0
 21
-642.4999999999996589
 31
0.0
  0
LINE
  5
2F5
100
AcDbEntity
  8
0
 62
1
420
16711680
370
5
 48
1.0
  6
BYLAYER
100
AcDbLine
 10
318.0
 20
-642.4999999999998863
 30
0.0
 11
305.0
 21
-642.4999999999998863
 31
0.0
  0
LINE
  5
2F6
100
AcDbEntity
  8
0
 62
1
420
16711680
370
5
 48
1.0
  6
BYLAYER
100
AcDbLine
 10
295.0
 20
-642.4999999999998863
 30
0.0
 11
282.0
 21
-642.4999999999998863
 31
0.0
  0
LINE
  5
2F7
100
AcDbEntity
  8
0
 62
1
420
16711680
370
5
 48
1.0
  6
BYLAYER
100
AcDbLine
 10
272.0
 20
-642.4999999999998863
 30
0.0
 11
259.0
 21
-642.4999999999998863
 31
0.0
  0
LINE
  5
2F8
100
AcDbEntity
  8
0
 62
1
420
16711680
370
5
 48
1.0
  6
BYLAYER
100
AcDbLine
 10
249.0
 20
-642.4999999999996589
 30
0.0
 11
236.0
 21
-642.4999999999996589
 31
0.0
  0
LINE
  5
2F9
100
AcDbEntity
  8
0
 62
1
420
16711680
370
5
 48
1.0
  6
BYLAYER
100
AcDbLine
 10
226.0
 20
-642.5000000000001137
 30
0.0
 11
213.0
 21
-642.4999999999998863
 31
0.0
  0
LINE
  5
2FA
100
AcDbEntity
  8
0
 62
1
420
16711680
370
5
 48
1.0
  6
BYLAYER
100
AcDbLine
 10
203.0
 20
-642.4999999999996589
 30
0.0
 11
190.0
 21
-642.4999999999994316
 31
0.0
  0
LINE
  5
2FB
100
AcDbEntity
  8
0
 62
1
420
16711680
370
5
 48
1.0
  6
BYLAYER
100
AcDbLine
 10
397.0
 20
-642.4999999999994316
 30
0.0
 11
397.0
 21
-637.5000000000001137
 31
0.0
  0
LINE
  5
2FC
100
AcDbEntity
  8
0
 62
1
420
16711680
370
5
 48
1.0
  6
BYLAYER
100
AcDbLine
 10
374.0
 20
-642.5000000000001137
 30
0.0
 11
374.0
 21
-637.4999999999994316
 31
0.0
  0
LINE
  5
2FD
100
AcDbEntity
  8
0
 62
1
420
16711680
370
5
 48
1.0
  6
BYLAYER
100
AcDbLine
 10
351.0
 20
-642.4999999999996589
 30
0.0
 11
351.0
 21
-637.5000000000001137
 31
0.0
  0
LINE
  5
2FE
100
AcDbEntity
  8
0
 62
1
420
16711680
370
5
 48
1.0
  6
BYLAYER
100
AcDbLine
 10
328.0
 20
-642.4999999999996589
 30
0.0
 11
328.0
 21
-637.4999999999998863
 31
0.0
  0
LINE
  5
2FF
100
AcDbEntity
  8
0
 62
1
420
16711680
370
5
 48
1.0
  6
BYLAYER
100
AcDbLine
 10
305.0
 20
-642.4999999999998863
 30
0.0
 11
305.0
 21
-637.4999999999998863
 31
0.0
  0
LINE
  5
300
100
AcDbEntity
  8
0
 62
1
420
16711680
370
5
 48
1.0
  6
BYLAYER
100
AcDbLine
 10
282.0
 20
-642.4999999999998863
 30
0.0
 11
282.0
 21
-637.4999999999998863
 31
0.0
  0
LINE
  5
301
100
AcDbEntity
  8
0
 62
1
420
16711680
370
5
 48
1.0
  6
BYLAYER
100
AcDbLine
 10
259.0
 20
-642.4999999999998863
 30
0.0
 11
259.0
 21
-637.4999999999998863
 31
0.0
  0
LINE
  5
302
100
AcDbEntity
  8
0
 62
1
420
16711680
370
5
 48
1.0
  6
BYLAYER
100
AcDbLine
 10
236.0
 20
-642.4999999999996589
 30
0.0
 11
236.0
 21
-637.5000000000001137
 31
0.0
  0
LINE
  5
303
100
AcDbEntity
  8
0
 62
1
420
16711680
370
5
 48
1.0
  6
BYLAYER
100
AcDbLine
 10
213.0
 20
-642.4999999999998863
 30
0.0
 11
213.0
 21
-637.4999999999996589
 31
0.0
  0
LINE
  5
304
100
AcDbEntity
  8
0
 62
1
420
16711680
370
5
 48
1.0
  6
BYLAYER
100
AcDbLine
 10
190.0
 20
-642.4999999999994316
 30
0.0
 11
190.0
 21
-637.5000000000001137
 31
0.0
  0
LINE
  5
305
100
AcDbEntity
  8
0
 62
1
420
16711680
370
5
 48
1.0
  6
BYLAYER
100
AcDbLine
 10
410.0
 20
-637.5000000000001137
 30
0.0
 11
410.0
 21
-642.4999999999994316
 31
0.0
  0
LINE
  5
306
100
AcDbEntity
  8
0
 62
1
420
16711680
370
5
 48
1.0
  6
BYLAYER
100
AcDbLine
 10
387.0
 20
-637.4999999999996589
 30
0.0
 11
387.0
 21
-642.4999999999998863
 31
0.0
  0
LINE
  5
307
100
AcDbEntity
  8
0
 62
1
420
16711680
370
5
 48
1.0
  6
BYLAYER
100
AcDbLine
 10
364.0
 20
-637.5000000000001137
 30
0.0
 11
364.0
 21
-642.4999999999996589
 31
0.0
  0
LINE
  5
308
100
AcDbEntity
  8
0
 62
1
420
16711680
370
5
 48
1.0
  6
BYLAYER
100
AcDbLine
 10
341.0
 20
-637.4999999999998863
 30
0.0
 11
341.0
 21
-642.4999999999998863
 31
0.0
  0
LINE
  5
309
100
AcDbEntity
  8
0
 62
1
420
16711680
370
5
 48
1.0
  6
BYLAYER
100
AcDbLine
 10
318.0
 20
-637.4999999999998863
 30
0.0
 11
318.0
 21
-642.4999999999998863
 31
0.0
  0
LINE
  5
30A
100
AcDbEntity
  8
0
 62
1
420
16711680
370
5
 48
1.0
  6
BYLAYER
100
AcDbLine
 10
295.0
 20
-637.4999999999998863
 30
0.0
 11
295.0
 21
-642.4999999999998863
 31
0.0
  0
LINE
  5
30B
100
AcDbEntity
  8
0
 62
1
420
16711680
370
5
 48
1.0
  6
BYLAYER
100
AcDbLine
 10
272.0
 20
-637.4999999999998863
 30
0.0
 11
272.0
 21
-642.4999999999998863
 31
0.0
  0
LINE
  5
30C
100
AcDbEntity
  8
0
 62
1
420
16711680
370
5
 48
1.0
  6
BYLAYER
100
AcDbLine
 10
249.0
 20
-637.5000000000001137
 30
0.0
 11
249.0
 21
-642.4999999999996589
 31
0.0
  0
LINE
  5
30D
100
AcDbEntity
  8
0
 62
1
420
16711680
370
5
 48
1.0
  6
BYLAYER
100
AcDbLine
 10
226.0
 20
-637.4999999999994316
 30
0.0
 11
226.0
 21
-642.5000000000001137
 31
0.0
  0
LINE
  5
30E
100
AcDbEntity
  8
0
 62
1
420
16711680
370
5
 48
1.0
  6
BYLAYER
100
AcDbLine
 10
203.0
 20
-637.5000000000001137
 30
0.0
 11
203.0
 21
-642.4999999999996589
 31
0.0
  0
LINE
  5
30F
100
AcDbEntity
  8
0
 62
1
420
16711680
370
5
 48
1.0
  6
BYLAYER
100
AcDbLine
 10
165.0
 20
-637.5000000000001137
 30
0.0
 11
190.0
 21
-637.5000000000001137
 31
0.0
  0
LINE
  5
310
100
AcDbEntity
  8
0
 62
1
420
16711680
370
5
 48
1.0
  6
BYLAYER
100
AcDbLine
 10
203.0
 20
-637.5000000000001137
 30
0.0
 11
213.0
 21
-637.4999999999996589
 31
0.0
  0
LINE
  5
311
100
AcDbEntity
  8
0
 62
1
420
16711680
370
5
 48
1.0
  6
BYLAYER
100
AcDbLine
 10
236.0
 20
-637.5000000000001137
 30
0.0
 11
226.0
 21
-637.4999999999994316
 31
0.0
  0
LINE
  5
312
100
AcDbEntity
  8
0
 62
1
420
16711680
370
5
 48
1.0
  6
BYLAYER
100
AcDbLine
 10
249.0
 20
-637.5000000000001137
 30
0.0
 11
259.0
 21
-637.4999999999998863
 31
0.0
  0
LINE
  5
313
100
AcDbEntity
  8
0
 62
1
420
16711680
370
5
 48
1.0
  6
BYLAYER
100
AcDbLine
 10
272.0
 20
-637.4999999999998863
 30
0.0
 11
282.0
 21
-637.4999999999998863
 31
0.0
  0
LINE
  5
314
100
AcDbEntity
  8
0
 62
1
420
16711680
370
5
 48
1.0
  6
BYLAYER
100
AcDbLine
 10
295.0
 20
-637.4999999999998863
 30
0.0
 11
305.0
 21
-637.4999999999998863
 31
0.0
  0
LINE
  5
315
100
AcDbEntity
  8
0
 62
1
420
16711680
370
5
 48
1.0
  6
BYLAYER
100
AcDbLine
 10
318.0
 20
-637.4999999999998863
 30
0.0
 11
328.0
 21
-637.4999999999998863
 31
0.0
  0
LINE
  5
316
100
AcDbEntity
  8
0
 62
1
420
16711680
370
5
 48
1.0
  6
BYLAYER
100
AcDbLine
 10
341.0
 20
-637.4999999999998863
 30
0.0
 11
351.0
 21
-637.5000000000001137
 31
0.0
  0
LINE
  5
317
100
AcDbEntity
  8
0
 62
1
420
16711680
370
5
 48
1.0
  6
BYLAYER
100
AcDbLine
 10
364.0
 20
-637.5000000000001137
 30
0.0
 11
374.0
 21
-637.5000000000001137
 31
0.0
  0
LINE
  5
318
100
AcDbEntity
  8
0
 62
1
420
16711680
370
5
 48
1.0
  6
BYLAYER
100
AcDbLine
 10
387.0
 20
-637.4999999999996589
 30
0.0
 11
397.0
 21
-637.5000000000001137
 31
0.0
  0
LINE
  5
319
100
AcDbEntity
  8
0
 62
1
420
16711680
370
5
 48
1.0
  6
BYLAYER
100
AcDbLine
 10
410.0
 20
-637.5000000000001137
 30
0.0
 11
435.0
 21
-637.5000000000001137
 31
0.0
  0
LINE
  5
31A
100
AcDbEntity
  8
0
 62
1
420
16711680
370
5
 48
1.0
  6
BYLAYER
100
AcDbLine
 10
203.0
 20
-562.4999999999998863
 30
0.0
 11
203.0
 21
-557.4999999999998863
 31
0.0
  0
LINE
  5
31B
100
AcDbEntity
  8
0
 62
1
420
16711680
370
5
 48
1.0
  6
BYLAYER
100
AcDbLine
 10
226.0
 20
-562.4999999999998863
 30
0.0
 11
226.0
 21
-557.4999999999998863
 31
0.0
  0
LINE
  5
31C
100
AcDbEntity
  8
0
 62
1
420
16711680
370
5
 48
1.0
  6
BYLAYER
100
AcDbLine
 10
249.0
 20
-562.4999999999998863
 30
0.0
 11
249.0
 21
-557.4999999999998863
 31
0.0
  0
LINE
  5
31D
100
AcDbEntity
  8
0
 62
1
420
16711680
370
5
 48
1.0
  6
BYLAYER
100
AcDbLine
 10
272.0
 20
-562.4999999999998863
 30
0.0
 11
272.0
 21
-557.4999999999998863
 31
0.0
  0
LINE
  5
31E
100
AcDbEntity
  8
0
 62
1
420
16711680
370
5
 48
1.0
  6
BYLAYER
100
AcDbLine
 10
295.0
 20
-562.4999999999998863
 30
0.0
 11
295.0
 21
-557.4999999999998863
 31
0.0
  0
LINE
  5
31F
100
AcDbEntity
  8
0
 62
1
420
16711680
370
5
 48
1.0
  6
BYLAYER
100
AcDbLine
 10
318.0
 20
-562.4999999999998863
 30
0.0
 11
318.0
 21
-557.4999999999998863
 31
0.0
  0
LINE
  5
320
100
AcDbEntity
  8
0
 62
1
420
16711680
370
5
 48
1.0
  6
BYLAYER
100
AcDbLine
 10
341.0
 20
-562.4999999999998863
 30
0.0
 11
341.0
 21
-557.4999999999998863
 31
0.0
  0
LINE
  5
321
100
AcDbEntity
  8
0
 62
1
420
16711680
370
5
 48
1.0
  6
BYLAYER
100
AcDbLine
 10
364.0
 20
-562.4999999999998863
 30
0.0
 11
364.0
 21
-557.4999999999998863
 31
0.0
  0
LINE
  5
322
100
AcDbEntity
  8
0
 62
1
420
16711680
370
5
 48
1.0
  6
BYLAYER
100
AcDbLine
 10
387.0
 20
-562.4999999999998863
 30
0.0
 11
387.0
 21
-557.4999999999998863
 31
0.0
  0
LINE
  5
323
100
AcDbEntity
  8
0
 62
1
420
16711680
370
5
 48
1.0
  6
BYLAYER
100
AcDbLine
 10
410.0
 20
-562.4999999999998863
 30
0.0
 11
410.0
 21
-557.4999999999998863
 31
0.0
  0
LINE
  5
324
100
AcDbEntity
  8
0
 62
1
420
16711680
370
5
 48
1.0
  6
BYLAYER
100
AcDbLine
 10
203.0
 20
-557.4999999999998863
 30
0.0
 11
190.0
 21
-557.4999999999998863
 31
0.0
  0
LINE
  5
325
100
AcDbEntity
  8
0
 62
1
420
16711680
370
5
 48
1.0
  6
BYLAYER
100
AcDbLine
 10
226.0
 20
-557.4999999999998863
 30
0.0
 11
213.0
 21
-557.4999999999998863
 31
0.0
  0
LINE
  5
326
100
AcDbEntity
  8
0
 62
1
420
16711680
370
5
 48
1.0
  6
BYLAYER
100
AcDbLine
 10
249.0
 20
-557.4999999999998863
 30
0.0
 11
236.0
 21
-557.4999999999998863
 31
0.0
  0
LINE
  5
327
100
AcDbEntity
  8
0
 62
1
420
16711680
370
5
 48
1.0
  6
BYLAYER
100
AcDbLine
 10
272.0
 20
-557.4999999999998863
 30
0.0
 11
259.0
 21
-557.4999999999998863
 31
0.0
  0
LINE
  5
328
100
AcDbEntity
  8
0
 62
1
420
16711680
370
5
 48
1.0
  6
BYLAYER
100
AcDbLine
 10
295.0
 20
-557.4999999999998863
 30
0.0
 11
282.0
 21
-557.4999999999998863
 31
0.0
  0
LINE
  5
329
100
AcDbEntity
  8
0
 62
1
420
16711680
370
5
 48
1.0
  6
BYLAYER
100
AcDbLine
 10
318.0
 20
-557.4999999999998863
 30
0.0
 11
305.0
 21
-557.4999999999998863
 31
0.0
  0
LINE
  5
32A
100
AcDbEntity
  8
0
 62
1
420
16711680
370
5
 48
1.0
  6
BYLAYER
100
AcDbLine
 10
341.0
 20
-557.4999999999998863
 30
0.0
 11
328.0
 21
-557.4999999999998863
 31
0.0
  0
LINE
  5
32B
100
AcDbEntity
  8
0
 62
1
420
16711680
370
5
 48
1.0
  6
BYLAYER
100
AcDbLine
 10
364.0
 20
-557.4999999999998863
 30
0.0
 11
351.0
 21
-557.4999999999998863
 31
0.0
  0
LINE
  5
32C
100
AcDbEntity
  8
0
 62
1
420
16711680
370
5
 48
1.0
  6
BYLAYER
100
AcDbLine
 10
387.0
 20
-557.4999999999998863
 30
0.0
 11
374.0
 21
-557.4999999999998863
 31
0.0
  0
LINE
  5
32D
100
AcDbEntity
  8
0
 62
1
420
16711680
370
5
 48
1.0
  6
BYLAYER
100
AcDbLine
 10
410.0
 20
-557.4999999999998863
 30
0.0
 11
397.0
 21
-557.4999999999998863
 31
0.0
  0
LINE
  5
32E
100
AcDbEntity
  8
0
 62
1
420
16711680
370
5
 48
1.0
  6
BYLAYER
100
AcDbLine
 10
190.0
 20
-557.4999999999998863
 30
0.0
 11
190.0
 21
-562.4999999999998863
 31
0.0
  0
LINE
  5
32F
100
AcDbEntity
  8
0
 62
1
420
16711680
370
5
 48
1.0
  6
BYLAYER
100
AcDbLine
 10
213.0
 20
-557.4999999999998863
 30
0.0
 11
213.0
 21
-562.4999999999998863
 31
0.0
  0
LINE
  5
330
100
AcDbEntity
  8
0
 62
1
420
16711680
370
5
 48
1.0
  6
BYLAYER
100
AcDbLine
 10
236.0
 20
-557.4999999999998863
 30
0.0
 11
236.0
 21
-562.4999999999998863
 31
0.0
  0
LINE
  5
331
100
AcDbEntity
  8
0
 62
1
420
16711680
370
5
 48
1.0
  6
BYLAYER
100
AcDbLine
 10
259.0
 20
-557.4999999999998863
 30
0.0
 11
259.0
 21
-562.4999999999998863
 31
0.0
  0
LINE
  5
332
100
AcDbEntity
  8
0
 62
1
420
16711680
370
5
 48
1.0
  6
BYLAYER
100
AcDbLine
 10
282.0
 20
-557.4999999999998863
 30
0.0
 11
282.0
 21
-562.4999999999998863
 31
0.0
  0
LINE
  5
333
100
AcDbEntity
  8
0
 62
1
420
16711680
370
5
 48
1.0
  6
BYLAYER
100
AcDbLine
 10
305.0
 20
-557.4999999999998863
 30
0.0
 11
305.0
 21
-562.4999999999998863
 31
0.0
  0
LINE
  5
334
100
AcDbEntity
  8
0
 62
1
420
16711680
370
5
 48
1.0
  6
BYLAYER
100
AcDbLine
 10
328.0
 20
-557.4999999999998863
 30
0.0
 11
328.0
 21
-562.4999999999998863
 31
0.0
  0
LINE
  5
335
100
AcDbEntity
  8
0
 62
1
420
16711680
370
5
 48
1.0
  6
BYLAYER
100
AcDbLine
 10
351.0
 20
-557.4999999999998863
 30
0.0
 11
351.0
 21
-562.4999999999998863
 31
0.0
  0
LINE
  5
336
100
AcDbEntity
  8
0
 62
1
420
16711680
370
5
 48
1.0
  6
BYLAYER
100
AcDbLine
 10
374.0
 20
-557.4999999999998863
 30
0.0
 11
374.0
 21
-562.4999999999998863
 31
0.0
  0
LINE
  5
337
100
AcDbEntity
  8
0
 62
1
420
16711680
370
5
 48
1.0
  6
BYLAYER
100
AcDbLine
 10
397.0
 20
-557.4999999999998863
 30
0.0
 11
397.0
 21
-562.4999999999998863
 31
0.0
  0
POINT
  5
338
100
AcDbEntity
  8
0
 62
1
420
16711680
370
5
 48
1.0
  6
BYLAYER
100
AcDbPoint
 10
213.0
 20
-562.4999999999998863
 30
0.0
  0
LINE
  5
339
100
AcDbEntity
  8
0
 62
1
420
16711680
370
5
 48
1.0
  6
BYLAYER
100
AcDbLine
 10
203.0
 20
-562.4999999999998863
 30
0.0
 11
213.0
 21
-562.4999999999998863
 31
0.0
  0
LINE
  5
33A
100
AcDbEntity
  8
0
 62
1
420
16711680
370
5
 48
1.0
  6
BYLAYER
100
AcDbLine
 10
226.0
 20
-562.4999999999998863
 30
0.0
 11
236.0
 21
-562.4999999999998863
 31
0.0
  0
LINE
  5
33B
100
AcDbEntity
  8
0
 62
1
420
16711680
370
5
 48
1.0
  6
BYLAYER
100
AcDbLine
 10
249.0
 20
-562.4999999999998863
 30
0.0
 11
259.0
 21
-562.4999999999998863
 31
0.0
  0
LINE
  5
33C
100
AcDbEntity
  8
0
 62
1
420
16711680
370
5
 48
1.0
  6
BYLAYER
100
AcDbLine
 10
272.0
 20
-562.4999999999998863
 30
0.0
 11
282.0
 21
-562.4999999999998863
 31
0.0
  0
LINE
  5
33D
100
AcDbEntity
  8
0
 62
1
420
16711680
370
5
 48
1.0
  6
BYLAYER
100
AcDbLine
 10
295.0
 20
-562.4999999999998863
 30
0.0
 11
305.0
 21
-562.4999999999998863
 31
0.0
  0
LINE
  5
33E
100
AcDbEntity
  8
0
 62
1
420
16711680
370
5
 48
1.0
  6
BYLAYER
100
AcDbLine
 10
318.0
 20
-562.4999999999998863
 30
0.0
 11
328.0
 21
-562.4999999999998863
 31
0.0
  0
LINE
  5
33F
100
AcDbEntity
  8
0
 62
1
420
16711680
370
5
 48
1.0
  6
BYLAYER
100
AcDbLine
 10
341.0
 20
-562.4999999999998863
 30
0.0
 11
351.0
 21
-562.4999999999998863
 31
0.0
  0
LINE
  5
340
100
AcDbEntity
  8
0
 62
1
420
16711680
370
5
 48
1.0
  6
BYLAYER
100
AcDbLine
 10
364.0
 20
-562.4999999999998863
 30
0.0
 11
374.0
 21
-562.4999999999998863
 31
0.0
  0
LINE
  5
341
100
AcDbEntity
  8
0
 62
1
420
16711680
370
5
 48
1.0
  6
BYLAYER
100
AcDbLine
 10
387.0
 20
-562.4999999999998863
 30
0.0
 11
397.0
 21
-562.4999999999998863
 31
0.0
  0
LINE
  5
342
100
AcDbEntity
  8
0
 62
1
420
16711680
370
5
 48
1.0
  6
BYLAYER
100
AcDbLine
 10
168.0
 20
-597.4999999999998863
 30
0.0
 11
170.0
 21
-597.4999999999998863
 31
0.0
  0
LINE
  5
343
100
AcDbEntity
  8
0
 62
1
420
16711680
370
5
 48
1.0
  6
BYLAYER
100
AcDbLine
 10
168.0
 20
-632.4999999999998863
 30
0.0
 11
170.0
 21
-632.4999999999998863
 31
0.0
  0
LINE
  5
344
100
AcDbEntity
  8
0
 62
1
420
16711680
370
5
 48
1.0
  6
BYLAYER
100
AcDbLine
 10
170.0
 20
-597.4999999999998863
 30
0.0
 11
170.0
 21
-567.4999999999998863
 31
0.0
  0
LINE
  5
345
100
AcDbEntity
  8
0
 62
1
420
16711680
370
5
 48
1.0
  6
BYLAYER
100
AcDbLine
 10
170.0
 20
-632.4999999999998863
 30
0.0
 11
170.0
 21
-602.4999999999998863
 31
0.0
  0
LINE
  5
346
100
AcDbEntity
  8
0
 62
1
420
16711680
370
5
 48
1.0
  6
BYLAYER
100
AcDbLine
 10
170.0
 20
-567.4999999999998863
 30
0.0
 11
168.0
 21
-567.4999999999998863
 31
0.0
  0
LINE
  5
347
100
AcDbEntity
  8
0
 62
1
420
16711680
370
5
 48
1.0
  6
BYLAYER
100
AcDbLine
 10
170.0
 20
-602.4999999999998863
 30
0.0
 11
168.0
 21
-602.4999999999998863
 31
0.0
  0
LINE
  5
348
100
AcDbEntity
  8
0
 62
1
420
16711680
370
5
 48
1.0
  6
BYLAYER
100
AcDbLine
 10
168.0
 20
-567.4999999999998863
 30
0.0
 11
168.0
 21
-597.4999999999998863
 31
0.0
  0
LINE
  5
349
100
AcDbEntity
  8
0
 62
1
420
16711680
370
5
 48
1.0
  6
BYLAYER
100
AcDbLine
 10
168.0
 20
-602.4999999999998863
 30
0.0
 11
168.0
 21
-632.4999999999998863
 31
0.0
  0
POINT
  5
34A
100
AcDbEntity
  8
0
 62
1
420
16711680
370
5
 48
1.0
  6
BYLAYER
100
AcDbPoint
 10
168.0
 20
-602.4999999999998863
 30
0.0
  0
TEXT
  5
34B
100
AcDbEntity
  8
0
 62
5
420
255
370
50
 48
1.0
  6
Continuous
100
AcDbText
 10
187.5689854984389058
 20
-619.1393594242313156
 30
0.0
 40
38.4102698155738906
  1
QBioLab
 50
0.0
 41
1.0
  7
textstyle0
 71
0
 72
0
 11
187.5689854984389058
 21
-619.1393594242313156
 31
0.0
100
AcDbText
 73
0
  0
MTEXT
  5
34C
100
AcDbEntity
  8
0
 62
5
420
255
370
50
 48
1.0
  6
Continuous
100
AcDbMText
 10
243.8342278030276873
 20
-316.492497789301126
 30
0.0
 40
15.0
 41
0.0
 71
1
 72
5
  1
{\ftxt|b1|i0|c0|p2;C. elegans\PRobot}
  7
textstyle2
 50
0.0
 73
1
 44
1.0
  0
MTEXT
  5
34D
100
AcDbEntity
  8
0
 62
5
420
255
370
25
 48
1.0
  6
Continuous
100
AcDbMText
 10
334.4633225408542785
 20
-345.7098454670713181
 30
0.0
 40
3.0
 41
0.0
 71
1
 72
5
  1
{\fVijaya|b0|i0|c0|p34;C.elegans & Co.,Inc\P\fVrinda|b0|i0|c0|p34;2019.01.23}
  7
textstyle1
 50
0.0
 73
1
 44
1.0
  0
LINE
  5
34E
100
AcDbEntity
  8
0
 62
1
420
16711680
370
5
 48
1.0
  6
BYLAYER
100
AcDbLine
 10
517.5
 20
-25.0
 30
0.0
 11
517.5
 21
25.0
 31
0.0
  0
LINE
  5
34F
100
AcDbEntity
  8
0
 62
1
420
16711680
370
5
 48
1.0
  6
BYLAYER
100
AcDbLine
 10
517.5
 20
25.0
 30
0.0
 11
562.5
 21
25.0
 31
0.0
  0
LINE
  5
350
100
AcDbEntity
  8
0
 62
1
420
16711680
370
5
 48
1.0
  6
BYLAYER
100
AcDbLine
 10
562.5
 20
25.0
 30
0.0
 11
562.5
 21
-25.0
 31
0.0
  0
LINE
  5
351
100
AcDbEntity
  8
0
 62
1
420
16711680
370
5
 48
1.0
  6
BYLAYER
100
AcDbLine
 10
562.5
 20
-25.0
 30
0.0
 11
517.5
 21
-25.0
 31
0.0
  0
LINE
  5
352
100
AcDbEntity
  8
0
 62
1
420
16711680
370
5
 48
1.0
  6
BYLAYER
100
AcDbLine
 10
517.5
 20
-25.0
 30
0.0
 11
517.5
 21
25.0
 31
0.0
  0
DIMENSION
  5
353
100
AcDbEntity
  8
0
 62
1
420
16711680
370
5
 48
1.0
  6
BYLAYER
100
AcDbDimension
 10
225.4999999999998579
 20
-280.0000000000001137
 30
0.0
 11
223.6249999999998579
 21
-258.0
 31
0.0
 70
0
 71
8
 72
2
 74
0
 75
0
 41
1.0
 42
0.0
  1

  3
Standard
100
AcDbAlignedDimension
 13
211.4999999999998863
 23
-280.0
 33
0.0
 14
230.4999999999999432
 24
-236.0000000000000284
 34
0.0
 50
90.0
100
AcDbRotatedDimension
1001
ACAD
1000
DSTYLE
1002
{
1070
144
1040
1.0
1070
40
1040
1.0
1002
}
  0
LINE
  5
354
100
AcDbEntity
  8
0
 62
1
420
16711680
370
5
 48
1.0
  6
BYLAYER
100
AcDbLine
 10
229.4999999999999716
 20
-250.9999999999999716
 30
0.0
 11
244.4999999999999716
 21
-250.9999999999999716
 31
0.0
  0
LINE
  5
355
100
AcDbEntity
  8
0
 62
1
420
16711680
370
5
 48
1.0
  6
BYLAYER
100
AcDbLine
 10
244.4999999999999716
 20
-250.9999999999999716
 30
0.0
 11
244.4999999999999716
 21
-235.9999999999999716
 31
0.0
  0
LINE
  5
356
100
AcDbEntity
  8
0
 62
1
420
16711680
370
5
 48
1.0
  6
BYLAYER
100
AcDbLine
 10
244.4999999999999716
 20
-235.9999999999999716
 30
0.0
 11
229.4999999999999716
 21
-235.9999999999999716
 31
0.0
  0
LINE
  5
357
100
AcDbEntity
  8
0
 62
1
420
16711680
370
5
 48
1.0
  6
BYLAYER
100
AcDbLine
 10
229.4999999999999716
 20
-235.9999999999999716
 30
0.0
 11
229.4999999999999716
 21
-250.9999999999999716
 31
0.0
  0
LINE
  5
358
100
AcDbEntity
  8
0
 62
1
420
16711680
370
5
 48
1.0
  6
BYLAYER
100
AcDbLine
 10
297.5999999999999659
 20
-248.9999999999999716
 30
0.0
 11
302.3999999999999773
 21
-248.9999999999999716
 31
0.0
  0
LINE
  5
359
100
AcDbEntity
  8
0
 62
1
420
16711680
370
5
 48
1.0
  6
BYLAYER
100
AcDbLine
 10
297.5999999999999659
 20
-237.9999999999999716
 30
0.0
 11
302.3999999999999773
 21
-237.9999999999999716
 31
0.0
  0
LINE
  5
35A
100
AcDbEntity
  8
0
 62
1
420
16711680
370
5
 48
1.0
  6
BYLAYER
100
AcDbLine
 10
277.5394174008655455
 20
-249.345802507861606
 30
0.0
 11
282.3394174008655568
 21
-249.345802507861606
 31
0.0
  0
LINE
  5
35B
100
AcDbEntity
  8
0
 62
1
420
16711680
370
5
 48
1.0
  6
BYLAYER
100
AcDbLine
 10
277.5394174008655455
 20
-238.345802507861606
 30
0.0
 11
282.3394174008655568
 21
-238.345802507861606
 31
0.0
  0
LINE
  5
35C
100
AcDbEntity
  8
0
 62
1
420
16711680
370
5
 48
1.0
  6
BYLAYER
100
AcDbLine
 10
317.5999999999999659
 20
-249.5
 30
0.0
 11
322.3999999999999773
 21
-249.5
 31
0.0
  0
LINE
  5
35D
100
AcDbEntity
  8
0
 62
1
420
16711680
370
5
 48
1.0
  6
BYLAYER
100
AcDbLine
 10
317.5999999999999659
 20
-238.5
 30
0.0
 11
322.3999999999999773
 21
-238.5
 31
0.0
  0
LINE
  5
35E
100
AcDbEntity
  8
0
 62
1
420
16711680
370
5
 48
1.0
  6
BYLAYER
100
AcDbLine
 10
317.5999999999999659
 20
-230.5
 30
0.0
 11
322.3999999999999773
 21
-230.5
 31
0.0
  0
LINE
  5
35F
100
AcDbEntity
  8
0
 62
1
420
16711680
370
5
 48
1.0
  6
BYLAYER
100
AcDbLine
 10
317.5999999999999659
 20
-219.5
 30
0.0
 11
322.3999999999999773
 21
-219.5
 31
0.0
  0
LINE
  5
360
100
AcDbEntity
  8
0
 62
1
420
16711680
370
5
 48
1.0
  6
BYLAYER
100
AcDbLine
 10
297.5999999999999659
 20
-230.5
 30
0.0
 11
302.3999999999999773
 21
-230.5
 31
0.0
  0
LINE
  5
361
100
AcDbEntity
  8
0
 62
1
420
16711680
370
5
 48
1.0
  6
BYLAYER
100
AcDbLine
 10
297.5999999999999659
 20
-219.5
 30
0.0
 11
302.3999999999999773
 21
-219.5
 31
0.0
  0
LINE
  5
362
100
AcDbEntity
  8
0
 62
1
420
16711680
370
5
 48
1.0
  6
BYLAYER
100
AcDbLine
 10
277.5999999999999659
 20
-230.5
 30
0.0
 11
282.3999999999999773
 21
-230.5
 31
0.0
  0
LINE
  5
363
100
AcDbEntity
  8
0
 62
1
420
16711680
370
5
 48
1.0
  6
BYLAYER
100
AcDbLine
 10
277.5999999999999659
 20
-219.5
 30
0.0
 11
282.3999999999999773
 21
-219.5
 31
0.0
  0
LINE
  5
364
100
AcDbEntity
  8
0
 62
1
420
16711680
370
5
 48
1.0
  6
BYLAYER
100
AcDbLine
 10
347.5999999999999659
 20
-249.5
 30
0.0
 11
352.3999999999999773
 21
-249.5
 31
0.0
  0
LINE
  5
365
100
AcDbEntity
  8
0
 62
1
420
16711680
370
5
 48
1.0
  6
BYLAYER
100
AcDbLine
 10
347.5999999999999659
 20
-238.5
 30
0.0
 11
352.3999999999999773
 21
-238.5
 31
0.0
  0
LINE
  5
366
100
AcDbEntity
  8
0
 62
1
420
16711680
370
5
 48
1.0
  6
BYLAYER
100
AcDbLine
 10
347.5999999999999659
 20
-230.5
 30
0.0
 11
352.3999999999999773
 21
-230.5
 31
0.0
  0
LINE
  5
367
100
AcDbEntity
  8
0
 62
1
420
16711680
370
5
 48
1.0
  6
BYLAYER
100
AcDbLine
 10
347.5999999999999659
 20
-219.5
 30
0.0
 11
352.3999999999999773
 21
-219.5
 31
0.0
  0
LINE
  5
368
100
AcDbEntity
  8
0
 62
1
420
16711680
370
5
 48
1.0
  6
BYLAYER
100
AcDbLine
 10
481.5470053837925093
 20
0.0000000000000177
 30
0.0
 11
475.7735026918962262
 21
10.0000000000000231
 31
0.0
  0
LINE
  5
369
100
AcDbEntity
  8
0
 62
1
420
16711680
370
5
 48
1.0
  6
BYLAYER
100
AcDbLine
 10
475.7735026918962262
 20
10.0000000000000231
 30
0.0
 11
464.2264973081037169
 21
10.0000000000000053
 31
0.0
  0
LINE
  5
36A
100
AcDbEntity
  8
0
 62
1
420
16711680
370
5
 48
1.0
  6
BYLAYER
100
AcDbLine
 10
464.2264973081037169
 20
10.0000000000000053
 30
0.0
 11
458.4529946162074907
 21
-0.0000000000000163
 31
0.0
  0
LINE
  5
36B
100
AcDbEntity
  8
0
 62
1
420
16711680
370
5
 48
1.0
  6
BYLAYER
100
AcDbLine
 10
458.4529946162074907
 20
-0.0000000000000163
 30
0.0
 11
464.2264973081037738
 21
-10.0000000000000213
 31
0.0
  0
LINE
  5
36C
100
AcDbEntity
  8
0
 62
1
420
16711680
370
5
 48
1.0
  6
BYLAYER
100
AcDbLine
 10
464.2264973081037738
 20
-10.0000000000000213
 30
0.0
 11
475.7735026918962831
 21
-10.0000000000000053
 31
0.0
  0
LINE
  5
36D
100
AcDbEntity
  8
0
 62
1
420
16711680
370
5
 48
1.0
  6
BYLAYER
100
AcDbLine
 10
475.7735026918962831
 20
-10.0000000000000053
 30
0.0
 11
481.5470053837925093
 21
0.0000000000000177
 31
0.0
  0
ELLIPSE
  5
36E
100
AcDbEntity
  8
0
 62
1
420
16711680
370
5
 48
1.0
  6
BYLAYER
100
AcDbEllipse
 10
530.0001712164926175
 20
49.9998474330213725
 30
0.0
 11
-30.0
 21
0.0
 31
0.0
 40
0.6666666666666666
 41
0.0
 42
6.2831853071795862
  0
POINT
  5
36F
100
AcDbEntity
  8
0
 62
1
420
16711680
370
5
 48
1.0
  6
BYLAYER
100
AcDbPoint
 10
463.0
 20
0.0
 30
0.0
  0
POINT
  5
370
100
AcDbEntity
  8
0
 62
1
420
16711680
370
5
 48
1.0
  6
BYLAYER
100
AcDbPoint
 10
470.0
 20
7.0
 30
0.0
  0
POINT
  5
371
100
AcDbEntity
  8
0
 62
1
420
16711680
370
5
 48
1.0
  6
BYLAYER
100
AcDbPoint
 10
477.0
 20
0.0
 30
0.0
  0
POINT
  5
372
100
AcDbEntity
  8
0
 62
1
420
16711680
370
5
 48
1.0
  6
BYLAYER
100
AcDbPoint
 10
470.0
 20
-7.0
 30
0.0
  0
POINT
  5
373
100
AcDbEntity
  8
0
 62
1
420
16711680
370
5
 48
1.0
  6
BYLAYER
100
AcDbPoint
 10
475.0
 20
-4.0
 30
0.0
  0
POINT
  5
374
100
AcDbEntity
  8
0
 62
1
420
16711680
370
5
 48
1.0
  6
BYLAYER
100
AcDbPoint
 10
465.0
 20
5.0
 30
0.0
  0
POINT
  5
375
100
AcDbEntity
  8
0
 62
1
420
16711680
370
5
 48
1.0
  6
BYLAYER
100
AcDbPoint
 10
465.0
 20
-5.0
 30
0.0
  0
POINT
  5
376
100
AcDbEntity
  8
0
 62
1
420
16711680
370
5
 48
1.0
  6
BYLAYER
100
AcDbPoint
 10
475.0
 20
5.0
 30
0.0
  0
POINT
  5
377
100
AcDbEntity
  8
0
 62
1
420
16711680
370
5
 48
1.0
  6
BYLAYER
100
AcDbPoint
 10
520.0
 20
60.0
 30
0.0
  0
POINT
  5
378
100
AcDbEntity
  8
0
 62
1
420
16711680
370
5
 48
1.0
  6
BYLAYER
100
AcDbPoint
 10
540.0
 20
60.0
 30
0.0
  0
POINT
  5
379
100
AcDbEntity
  8
0
 62
1
420
16711680
370
5
 48
1.0
  6
BYLAYER
100
AcDbPoint
 10
540.0
 20
40.0
 30
0.0
  0
POINT
  5
37A
100
AcDbEntity
  8
0
 62
1
420
16711680
370
5
 48
1.0
  6
BYLAYER
100
AcDbPoint
 10
520.0
 20
40.0
 30
0.0
  0
POINT
  5
37B
100
AcDbEntity
  8
0
 62
1
420
16711680
370
5
 48
1.0
  6
BYLAYER
100
AcDbPoint
 10
530.0
 20
60.0
 30
0.0
  0
POINT
  5
37C
100
AcDbEntity
  8
0
 62
1
420
16711680
370
5
 48
1.0
  6
BYLAYER
100
AcDbPoint
 10
530.0
 20
40.0
 30
0.0
  0
POINT
  5
37D
100
AcDbEntity
  8
0
 62
1
420
16711680
370
5
 48
1.0
  6
BYLAYER
100
AcDbPoint
 10
530.0001712164926175
 20
49.9998474330213725
 30
0.0
  0
POINT
  5
37E
100
AcDbEntity
  8
0
 62
1
420
16711680
370
5
 48
1.0
  6
BYLAYER
100
AcDbPoint
 10
510.0
 20
50.0
 30
0.0
  0
POINT
  5
37F
100
AcDbEntity
  8
0
 62
1
420
16711680
370
5
 48
1.0
  6
BYLAYER
100
AcDbPoint
 10
550.0
 20
50.0
 30
0.0
  0
POINT
  5
380
100
AcDbEntity
  8
0
 62
1
420
16711680
370
5
 48
1.0
  6
BYLAYER
100
AcDbPoint
 10
530.0
 20
20.0
 30
0.0
  0
POINT
  5
381
100
AcDbEntity
  8
0
 62
1
420
16711680
370
5
 48
1.0
  6
BYLAYER
100
AcDbPoint
 10
530.0
 20
0.0
 30
0.0
  0
POINT
  5
382
100
AcDbEntity
  8
0
 62
1
420
16711680
370
5
 48
1.0
  6
BYLAYER
100
AcDbPoint
 10
550.0
 20
20.0
 30
0.0
  0
POINT
  5
383
100
AcDbEntity
  8
0
 62
1
420
16711680
370
5
 48
1.0
  6
BYLAYER
100
AcDbPoint
 10
550.0
 20
10.0
 30
0.0
  0
POINT
  5
384
100
AcDbEntity
  8
0
 62
1
420
16711680
370
5
 48
1.0
  6
BYLAYER
100
AcDbPoint
 10
550.0
 20
-10.0
 30
0.0
  0
POINT
  5
385
100
AcDbEntity
  8
0
 62
1
420
16711680
370
5
 48
1.0
  6
BYLAYER
100
AcDbPoint
 10
540.0
 20
-10.0
 30
0.0
  0
POINT
  5
386
100
AcDbEntity
  8
0
 62
1
420
16711680
370
5
 48
1.0
  6
BYLAYER
100
AcDbPoint
 10
530.0
 20
-20.0
 30
0.0
  0
POINT
  5
387
100
AcDbEntity
  8
0
 62
1
420
16711680
370
5
 48
1.0
  6
BYLAYER
100
AcDbPoint
 10
540.0
 20
-20.0
 30
0.0
  0
POINT
  5
388
100
AcDbEntity
  8
0
 62
1
420
16711680
370
5
 48
1.0
  6
BYLAYER
100
AcDbPoint
 10
550.0
 20
-20.0
 30
0.0
  0
POINT
  5
389
100
AcDbEntity
  8
0
 62
1
420
16711680
370
5
 48
1.0
  6
BYLAYER
100
AcDbPoint
 10
530.0
 20
10.0
 30
0.0
  0
POINT
  5
38A
100
AcDbEntity
  8
0
 62
1
420
16711680
370
5
 48
1.0
  6
BYLAYER
100
AcDbPoint
 10
540.0
 20
20.0
 30
0.0
  0
POINT
  5
38B
100
AcDbEntity
  8
0
 62
1
420
16711680
370
5
 48
1.0
  6
BYLAYER
100
AcDbPoint
 10
540.0
 20
10.0
 30
0.0
  0
POINT
  5
38C
100
AcDbEntity
  8
0
 62
1
420
16711680
370
5
 48
1.0
  6
BYLAYER
100
AcDbPoint
 10
520.0
 20
10.0
 30
0.0
  0
POINT
  5
38D
100
AcDbEntity
  8
0
 62
1
420
16711680
370
5
 48
1.0
  6
BYLAYER
100
AcDbPoint
 10
560.0
 20
-20.0
 30
0.0
  0
POINT
  5
38E
100
AcDbEntity
  8
0
 62
1
420
16711680
370
5
 48
1.0
  6
BYLAYER
100
AcDbPoint
 10
530.0
 20
-10.0
 30
0.0
  0
POINT
  5
38F
100
AcDbEntity
  8
0
 62
1
420
16711680
370
5
 48
1.0
  6
BYLAYER
100
AcDbPoint
 10
550.0
 20
0.0
 30
0.0
  0
POINT
  5
390
100
AcDbEntity
  8
0
 62
1
420
16711680
370
5
 48
1.0
  6
BYLAYER
100
AcDbPoint
 10
540.0
 20
0.0
 30
0.0
  0
POINT
  5
391
100
AcDbEntity
  8
0
 62
1
420
16711680
370
5
 48
1.0
  6
BYLAYER
100
AcDbPoint
 10
560.0
 20
10.0
 30
0.0
  0
POINT
  5
392
100
AcDbEntity
  8
0
 62
1
420
16711680
370
5
 48
1.0
  6
BYLAYER
100
AcDbPoint
 10
560.0
 20
20.0
 30
0.0
  0
POINT
  5
393
100
AcDbEntity
  8
0
 62
1
420
16711680
370
5
 48
1.0
  6
BYLAYER
100
AcDbPoint
 10
520.0
 20
20.0
 30
0.0
  0
POINT
  5
394
100
AcDbEntity
  8
0
 62
1
420
16711680
370
5
 48
1.0
  6
BYLAYER
100
AcDbPoint
 10
520.0
 20
0.0
 30
0.0
  0
POINT
  5
395
100
AcDbEntity
  8
0
 62
1
420
16711680
370
5
 48
1.0
  6
BYLAYER
100
AcDbPoint
 10
520.0
 20
-10.0
 30
0.0
  0
POINT
  5
396
100
AcDbEntity
  8
0
 62
1
420
16711680
370
5
 48
1.0
  6
BYLAYER
100
AcDbPoint
 10
520.0
 20
-20.0
 30
0.0
  0
POINT
  5
397
100
AcDbEntity
  8
0
 62
1
420
16711680
370
5
 48
1.0
  6
BYLAYER
100
AcDbPoint
 10
560.0
 20
-10.0
 30
0.0
  0
POINT
  5
398
100
AcDbEntity
  8
0
 62
1
420
16711680
370
5
 48
1.0
  6
BYLAYER
100
AcDbPoint
 10
560.0
 20
0.0
 30
0.0
  0
ENDSEC
  0
SECTION
  2
OBJECTS
  0
DICTIONARY
  5
C
100
AcDbDictionary
280
0
281
1
  3
ACAD_GROUP
350
D
  3
ACAD_LAYOUT
350
1A
  3
ACAD_MLINESTYLE
350
17
  3
ACAD_PLOTSETTINGS
350
19
  3
ACAD_PLOTSTYLENAME
350
E
  3
AcDbVariableDictionary
350
399
  3
QCAD_OBJECTS
350
39A
  0
DICTIONARY
  5
D
100
AcDbDictionary
280
0
281
1
  0
ACDBDICTIONARYWDFLT
  5
E
100
AcDbDictionary
281
1
  3
Normal
350
F
100
AcDbDictionaryWithDefault
340
F
  0
ACDBPLACEHOLDER
  5
F
  0
DICTIONARY
  5
17
100
AcDbDictionary
280
0
281
1
  3
Standard
350
18
  0
MLINESTYLE
  5
18
100
AcDbMlineStyle
  2
STANDARD
 70
0
  3

 62
256
 51
90.0
 52
90.0
 71
2
 49
0.5
 62
256
  6
BYLAYER
 49
-0.5
 62
256
  6
BYLAYER
  0
DICTIONARY
  5
19
100
AcDbDictionary
280
0
281
1
  0
DICTIONARY
  5
1A
100
AcDbDictionary
281
1
  3
Layout1
350
1E
  3
Layout2
350
26
  3
Model
350
22
  0
LAYOUT
  5
1E
100
AcDbPlotSettings
  1

  2
none_device
  4

  6

 40
0.0
 41
0.0
 42
0.0
 43
0.0
 44
0.0
 45
0.0
 46
0.0
 47
0.0
 48
0.0
 49
0.0
140
0.0
141
0.0
142
1.0
143
1.0
 70
688
 72
0
 73
0
 74
5
  7

 75
16
147
1.0
148
0.0
149
0.0
100
AcDbLayout
  1
Layout1
 70
1
 71
1
 10
0.0
 20
0.0
 11
420.0
 21
297.0
 12
0.0
 22
0.0
 32
0.0
 14
100000000000000000000.0
 24
100000000000000000000.0
 34
100000000000000000000.0
 15
-100000000000000000000.0
 25
-100000000000000000000.0
 35
-100000000000000000000.0
146
0.0
 13
0.0
 23
0.0
 33
0.0
 16
1.0
 26
0.0
 36
0.0
 17
0.0
 27
1.0
 37
0.0
 76
0
330
1B
  0
LAYOUT
  5
22
100
AcDbPlotSettings
  1

  2
none_device
  4

  6

 40
0.0
 41
0.0
 42
0.0
 43
0.0
 44
0.0
 45
0.0
 46
0.0
 47
0.0
 48
0.0
 49
0.0
140
0.0
141
0.0
142
1.0
143
1.0
 70
1712
 72
0
 73
0
 74
0
  7

 75
0
147
1.0
148
0.0
149
0.0
100
AcDbLayout
  1
Model
 70
1
 71
0
 10
0.0
 20
0.0
 11
12.0
 21
9.0
 12
0.0
 22
0.0
 32
0.0
 14
0.0
 24
0.0
 34
0.0
 15
0.0
 25
0.0
 35
0.0
146
0.0
 13
0.0
 23
0.0
 33
0.0
 16
1.0
 26
0.0
 36
0.0
 17
0.0
 27
1.0
 37
0.0
 76
0
330
1F
  0
LAYOUT
  5
26
100
AcDbPlotSettings
  1

  2
none_device
  4

  6

 40
0.0
 41
0.0
 42
0.0
 43
0.0
 44
0.0
 45
0.0
 46
0.0
 47
0.0
 48
0.0
 49
0.0
140
0.0
141
0.0
142
1.0
143
1.0
 70
688
 72
0
 73
0
 74
5
  7

 75
16
147
1.0
148
0.0
149
0.0
100
AcDbLayout
  1
Layout2
 70
1
 71
2
 10
0.0
 20
0.0
 11
12.0
 21
9.0
 12
0.0
 22
0.0
 32
0.0
 14
0.0
 24
0.0
 34
0.0
 15
0.0
 25
0.0
 35
0.0
146
0.0
 13
0.0
 23
0.0
 33
0.0
 16
1.0
 26
0.0
 36
0.0
 17
0.0
 27
1.0
 37
0.0
 76
0
330
23
  0
DICTIONARY
  5
399
100
AcDbDictionary
281
1
  3
DIMASSOC
350
39C
  3
HIDETEXT
350
39B
  0
DICTIONARYVAR
  5
39B
100
DictionaryVariables
280
0
  1
2
  0
DICTIONARYVAR
  5
39C
100
DictionaryVariables
280
0
  1
1
  0
DICTIONARY
  5
39A
100
AcDbDictionary
281
1
  3
ColorSettings/BackgroundColor
350
39D
  3
ColorSettings/ColorMode
350
39E
  3
Grid/DisplayGrid00
350
39F
  3
Grid/DisplayGrid01
350
3A0
  3
Grid/DisplayGrid02
350
3A1
  3
Grid/DisplayGrid03
350
3A2
  3
Grid/GridSpacingX00
350
3A3
  3
Grid/GridSpacingX01
350
3A4
  3
Grid/GridSpacingX02
350
3A5
  3
Grid/GridSpacingX03
350
3A6
  3
Grid/GridSpacingY00
350
3A7
  3
Grid/GridSpacingY01
350
3A8
  3
Grid/GridSpacingY02
350
3A9
  3
Grid/GridSpacingY03
350
3AA
  3
Grid/IsometricGrid00
350
3AB
  3
Grid/IsometricGrid01
350
3AC
  3
Grid/IsometricGrid02
350
3AD
  3
Grid/IsometricGrid03
350
3AE
  3
Grid/IsometricProjection00
350
3AF
  3
Grid/IsometricProjection01
350
3B0
  3
Grid/IsometricProjection02
350
3B1
  3
Grid/IsometricProjection03
350
3B2
  3
Grid/MetaGridSpacingX00
350
3B3
  3
Grid/MetaGridSpacingX01
350
3B4
  3
Grid/MetaGridSpacingX02
350
3B5
  3
Grid/MetaGridSpacingX03
350
3B6
  3
Grid/MetaGridSpacingY00
350
3B7
  3
Grid/MetaGridSpacingY01
350
3B8
  3
Grid/MetaGridSpacingY02
350
3B9
  3
Grid/MetaGridSpacingY03
350
3BA
  3
MultiPageSettings/Columns
350
3BB
  3
MultiPageSettings/GlueMarginsBottom
350
3BC
  3
MultiPageSettings/GlueMarginsLeft
350
3BD
  3
MultiPageSettings/GlueMarginsRight
350
3BE
  3
MultiPageSettings/GlueMarginsTop
350
3BF
  3
MultiPageSettings/PrintCropMarks
350
3C0
  3
MultiPageSettings/Rows
350
3C1
  3
PageSettings/OffsetX
350
3C2
  3
PageSettings/OffsetY
350
3C3
  3
PageSettings/PageOrientation
350
3C4
  3
PageSettings/PaperHeight
350
3C5
  3
PageSettings/PaperSizeName
350
3C6
  3
PageSettings/PaperWidth
350
3C7
  3
PageSettings/PointSize
350
3C8
  3
PageSettings/Scale
350
3C9
  3
PageSettings/ShowPaperBorders
350
3CA
  3
QCADVersion
350
3CB
  3
UnitSettings/PaperUnit
350
3CC
  3
ViewportCenter
350
3CD
  3
ViewportHeight
350
3CE
  3
ViewportWidth
350
3CF
  0
XRECORD
  5
39D
330
39A
100
AcDbXrecord
280
1
1000
\U+767d\U+8272
  0
XRECORD
  5
39E
330
39A
100
AcDbXrecord
280
1
1000
BlackWhite
  0
XRECORD
  5
39F
330
39A
100
AcDbXrecord
280
1
290
1
  0
XRECORD
  5
3A0
330
39A
100
AcDbXrecord
280
1
290
1
  0
XRECORD
  5
3A1
330
39A
100
AcDbXrecord
280
1
290
1
  0
XRECORD
  5
3A2
330
39A
100
AcDbXrecord
280
1
290
1
  0
XRECORD
  5
3A3
330
39A
100
AcDbXrecord
280
1
1000
auto
  0
XRECORD
  5
3A4
330
39A
100
AcDbXrecord
280
1
1000
auto
  0
XRECORD
  5
3A5
330
39A
100
AcDbXrecord
280
1
1000
auto
  0
XRECORD
  5
3A6
330
39A
100
AcDbXrecord
280
1
1000
auto
  0
XRECORD
  5
3A7
330
39A
100
AcDbXrecord
280
1
1000
auto
  0
XRECORD
  5
3A8
330
39A
100
AcDbXrecord
280
1
1000
auto
  0
XRECORD
  5
3A9
330
39A
100
AcDbXrecord
280
1
1000
auto
  0
XRECORD
  5
3AA
330
39A
100
AcDbXrecord
280
1
1000
auto
  0
XRECORD
  5
3AB
330
39A
100
AcDbXrecord
280
1
290
0
  0
XRECORD
  5
3AC
330
39A
100
AcDbXrecord
280
1
290
0
  0
XRECORD
  5
3AD
330
39A
100
AcDbXrecord
280
1
290
0
  0
XRECORD
  5
3AE
330
39A
100
AcDbXrecord
280
1
290
0
  0
XRECORD
  5
3AF
330
39A
100
AcDbXrecord
280
1
 90
65537
  0
XRECORD
  5
3B0
330
39A
100
AcDbXrecord
280
1
 90
65537
  0
XRECORD
  5
3B1
330
39A
100
AcDbXrecord
280
1
 90
65537
  0
XRECORD
  5
3B2
330
39A
100
AcDbXrecord
280
1
 90
65537
  0
XRECORD
  5
3B3
330
39A
100
AcDbXrecord
280
1
1000
auto
  0
XRECORD
  5
3B4
330
39A
100
AcDbXrecord
280
1
1000
auto
  0
XRECORD
  5
3B5
330
39A
100
AcDbXrecord
280
1
1000
auto
  0
XRECORD
  5
3B6
330
39A
100
AcDbXrecord
280
1
1000
auto
  0
XRECORD
  5
3B7
330
39A
100
AcDbXrecord
280
1
1000
auto
  0
XRECORD
  5
3B8
330
39A
100
AcDbXrecord
280
1
1000
auto
  0
XRECORD
  5
3B9
330
39A
100
AcDbXrecord
280
1
1000
auto
  0
XRECORD
  5
3BA
330
39A
100
AcDbXrecord
280
1
1000
auto
  0
XRECORD
  5
3BB
330
39A
100
AcDbXrecord
280
1
 90
1
  0
XRECORD
  5
3BC
330
39A
100
AcDbXrecord
280
1
 40
10.0
  0
XRECORD
  5
3BD
330
39A
100
AcDbXrecord
280
1
 40
10.0
  0
XRECORD
  5
3BE
330
39A
100
AcDbXrecord
280
1
 40
10.0
  0
XRECORD
  5
3BF
330
39A
100
AcDbXrecord
280
1
 40
10.0
  0
XRECORD
  5
3C0
330
39A
100
AcDbXrecord
280
1
290
0
  0
XRECORD
  5
3C1
330
39A
100
AcDbXrecord
280
1
 90
1
  0
XRECORD
  5
3C2
330
39A
100
AcDbXrecord
280
1
 40
150.7108934135764002
  0
XRECORD
  5
3C3
330
39A
100
AcDbXrecord
280
1
 40
-348.0655014229068911
  0
XRECORD
  5
3C4
330
39A
100
AcDbXrecord
280
1
1000
Landscape
  0
XRECORD
  5
3C5
330
39A
100
AcDbXrecord
280
1
 40
297.0
  0
XRECORD
  5
3C6
330
39A
100
AcDbXrecord
280
1
1000
ISO A4
  0
XRECORD
  5
3C7
330
39A
100
AcDbXrecord
280
1
 40
210.0
  0
XRECORD
  5
3C8
330
39A
100
AcDbXrecord
280
1
1000
0.5
  0
XRECORD
  5
3C9
330
39A
100
AcDbXrecord
280
1
1000
1:1
  0
XRECORD
  5
3CA
330
39A
100
AcDbXrecord
280
1
290
1
  0
XRECORD
  5
3CB
330
39A
100
AcDbXrecord
280
1
1000
3.21.3.2
  0
XRECORD
  5
3CC
330
39A
100
AcDbXrecord
280
1
 90
4
  0
XRECORD
  5
3CE
330
39A
100
AcDbXrecord
280
1
 40
703.6892302358696725
  0
XRECORD
  5
3CF
330
39A
100
AcDbXrecord
280
1
 40
1088.6486326590220415
  0
ENDSEC
  0
EOF
